# MagicaVoxel @ Ephtracy

# group
o 

# material
mtllib Goblin Torso.mtl
usemtl palette

# normals
vn -1 0 0
vn 1 0 0
vn 0 0 1
vn 0 0 -1
vn 0 -1 0
vn 0 1 0

# texcoords
vt 0.794922 0.5
vt 0.818359 0.5
vt 0.869141 0.5
vt 0.873047 0.5
vt 0.904297 0.5
vt 0.908203 0.5
vt 0.974609 0.5
vt 0.986328 0.5

# verts
v -0.4 0.4 0.2
v -0.4 0.4 0.1
v -0.4 0.4 -0.1
v -0.4 0.4 -0.2
v -0.4 0.6 0.2
v -0.4 0.6 0.1
v -0.4 0.6 0
v -0.4 0.6 -0.1
v -0.4 0.6 -0.2
v -0.4 0.7 0.1
v -0.4 0.7 0
v -0.4 0.7 -0.1
v -0.3 0 0.2
v -0.3 0 0
v -0.3 0 -0.1
v -0.3 0 -0.2
v -0.3 0.1 0.2
v -0.3 0.1 0
v -0.3 0.1 -0.1
v -0.3 0.1 -0.2
v -0.3 0.2 0.2
v -0.3 0.2 0.1
v -0.3 0.2 0
v -0.3 0.2 -0.2
v -0.3 0.3 0.2
v -0.3 0.3 0.1
v -0.3 0.4 0.2
v -0.3 0.4 0.1
v -0.3 0.4 0
v -0.3 0.4 -0.1
v -0.3 0.4 -0.2
v -0.3 0.6 0.2
v -0.3 0.6 0.1
v -0.3 0.6 -0.1
v -0.3 0.6 -0.2
v -0.3 0.7 0.2
v -0.3 0.7 0.1
v -0.3 0.7 -0.1
v -0.3 0.7 -0.2
v -0.1 0.7 0.1
v -0.1 0.7 -0.1
v -0.1 0.8 0.1
v -0.1 0.8 -0.1
v 0.1 0.7 0.1
v 0.1 0.7 -0.1
v 0.1 0.8 0.1
v 0.1 0.8 -0.1
v 0.3 0 0.2
v 0.3 0 0.1
v 0.3 0 -0.1
v 0.3 0 -0.2
v 0.3 0.1 0.2
v 0.3 0.1 0.1
v 0.3 0.1 -0.1
v 0.3 0.1 -0.2
v 0.3 0.2 0.2
v 0.3 0.2 0.1
v 0.3 0.2 0
v 0.3 0.2 -0.2
v 0.3 0.3 0.1
v 0.3 0.3 0
v 0.3 0.4 0.2
v 0.3 0.4 0.1
v 0.3 0.4 -0.1
v 0.3 0.4 -0.2
v 0.3 0.6 0.2
v 0.3 0.6 0.1
v 0.3 0.6 -0.1
v 0.3 0.6 -0.2
v 0.3 0.7 0.2
v 0.3 0.7 0.1
v 0.3 0.7 -0.1
v 0.3 0.7 -0.2
v 0.4 0.4 0.2
v 0.4 0.4 0.1
v 0.4 0.4 -0.1
v 0.4 0.4 -0.2
v 0.4 0.5 0.2
v 0.4 0.5 0.1
v 0.4 0.6 0.2
v 0.4 0.6 0.1
v 0.4 0.6 -0.1
v 0.4 0.6 -0.2
v 0.4 0.7 0.1
v 0.4 0.7 -0.1
v -0.4 0.4 0.2
v -0.4 0.6 0.2
v -0.3 0 0.2
v -0.3 0.1 0.2
v -0.3 0.2 0.2
v -0.3 0.3 0.2
v -0.3 0.4 0.2
v -0.3 0.6 0.2
v -0.3 0.7 0.2
v -0.2 0.3 0.2
v -0.2 0.4 0.2
v -0.2 0.6 0.2
v -0.2 0.7 0.2
v -0.1 0.1 0.2
v -0.1 0.2 0.2
v -0.1 0.3 0.2
v -0.1 0.5 0.2
v -0.1 0.6 0.2
v 0 0.2 0.2
v 0 0.3 0.2
v 0.1 0.1 0.2
v 0.1 0.2 0.2
v 0.1 0.3 0.2
v 0.1 0.4 0.2
v 0.1 0.5 0.2
v 0.1 0.6 0.2
v 0.2 0 0.2
v 0.2 0.1 0.2
v 0.2 0.3 0.2
v 0.2 0.4 0.2
v 0.2 0.6 0.2
v 0.2 0.7 0.2
v 0.3 0 0.2
v 0.3 0.1 0.2
v 0.3 0.2 0.2
v 0.3 0.4 0.2
v 0.3 0.5 0.2
v 0.3 0.6 0.2
v 0.3 0.7 0.2
v 0.4 0.4 0.2
v 0.4 0.5 0.2
v 0.4 0.6 0.2
v -0.4 0.6 0.1
v -0.4 0.7 0.1
v -0.3 0.6 0.1
v -0.3 0.7 0.1
v -0.1 0.7 0.1
v -0.1 0.8 0.1
v 0.1 0.7 0.1
v 0.1 0.8 0.1
v 0.3 0.6 0.1
v 0.3 0.7 0.1
v 0.4 0.6 0.1
v 0.4 0.7 0.1
v -0.4 0.6 -0.1
v -0.4 0.7 -0.1
v -0.3 0.6 -0.1
v -0.3 0.7 -0.1
v -0.1 0.7 -0.1
v -0.1 0.8 -0.1
v 0 0.7 -0.1
v 0.1 0.7 -0.1
v 0.1 0.8 -0.1
v 0.3 0.6 -0.1
v 0.3 0.7 -0.1
v 0.4 0.6 -0.1
v 0.4 0.7 -0.1
v -0.4 0.4 -0.2
v -0.4 0.6 -0.2
v -0.3 0 -0.2
v -0.3 0.1 -0.2
v -0.3 0.2 -0.2
v -0.3 0.4 -0.2
v -0.3 0.6 -0.2
v -0.3 0.7 -0.2
v -0.2 0.5 -0.2
v -0.2 0.6 -0.2
v -0.2 0.7 -0.2
v -0.1 0.6 -0.2
v -0.1 0.7 -0.2
v 0 0 -0.2
v 0 0.1 -0.2
v 0 0.3 -0.2
v 0 0.4 -0.2
v 0 0.5 -0.2
v 0 0.7 -0.2
v 0.1 0 -0.2
v 0.1 0.1 -0.2
v 0.1 0.3 -0.2
v 0.1 0.4 -0.2
v 0.2 0 -0.2
v 0.2 0.1 -0.2
v 0.2 0.4 -0.2
v 0.2 0.6 -0.2
v 0.3 0 -0.2
v 0.3 0.1 -0.2
v 0.3 0.2 -0.2
v 0.3 0.4 -0.2
v 0.3 0.6 -0.2
v 0.3 0.7 -0.2
v 0.4 0.4 -0.2
v 0.4 0.6 -0.2
v -0.3 0 0.2
v 0.2 0 0.2
v 0.3 0 0.2
v 0.2 0 0.1
v 0.3 0 0.1
v -0.3 0 0
v -0.2 0 0
v -0.3 0 -0.1
v -0.2 0 -0.1
v 0 0 -0.1
v 0.1 0 -0.1
v 0.2 0 -0.1
v 0.3 0 -0.1
v -0.3 0 -0.2
v 0 0 -0.2
v 0.1 0 -0.2
v 0.2 0 -0.2
v 0.3 0 -0.2
v -0.4 0.4 0.2
v -0.3 0.4 0.2
v 0.3 0.4 0.2
v 0.4 0.4 0.2
v -0.4 0.4 0.1
v -0.3 0.4 0.1
v 0.3 0.4 0.1
v 0.4 0.4 0.1
v -0.3 0.4 0
v -0.4 0.4 -0.1
v -0.3 0.4 -0.1
v 0.3 0.4 -0.1
v 0.4 0.4 -0.1
v -0.4 0.4 -0.2
v -0.3 0.4 -0.2
v 0.3 0.4 -0.2
v 0.4 0.4 -0.2
v -0.4 0.6 0.2
v -0.3 0.6 0.2
v 0.3 0.6 0.2
v 0.4 0.6 0.2
v -0.4 0.6 0.1
v -0.3 0.6 0.1
v 0.3 0.6 0.1
v 0.4 0.6 0.1
v -0.4 0.6 -0.1
v -0.3 0.6 -0.1
v 0.3 0.6 -0.1
v 0.4 0.6 -0.1
v -0.4 0.6 -0.2
v -0.3 0.6 -0.2
v 0.3 0.6 -0.2
v 0.4 0.6 -0.2
v -0.3 0.7 0.2
v -0.2 0.7 0.2
v 0.2 0.7 0.2
v 0.3 0.7 0.2
v -0.4 0.7 0.1
v -0.3 0.7 0.1
v -0.2 0.7 0.1
v -0.1 0.7 0.1
v 0.1 0.7 0.1
v 0.2 0.7 0.1
v 0.3 0.7 0.1
v 0.4 0.7 0.1
v -0.4 0.7 0
v -0.3 0.7 0
v -0.4 0.7 -0.1
v -0.3 0.7 -0.1
v -0.2 0.7 -0.1
v -0.1 0.7 -0.1
v 0 0.7 -0.1
v 0.1 0.7 -0.1
v 0.2 0.7 -0.1
v 0.3 0.7 -0.1
v 0.4 0.7 -0.1
v -0.3 0.7 -0.2
v -0.2 0.7 -0.2
v -0.1 0.7 -0.2
v 0 0.7 -0.2
v 0.3 0.7 -0.2
v -0.1 0.8 0.1
v 0.1 0.8 0.1
v -0.1 0.8 -0.1
v 0.1 0.8 -0.1

# faces
f 5/3/1 2/3/1 1/3/1
f 6/1/1 3/1/1 2/1/1
f 6/3/1 2/3/1 5/3/1
f 7/1/1 3/1/1 6/1/1
f 8/3/1 4/3/1 3/3/1
f 8/1/1 3/1/1 7/1/1
f 9/3/1 4/3/1 8/3/1
f 10/3/1 7/3/1 6/3/1
f 11/5/1 8/5/1 7/5/1
f 11/3/1 7/3/1 10/3/1
f 12/5/1 8/5/1 11/5/1
f 17/3/1 14/3/1 13/3/1
f 18/5/1 15/5/1 14/5/1
f 18/3/1 14/3/1 17/3/1
f 19/3/1 16/3/1 15/3/1
f 19/5/1 15/5/1 18/5/1
f 20/3/1 16/3/1 19/3/1
f 21/4/1 18/4/1 17/4/1
f 21/4/1 19/4/1 18/4/1
f 21/4/1 20/4/1 19/4/1
f 22/4/1 20/4/1 21/4/1
f 23/4/1 20/4/1 22/4/1
f 24/4/1 20/4/1 23/4/1
f 25/3/1 22/3/1 21/3/1
f 26/5/1 23/5/1 22/5/1
f 26/3/1 22/3/1 25/3/1
f 27/5/1 26/5/1 25/5/1
f 28/5/1 23/5/1 26/5/1
f 28/5/1 26/5/1 27/5/1
f 29/3/1 24/3/1 23/3/1
f 29/5/1 23/5/1 28/5/1
f 30/3/1 24/3/1 29/3/1
f 31/3/1 24/3/1 30/3/1
f 36/3/1 33/3/1 32/3/1
f 37/3/1 33/3/1 36/3/1
f 38/5/1 35/5/1 34/5/1
f 39/5/1 35/5/1 38/5/1
f 42/5/1 41/5/1 40/5/1
f 43/5/1 41/5/1 42/5/1
f 44/5/2 45/5/2 46/5/2
f 46/5/2 45/5/2 47/5/2
f 48/5/2 49/5/2 52/5/2
f 49/3/2 50/3/2 53/3/2
f 52/5/2 49/5/2 53/5/2
f 50/5/2 51/5/2 54/5/2
f 53/3/2 50/3/2 54/3/2
f 54/5/2 51/5/2 55/5/2
f 52/4/2 53/4/2 56/4/2
f 53/4/2 54/4/2 56/4/2
f 54/4/2 55/4/2 56/4/2
f 56/4/2 55/4/2 57/4/2
f 57/4/2 55/4/2 58/4/2
f 58/4/2 55/4/2 59/4/2
f 56/3/2 57/3/2 60/3/2
f 57/5/2 58/5/2 60/5/2
f 58/3/2 59/3/2 61/3/2
f 60/5/2 58/5/2 61/5/2
f 56/3/2 60/3/2 62/3/2
f 60/3/2 61/3/2 62/3/2
f 62/3/2 61/3/2 63/3/2
f 61/3/2 59/3/2 64/3/2
f 63/3/2 61/3/2 64/3/2
f 64/3/2 59/3/2 65/3/2
f 66/3/2 67/3/2 70/3/2
f 70/3/2 67/3/2 71/3/2
f 68/3/2 69/3/2 72/3/2
f 72/3/2 69/3/2 73/3/2
f 74/3/2 75/3/2 78/3/2
f 75/1/2 76/1/2 79/1/2
f 78/3/2 75/3/2 79/3/2
f 78/5/2 79/5/2 80/5/2
f 79/1/2 76/1/2 81/1/2
f 80/5/2 79/5/2 81/5/2
f 76/3/2 77/3/2 82/3/2
f 81/1/2 76/1/2 82/1/2
f 82/3/2 77/3/2 83/3/2
f 81/3/2 82/3/2 84/3/2
f 84/3/2 82/3/2 85/3/2
f 92/3/3 87/3/3 86/3/3
f 93/3/3 87/3/3 92/3/3
f 95/3/3 91/3/3 90/3/3
f 95/5/3 92/5/3 91/5/3
f 96/3/3 94/3/3 93/3/3
f 96/5/3 92/5/3 95/5/3
f 96/3/3 93/3/3 92/3/3
f 97/3/3 94/3/3 96/3/3
f 98/3/3 94/3/3 97/3/3
f 99/3/3 89/3/3 88/3/3
f 99/4/3 90/4/3 89/4/3
f 100/3/3 95/3/3 90/3/3
f 100/4/3 90/4/3 99/4/3
f 100/3/3 96/3/3 95/3/3
f 100/3/3 97/3/3 96/3/3
f 101/3/3 97/3/3 100/3/3
f 102/3/3 97/3/3 101/3/3
f 103/6/3 98/6/3 97/6/3
f 103/3/3 97/3/3 102/3/3
f 104/7/3 100/7/3 99/7/3
f 104/6/3 101/6/3 100/6/3
f 105/3/3 102/3/3 101/3/3
f 105/6/3 101/6/3 104/6/3
f 106/3/3 99/3/3 88/3/3
f 106/7/3 104/7/3 99/7/3
f 107/3/3 105/3/3 104/3/3
f 107/7/3 104/7/3 106/7/3
f 108/3/3 102/3/3 105/3/3
f 108/3/3 105/3/3 107/3/3
f 109/3/3 102/3/3 108/3/3
f 110/2/3 103/2/3 102/2/3
f 110/3/3 102/3/3 109/3/3
f 111/6/3 98/6/3 103/6/3
f 111/2/3 103/2/3 110/2/3
f 112/3/3 106/3/3 88/3/3
f 113/4/3 107/4/3 106/4/3
f 113/3/3 106/3/3 112/3/3
f 114/5/3 109/5/3 108/5/3
f 114/3/3 108/3/3 107/3/3
f 115/3/3 110/3/3 109/3/3
f 115/5/3 109/5/3 114/5/3
f 115/3/3 111/3/3 110/3/3
f 116/6/3 98/6/3 111/6/3
f 116/3/3 111/3/3 115/3/3
f 117/6/3 98/6/3 116/6/3
f 118/5/3 113/5/3 112/5/3
f 119/4/3 107/4/3 113/4/3
f 119/5/3 113/5/3 118/5/3
f 120/3/3 115/3/3 114/3/3
f 120/4/3 107/4/3 119/4/3
f 120/3/3 114/3/3 107/3/3
f 120/3/3 117/3/3 116/3/3
f 120/3/3 116/3/3 115/3/3
f 121/3/3 117/3/3 120/3/3
f 122/3/3 117/3/3 121/3/3
f 123/3/3 117/3/3 122/3/3
f 124/3/3 117/3/3 123/3/3
f 125/3/3 122/3/3 121/3/3
f 126/5/3 123/5/3 122/5/3
f 126/3/3 122/3/3 125/3/3
f 127/5/3 123/5/3 126/5/3
f 130/3/3 129/3/3 128/3/3
f 131/3/3 129/3/3 130/3/3
f 134/5/3 133/5/3 132/5/3
f 135/5/3 133/5/3 134/5/3
f 138/3/3 137/3/3 136/3/3
f 139/3/3 137/3/3 138/3/3
f 140/5/4 141/5/4 142/5/4
f 142/5/4 141/5/4 143/5/4
f 144/5/4 145/5/4 146/5/4
f 146/5/4 145/5/4 147/5/4
f 147/5/4 145/5/4 148/5/4
f 149/3/4 150/3/4 151/3/4
f 151/3/4 150/3/4 152/3/4
f 153/3/4 154/3/4 158/3/4
f 158/3/4 154/3/4 159/3/4
f 157/3/4 158/3/4 161/3/4
f 158/3/4 159/3/4 161/3/4
f 159/5/4 160/5/4 162/5/4
f 161/3/4 159/3/4 162/3/4
f 162/5/4 160/5/4 163/5/4
f 161/5/4 162/5/4 164/5/4
f 162/3/4 163/3/4 164/3/4
f 164/3/4 163/3/4 165/3/4
f 155/3/4 156/3/4 166/3/4
f 156/4/4 157/4/4 167/4/4
f 166/3/4 156/3/4 167/3/4
f 157/3/4 161/3/4 168/3/4
f 168/3/4 161/3/4 169/3/4
f 161/5/4 164/5/4 170/5/4
f 169/3/4 161/3/4 170/3/4
f 164/5/4 165/5/4 170/5/4
f 170/5/4 165/5/4 171/5/4
f 166/5/4 167/5/4 172/5/4
f 167/4/4 157/4/4 173/4/4
f 172/5/4 167/5/4 173/5/4
f 168/5/4 169/5/4 174/5/4
f 157/3/4 168/3/4 174/3/4
f 169/3/4 170/3/4 175/3/4
f 174/5/4 169/5/4 175/5/4
f 170/3/4 171/3/4 175/3/4
f 172/3/4 173/3/4 176/3/4
f 173/4/4 157/4/4 177/4/4
f 176/3/4 173/3/4 177/3/4
f 175/3/4 171/3/4 178/3/4
f 174/3/4 175/3/4 178/3/4
f 178/3/4 171/3/4 179/3/4
f 176/5/4 177/5/4 180/5/4
f 177/4/4 157/4/4 181/4/4
f 180/5/4 177/5/4 181/5/4
f 157/3/4 174/3/4 182/3/4
f 181/4/4 157/4/4 182/4/4
f 174/3/4 178/3/4 182/3/4
f 178/5/4 179/5/4 183/5/4
f 182/3/4 178/3/4 183/3/4
f 179/3/4 171/3/4 184/3/4
f 183/5/4 179/5/4 184/5/4
f 184/3/4 171/3/4 185/3/4
f 183/3/4 184/3/4 186/3/4
f 186/3/4 184/3/4 187/3/4
f 191/3/5 189/3/5 188/3/5
f 191/5/5 190/5/5 189/5/5
f 192/5/5 190/5/5 191/5/5
f 193/3/5 191/3/5 188/3/5
f 193/3/5 192/3/5 191/3/5
f 194/3/5 192/3/5 193/3/5
f 195/5/5 194/5/5 193/5/5
f 196/3/5 192/3/5 194/3/5
f 196/5/5 194/5/5 195/5/5
f 197/3/5 192/3/5 196/3/5
f 198/3/5 192/3/5 197/3/5
f 199/3/5 192/3/5 198/3/5
f 200/3/5 192/3/5 199/3/5
f 201/3/5 196/3/5 195/3/5
f 201/3/5 197/3/5 196/3/5
f 202/5/5 198/5/5 197/5/5
f 202/3/5 197/3/5 201/3/5
f 203/3/5 199/3/5 198/3/5
f 203/5/5 198/5/5 202/5/5
f 204/5/5 200/5/5 199/5/5
f 204/3/5 199/3/5 203/3/5
f 205/5/5 200/5/5 204/5/5
f 210/3/5 207/3/5 206/3/5
f 211/3/5 207/3/5 210/3/5
f 212/3/5 209/3/5 208/3/5
f 213/3/5 209/3/5 212/3/5
f 214/1/5 211/1/5 210/1/5
f 215/1/5 214/1/5 210/1/5
f 216/1/5 214/1/5 215/1/5
f 217/1/5 213/1/5 212/1/5
f 218/1/5 213/1/5 217/1/5
f 219/3/5 216/3/5 215/3/5
f 220/3/5 216/3/5 219/3/5
f 221/3/5 218/3/5 217/3/5
f 222/3/5 218/3/5 221/3/5
f 223/3/6 224/3/6 227/3/6
f 227/3/6 224/3/6 228/3/6
f 225/5/6 226/5/6 229/5/6
f 229/5/6 226/5/6 230/5/6
f 231/3/6 232/3/6 235/3/6
f 235/3/6 232/3/6 236/3/6
f 233/3/6 234/3/6 237/3/6
f 237/3/6 234/3/6 238/3/6
f 239/3/6 240/3/6 244/3/6
f 240/6/6 241/6/6 245/6/6
f 244/3/6 240/3/6 245/3/6
f 245/6/6 241/6/6 246/6/6
f 246/6/6 241/6/6 247/6/6
f 241/3/6 242/3/6 248/3/6
f 247/6/6 241/6/6 248/6/6
f 248/3/6 242/3/6 249/3/6
f 243/3/6 244/3/6 251/3/6
f 244/3/6 245/3/6 251/3/6
f 251/3/6 245/3/6 252/3/6
f 251/5/6 252/5/6 253/5/6
f 252/3/6 245/3/6 254/3/6
f 253/5/6 252/5/6 254/5/6
f 245/5/6 246/5/6 255/5/6
f 254/3/6 245/3/6 255/3/6
f 255/5/6 246/5/6 256/5/6
f 247/5/6 248/5/6 258/5/6
f 249/3/6 250/3/6 259/3/6
f 248/3/6 249/3/6 259/3/6
f 258/5/6 248/5/6 259/5/6
f 259/3/6 250/3/6 260/3/6
f 260/3/6 250/3/6 261/3/6
f 254/5/6 255/5/6 262/5/6
f 255/3/6 256/3/6 263/3/6
f 262/5/6 255/5/6 263/5/6
f 256/5/6 257/5/6 264/5/6
f 263/3/6 256/3/6 264/3/6
f 257/3/6 258/3/6 265/3/6
f 264/5/6 257/5/6 265/5/6
f 259/3/6 260/3/6 265/3/6
f 258/3/6 259/3/6 265/3/6
f 265/3/6 260/3/6 266/3/6
f 267/5/6 268/5/6 269/5/6
f 269/5/6 268/5/6 270/5/6
