# MagicaVoxel @ Ephtracy

# group
o 

# material
mtllib Torso.mtl
usemtl palette

# normals
vn -1 0 0
vn 1 0 0
vn 0 0 1
vn 0 0 -1
vn 0 -1 0
vn 0 1 0

# texcoords
vt 0.818359 0.5
vt 0.873047 0.5
vt 0.908203 0.5
vt 0.974609 0.5
vt 0.986328 0.5
vt 0.994141 0.5

# verts
v -0.4 1.5 0.2
v -0.4 1.5 0.1
v -0.4 1.5 -0.1
v -0.4 1.5 -0.2
v -0.4 1.7 0.2
v -0.4 1.7 0.1
v -0.4 1.7 -0.1
v -0.4 1.7 -0.2
v -0.4 1.8 0.1
v -0.4 1.8 -0.1
v -0.3 1.1 0.2
v -0.3 1.1 -0.2
v -0.3 1.2 0.2
v -0.3 1.2 -0.2
v -0.3 1.3 0.2
v -0.3 1.3 0.1
v -0.3 1.3 -0.2
v -0.3 1.4 0.2
v -0.3 1.4 0.1
v -0.3 1.4 -0.1
v -0.3 1.4 -0.2
v -0.3 1.5 0.2
v -0.3 1.5 0.1
v -0.3 1.5 -0.1
v -0.3 1.5 -0.2
v -0.3 1.7 0.2
v -0.3 1.7 0.1
v -0.3 1.7 -0.1
v -0.3 1.7 -0.2
v -0.3 1.8 0.2
v -0.3 1.8 0.1
v -0.3 1.8 -0.1
v -0.3 1.8 -0.2
v -0.1 1.8 0.1
v -0.1 1.8 -0.1
v -0.1 1.9 0.1
v -0.1 1.9 -0.1
v 0.1 1.8 0.1
v 0.1 1.8 -0.1
v 0.1 1.9 0.1
v 0.1 1.9 -0.1
v 0.3 1.1 0.2
v 0.3 1.1 0
v 0.3 1.1 -0.2
v 0.3 1.2 0.2
v 0.3 1.2 0
v 0.3 1.2 -0.2
v 0.3 1.3 0.2
v 0.3 1.3 -0.1
v 0.3 1.3 -0.2
v 0.3 1.4 -0.1
v 0.3 1.4 -0.2
v 0.3 1.5 0.2
v 0.3 1.5 0.1
v 0.3 1.5 -0.1
v 0.3 1.5 -0.2
v 0.3 1.7 0.2
v 0.3 1.7 0.1
v 0.3 1.7 -0.1
v 0.3 1.7 -0.2
v 0.3 1.8 0.2
v 0.3 1.8 0.1
v 0.3 1.8 -0.1
v 0.3 1.8 -0.2
v 0.4 1.5 0.2
v 0.4 1.5 0.1
v 0.4 1.5 -0.1
v 0.4 1.5 -0.2
v 0.4 1.7 0.2
v 0.4 1.7 0.1
v 0.4 1.7 -0.1
v 0.4 1.7 -0.2
v 0.4 1.8 0.1
v 0.4 1.8 -0.1
v -0.4 1.5 0.2
v -0.4 1.7 0.2
v -0.3 1.1 0.2
v -0.3 1.2 0.2
v -0.3 1.3 0.2
v -0.3 1.4 0.2
v -0.3 1.5 0.2
v -0.3 1.7 0.2
v -0.3 1.8 0.2
v -0.2 1.4 0.2
v -0.2 1.5 0.2
v -0.2 1.7 0.2
v -0.2 1.8 0.2
v -0.1 1.2 0.2
v -0.1 1.3 0.2
v -0.1 1.4 0.2
v -0.1 1.5 0.2
v -0.1 1.7 0.2
v -0.1 1.8 0.2
v 0.1 1.2 0.2
v 0.1 1.3 0.2
v 0.1 1.4 0.2
v 0.1 1.5 0.2
v 0.1 1.7 0.2
v 0.1 1.8 0.2
v 0.2 1.3 0.2
v 0.2 1.5 0.2
v 0.2 1.7 0.2
v 0.2 1.8 0.2
v 0.3 1.1 0.2
v 0.3 1.2 0.2
v 0.3 1.3 0.2
v 0.3 1.5 0.2
v 0.3 1.7 0.2
v 0.3 1.8 0.2
v 0.4 1.5 0.2
v 0.4 1.7 0.2
v -0.4 1.7 0.1
v -0.4 1.8 0.1
v -0.3 1.7 0.1
v -0.3 1.8 0.1
v -0.1 1.8 0.1
v -0.1 1.9 0.1
v 0.1 1.8 0.1
v 0.1 1.9 0.1
v 0.3 1.7 0.1
v 0.3 1.8 0.1
v 0.4 1.7 0.1
v 0.4 1.8 0.1
v -0.4 1.7 -0.1
v -0.4 1.8 -0.1
v -0.3 1.7 -0.1
v -0.3 1.8 -0.1
v -0.1 1.8 -0.1
v -0.1 1.9 -0.1
v 0.1 1.8 -0.1
v 0.1 1.9 -0.1
v 0.3 1.7 -0.1
v 0.3 1.8 -0.1
v 0.4 1.7 -0.1
v 0.4 1.8 -0.1
v -0.4 1.5 -0.2
v -0.4 1.7 -0.2
v -0.3 1.1 -0.2
v -0.3 1.2 -0.2
v -0.3 1.3 -0.2
v -0.3 1.4 -0.2
v -0.3 1.5 -0.2
v -0.3 1.7 -0.2
v -0.3 1.8 -0.2
v -0.2 1.5 -0.2
v -0.2 1.7 -0.2
v -0.1 1.4 -0.2
v -0.1 1.5 -0.2
v 0 1.6 -0.2
v 0 1.7 -0.2
v 0.1 1.5 -0.2
v 0.1 1.6 -0.2
v 0.2 1.1 -0.2
v 0.2 1.2 -0.2
v 0.2 1.3 -0.2
v 0.2 1.4 -0.2
v 0.3 1.1 -0.2
v 0.3 1.2 -0.2
v 0.3 1.3 -0.2
v 0.3 1.4 -0.2
v 0.3 1.5 -0.2
v 0.3 1.7 -0.2
v 0.3 1.8 -0.2
v 0.4 1.5 -0.2
v 0.4 1.7 -0.2
v -0.3 1.1 0.2
v 0.3 1.1 0.2
v 0.2 1.1 0
v 0.3 1.1 0
v -0.3 1.1 -0.2
v 0.2 1.1 -0.2
v 0.3 1.1 -0.2
v -0.4 1.5 0.2
v -0.3 1.5 0.2
v 0.3 1.5 0.2
v 0.4 1.5 0.2
v -0.4 1.5 0.1
v -0.3 1.5 0.1
v 0.3 1.5 0.1
v 0.4 1.5 0.1
v -0.4 1.5 -0.1
v -0.3 1.5 -0.1
v 0.3 1.5 -0.1
v 0.4 1.5 -0.1
v -0.4 1.5 -0.2
v -0.3 1.5 -0.2
v 0.3 1.5 -0.2
v 0.4 1.5 -0.2
v -0.4 1.7 0.2
v -0.3 1.7 0.2
v 0.3 1.7 0.2
v 0.4 1.7 0.2
v -0.4 1.7 0.1
v -0.3 1.7 0.1
v 0.3 1.7 0.1
v 0.4 1.7 0.1
v -0.4 1.7 -0.1
v -0.3 1.7 -0.1
v 0.3 1.7 -0.1
v 0.4 1.7 -0.1
v -0.4 1.7 -0.2
v -0.3 1.7 -0.2
v 0.3 1.7 -0.2
v 0.4 1.7 -0.2
v -0.3 1.8 0.2
v -0.2 1.8 0.2
v -0.1 1.8 0.2
v 0.1 1.8 0.2
v 0.2 1.8 0.2
v 0.3 1.8 0.2
v -0.4 1.8 0.1
v -0.3 1.8 0.1
v -0.1 1.8 0.1
v 0.1 1.8 0.1
v 0.3 1.8 0.1
v 0.4 1.8 0.1
v -0.4 1.8 -0.1
v -0.3 1.8 -0.1
v -0.2 1.8 -0.1
v -0.1 1.8 -0.1
v 0.1 1.8 -0.1
v 0.2 1.8 -0.1
v 0.3 1.8 -0.1
v 0.4 1.8 -0.1
v -0.3 1.8 -0.2
v 0.3 1.8 -0.2
v -0.1 1.9 0.1
v 0.1 1.9 0.1
v -0.1 1.9 -0.1
v 0.1 1.9 -0.1

# faces
f 5/6/1 2/6/1 1/6/1
f 6/3/1 3/3/1 2/3/1
f 6/6/1 2/6/1 5/6/1
f 7/6/1 4/6/1 3/6/1
f 7/3/1 3/3/1 6/3/1
f 8/6/1 4/6/1 7/6/1
f 9/6/1 7/6/1 6/6/1
f 10/6/1 7/6/1 9/6/1
f 13/6/1 12/6/1 11/6/1
f 14/6/1 12/6/1 13/6/1
f 15/2/1 14/2/1 13/2/1
f 16/2/1 14/2/1 15/2/1
f 17/2/1 14/2/1 16/2/1
f 18/3/1 16/3/1 15/3/1
f 19/6/1 17/6/1 16/6/1
f 19/3/1 16/3/1 18/3/1
f 20/6/1 17/6/1 19/6/1
f 21/6/1 17/6/1 20/6/1
f 22/6/1 19/6/1 18/6/1
f 22/6/1 20/6/1 19/6/1
f 23/6/1 20/6/1 22/6/1
f 24/3/1 21/3/1 20/3/1
f 24/6/1 20/6/1 23/6/1
f 25/3/1 21/3/1 24/3/1
f 30/6/1 27/6/1 26/6/1
f 31/6/1 27/6/1 30/6/1
f 32/6/1 29/6/1 28/6/1
f 33/6/1 29/6/1 32/6/1
f 36/3/1 35/3/1 34/3/1
f 37/3/1 35/3/1 36/3/1
f 38/3/2 39/3/2 40/3/2
f 40/3/2 39/3/2 41/3/2
f 42/6/2 43/6/2 45/6/2
f 43/3/2 44/3/2 46/3/2
f 45/6/2 43/6/2 46/6/2
f 46/3/2 44/3/2 47/3/2
f 45/2/2 46/2/2 48/2/2
f 46/2/2 47/2/2 48/2/2
f 48/2/2 47/2/2 49/2/2
f 49/2/2 47/2/2 50/2/2
f 48/6/2 49/6/2 51/6/2
f 49/3/2 50/3/2 51/3/2
f 51/3/2 50/3/2 52/3/2
f 48/6/2 51/6/2 53/6/2
f 51/6/2 52/6/2 53/6/2
f 53/6/2 52/6/2 54/6/2
f 54/6/2 52/6/2 55/6/2
f 55/6/2 52/6/2 56/6/2
f 57/6/2 58/6/2 61/6/2
f 61/6/2 58/6/2 62/6/2
f 59/6/2 60/6/2 63/6/2
f 63/6/2 60/6/2 64/6/2
f 65/6/2 66/6/2 69/6/2
f 66/3/2 67/3/2 70/3/2
f 69/6/2 66/6/2 70/6/2
f 67/6/2 68/6/2 71/6/2
f 70/3/2 67/3/2 71/3/2
f 71/6/2 68/6/2 72/6/2
f 70/6/2 71/6/2 73/6/2
f 73/6/2 71/6/2 74/6/2
f 81/6/3 76/6/3 75/6/3
f 82/6/3 76/6/3 81/6/3
f 84/3/3 80/3/3 79/3/3
f 84/6/3 81/6/3 80/6/3
f 85/3/3 82/3/3 81/3/3
f 85/6/3 81/6/3 84/6/3
f 86/6/3 83/6/3 82/6/3
f 86/3/3 82/3/3 85/3/3
f 87/6/3 83/6/3 86/6/3
f 88/6/3 78/6/3 77/6/3
f 88/2/3 79/2/3 78/2/3
f 89/3/3 85/3/3 84/3/3
f 89/2/3 79/2/3 88/2/3
f 89/3/3 84/3/3 79/3/3
f 90/3/3 85/3/3 89/3/3
f 91/1/3 86/1/3 85/1/3
f 91/3/3 85/3/3 90/3/3
f 92/3/3 87/3/3 86/3/3
f 92/1/3 86/1/3 91/1/3
f 93/3/3 87/3/3 92/3/3
f 94/6/3 88/6/3 77/6/3
f 94/4/3 89/4/3 88/4/3
f 95/3/3 90/3/3 89/3/3
f 95/4/3 89/4/3 94/4/3
f 96/1/3 91/1/3 90/1/3
f 96/3/3 90/3/3 95/3/3
f 96/1/3 93/1/3 92/1/3
f 96/1/3 92/1/3 91/1/3
f 97/1/3 93/1/3 96/1/3
f 98/1/3 93/1/3 97/1/3
f 99/1/3 93/1/3 98/1/3
f 100/2/3 95/2/3 94/2/3
f 100/3/3 96/3/3 95/3/3
f 100/3/3 97/3/3 96/3/3
f 101/1/3 98/1/3 97/1/3
f 101/3/3 97/3/3 100/3/3
f 102/3/3 99/3/3 98/3/3
f 102/1/3 98/1/3 101/1/3
f 103/3/3 99/3/3 102/3/3
f 104/6/3 94/6/3 77/6/3
f 105/2/3 100/2/3 94/2/3
f 105/6/3 94/6/3 104/6/3
f 106/6/3 101/6/3 100/6/3
f 106/2/3 100/2/3 105/2/3
f 107/3/3 102/3/3 101/3/3
f 107/6/3 101/6/3 106/6/3
f 108/6/3 103/6/3 102/6/3
f 108/3/3 102/3/3 107/3/3
f 109/6/3 103/6/3 108/6/3
f 110/6/3 108/6/3 107/6/3
f 111/6/3 108/6/3 110/6/3
f 114/6/3 113/6/3 112/6/3
f 115/6/3 113/6/3 114/6/3
f 118/3/3 117/3/3 116/3/3
f 119/3/3 117/3/3 118/3/3
f 122/6/3 121/6/3 120/6/3
f 123/6/3 121/6/3 122/6/3
f 124/6/4 125/6/4 126/6/4
f 126/6/4 125/6/4 127/6/4
f 128/3/4 129/3/4 130/3/4
f 130/3/4 129/3/4 131/3/4
f 132/6/4 133/6/4 134/6/4
f 134/6/4 133/6/4 135/6/4
f 136/6/4 137/6/4 142/6/4
f 142/6/4 137/6/4 143/6/4
f 141/3/4 142/3/4 145/3/4
f 143/6/4 144/6/4 145/6/4
f 142/6/4 143/6/4 145/6/4
f 145/6/4 144/6/4 146/6/4
f 140/6/4 141/6/4 147/6/4
f 141/3/4 145/3/4 147/3/4
f 145/3/4 146/3/4 147/3/4
f 147/3/4 146/3/4 148/3/4
f 148/3/4 146/3/4 149/3/4
f 146/6/4 144/6/4 150/6/4
f 149/3/4 146/3/4 150/3/4
f 148/3/4 149/3/4 151/3/4
f 147/6/4 148/6/4 151/6/4
f 149/6/4 150/6/4 152/6/4
f 151/3/4 149/3/4 152/3/4
f 138/6/4 139/6/4 153/6/4
f 139/2/4 140/2/4 154/2/4
f 153/6/4 139/6/4 154/6/4
f 140/6/4 147/6/4 155/6/4
f 154/2/4 140/2/4 155/2/4
f 147/6/4 151/6/4 155/6/4
f 151/6/4 152/6/4 155/6/4
f 155/6/4 152/6/4 156/6/4
f 153/3/4 154/3/4 157/3/4
f 154/2/4 155/2/4 158/2/4
f 157/3/4 154/3/4 158/3/4
f 155/3/4 156/3/4 159/3/4
f 158/2/4 155/2/4 159/2/4
f 156/6/4 152/6/4 160/6/4
f 159/3/4 156/3/4 160/3/4
f 160/6/4 152/6/4 161/6/4
f 150/6/4 144/6/4 162/6/4
f 161/6/4 152/6/4 162/6/4
f 152/6/4 150/6/4 162/6/4
f 162/6/4 144/6/4 163/6/4
f 161/6/4 162/6/4 164/6/4
f 164/6/4 162/6/4 165/6/4
f 168/6/5 167/6/5 166/6/5
f 169/6/5 167/6/5 168/6/5
f 170/6/5 168/6/5 166/6/5
f 171/3/5 169/3/5 168/3/5
f 171/6/5 168/6/5 170/6/5
f 172/3/5 169/3/5 171/3/5
f 177/6/5 174/6/5 173/6/5
f 178/6/5 174/6/5 177/6/5
f 179/6/5 176/6/5 175/6/5
f 180/6/5 176/6/5 179/6/5
f 181/3/5 178/3/5 177/3/5
f 182/3/5 178/3/5 181/3/5
f 183/3/5 180/3/5 179/3/5
f 184/3/5 180/3/5 183/3/5
f 185/6/5 182/6/5 181/6/5
f 186/6/5 182/6/5 185/6/5
f 187/6/5 184/6/5 183/6/5
f 188/6/5 184/6/5 187/6/5
f 189/6/6 190/6/6 193/6/6
f 193/6/6 190/6/6 194/6/6
f 191/6/6 192/6/6 195/6/6
f 195/6/6 192/6/6 196/6/6
f 197/6/6 198/6/6 201/6/6
f 201/6/6 198/6/6 202/6/6
f 199/6/6 200/6/6 203/6/6
f 203/6/6 200/6/6 204/6/6
f 205/6/6 206/6/6 212/6/6
f 206/3/6 207/3/6 213/3/6
f 207/1/6 208/1/6 213/1/6
f 208/3/6 209/3/6 214/3/6
f 213/1/6 208/1/6 214/1/6
f 209/6/6 210/6/6 215/6/6
f 211/6/6 212/6/6 217/6/6
f 212/6/6 206/6/6 218/6/6
f 217/6/6 212/6/6 218/6/6
f 206/3/6 213/3/6 219/3/6
f 218/6/6 206/6/6 219/6/6
f 219/3/6 213/3/6 220/3/6
f 214/3/6 209/3/6 221/3/6
f 215/6/6 216/6/6 222/6/6
f 209/6/6 215/6/6 222/6/6
f 221/3/6 209/3/6 222/3/6
f 222/6/6 216/6/6 223/6/6
f 223/6/6 216/6/6 224/6/6
f 219/6/6 220/6/6 225/6/6
f 220/6/6 221/6/6 225/6/6
f 222/6/6 223/6/6 225/6/6
f 221/6/6 222/6/6 225/6/6
f 218/6/6 219/6/6 225/6/6
f 225/6/6 223/6/6 226/6/6
f 227/3/6 228/3/6 229/3/6
f 229/3/6 228/3/6 230/3/6
