# MagicaVoxel @ Ephtracy

# group
o 

# material
mtllib Wheel.mtl
usemtl palette

# normals
vn -1 0 0
vn 1 0 0
vn 0 0 1
vn 0 0 -1
vn 0 -1 0
vn 0 1 0

# texcoords
vt 0.533203 0.5
vt 0.537109 0.5
vt 0.986328 0.5

# verts
v -0.1 0 0.2
v -0.1 0 -0.3
v -0.1 0.1 0.3
v -0.1 0.1 0.2
v -0.1 0.1 0
v -0.1 0.1 -0.1
v -0.1 0.1 -0.3
v -0.1 0.1 -0.4
v -0.1 0.2 0.4
v -0.1 0.2 0.3
v -0.1 0.2 0.2
v -0.1 0.2 0.1
v -0.1 0.2 -0.2
v -0.1 0.2 -0.3
v -0.1 0.2 -0.4
v -0.1 0.2 -0.5
v -0.1 0.3 0.2
v -0.1 0.3 0.1
v -0.1 0.3 0
v -0.1 0.3 -0.1
v -0.1 0.3 -0.2
v -0.1 0.3 -0.3
v -0.1 0.4 0.3
v -0.1 0.4 0.1
v -0.1 0.4 0
v -0.1 0.4 -0.1
v -0.1 0.4 -0.2
v -0.1 0.4 -0.4
v -0.1 0.5 0.3
v -0.1 0.5 0.1
v -0.1 0.5 0
v -0.1 0.5 -0.1
v -0.1 0.5 -0.2
v -0.1 0.5 -0.4
v -0.1 0.6 0.2
v -0.1 0.6 0.1
v -0.1 0.6 0
v -0.1 0.6 -0.1
v -0.1 0.6 -0.2
v -0.1 0.6 -0.3
v -0.1 0.7 0.4
v -0.1 0.7 0.3
v -0.1 0.7 0.2
v -0.1 0.7 0.1
v -0.1 0.7 -0.2
v -0.1 0.7 -0.3
v -0.1 0.7 -0.4
v -0.1 0.7 -0.5
v -0.1 0.8 0.3
v -0.1 0.8 0.2
v -0.1 0.8 0
v -0.1 0.8 -0.1
v -0.1 0.8 -0.3
v -0.1 0.8 -0.4
v -0.1 0.9 0.2
v -0.1 0.9 -0.3
v 0 0 0.2
v 0 0 -0.3
v 0 0.1 0.3
v 0 0.1 0.2
v 0 0.1 0
v 0 0.1 -0.1
v 0 0.1 -0.3
v 0 0.1 -0.4
v 0 0.2 0.4
v 0 0.2 0.3
v 0 0.2 0.2
v 0 0.2 0.1
v 0 0.2 -0.2
v 0 0.2 -0.3
v 0 0.2 -0.4
v 0 0.2 -0.5
v 0 0.3 0.2
v 0 0.3 0.1
v 0 0.3 0
v 0 0.3 -0.1
v 0 0.3 -0.2
v 0 0.3 -0.3
v 0 0.4 0.3
v 0 0.4 0.1
v 0 0.4 0
v 0 0.4 -0.1
v 0 0.4 -0.2
v 0 0.4 -0.4
v 0 0.5 0.3
v 0 0.5 0.1
v 0 0.5 0
v 0 0.5 -0.1
v 0 0.5 -0.2
v 0 0.5 -0.4
v 0 0.6 0.2
v 0 0.6 0.1
v 0 0.6 0
v 0 0.6 -0.1
v 0 0.6 -0.2
v 0 0.6 -0.3
v 0 0.7 0.4
v 0 0.7 0.3
v 0 0.7 0.2
v 0 0.7 0.1
v 0 0.7 -0.2
v 0 0.7 -0.3
v 0 0.7 -0.4
v 0 0.7 -0.5
v 0 0.8 0.3
v 0 0.8 0.2
v 0 0.8 0
v 0 0.8 -0.1
v 0 0.8 -0.3
v 0 0.8 -0.4
v 0 0.9 0.2
v 0 0.9 -0.3
v -0.1 0.2 0.4
v -0.1 0.7 0.4
v 0 0.2 0.4
v 0 0.7 0.4
v -0.1 0.1 0.3
v -0.1 0.2 0.3
v -0.1 0.7 0.3
v -0.1 0.8 0.3
v 0 0.1 0.3
v 0 0.2 0.3
v 0 0.7 0.3
v 0 0.8 0.3
v -0.1 0 0.2
v -0.1 0.1 0.2
v -0.1 0.2 0.2
v -0.1 0.3 0.2
v -0.1 0.6 0.2
v -0.1 0.7 0.2
v -0.1 0.8 0.2
v -0.1 0.9 0.2
v 0 0 0.2
v 0 0.1 0.2
v 0 0.2 0.2
v 0 0.3 0.2
v 0 0.6 0.2
v 0 0.7 0.2
v 0 0.8 0.2
v 0 0.9 0.2
v -0.1 0.3 0.1
v -0.1 0.4 0.1
v -0.1 0.5 0.1
v -0.1 0.6 0.1
v 0 0.3 0.1
v 0 0.4 0.1
v 0 0.5 0.1
v 0 0.6 0.1
v -0.1 0.1 0
v -0.1 0.3 0
v -0.1 0.6 0
v -0.1 0.8 0
v 0 0.1 0
v 0 0.3 0
v 0 0.6 0
v 0 0.8 0
v -0.1 0.4 -0.1
v -0.1 0.5 -0.1
v 0 0.4 -0.1
v 0 0.5 -0.1
v -0.1 0.2 -0.2
v -0.1 0.3 -0.2
v -0.1 0.6 -0.2
v -0.1 0.7 -0.2
v 0 0.2 -0.2
v 0 0.3 -0.2
v 0 0.6 -0.2
v 0 0.7 -0.2
v -0.1 0.1 -0.3
v -0.1 0.2 -0.3
v -0.1 0.7 -0.3
v -0.1 0.8 -0.3
v 0 0.1 -0.3
v 0 0.2 -0.3
v 0 0.7 -0.3
v 0 0.8 -0.3
v -0.1 0.2 -0.4
v -0.1 0.4 -0.4
v -0.1 0.5 -0.4
v -0.1 0.7 -0.4
v 0 0.2 -0.4
v 0 0.4 -0.4
v 0 0.5 -0.4
v 0 0.7 -0.4
v -0.1 0.2 0.3
v -0.1 0.4 0.3
v -0.1 0.5 0.3
v -0.1 0.7 0.3
v 0 0.2 0.3
v 0 0.4 0.3
v 0 0.5 0.3
v 0 0.7 0.3
v -0.1 0.1 0.2
v -0.1 0.2 0.2
v -0.1 0.7 0.2
v -0.1 0.8 0.2
v 0 0.1 0.2
v 0 0.2 0.2
v 0 0.7 0.2
v 0 0.8 0.2
v -0.1 0.2 0.1
v -0.1 0.3 0.1
v -0.1 0.6 0.1
v -0.1 0.7 0.1
v 0 0.2 0.1
v 0 0.3 0.1
v 0 0.6 0.1
v 0 0.7 0.1
v -0.1 0.4 0
v -0.1 0.5 0
v 0 0.4 0
v 0 0.5 0
v -0.1 0.1 -0.1
v -0.1 0.3 -0.1
v -0.1 0.6 -0.1
v -0.1 0.8 -0.1
v 0 0.1 -0.1
v 0 0.3 -0.1
v 0 0.6 -0.1
v 0 0.8 -0.1
v -0.1 0.3 -0.2
v -0.1 0.4 -0.2
v -0.1 0.5 -0.2
v -0.1 0.6 -0.2
v 0 0.3 -0.2
v 0 0.4 -0.2
v 0 0.5 -0.2
v 0 0.6 -0.2
v -0.1 0 -0.3
v -0.1 0.1 -0.3
v -0.1 0.2 -0.3
v -0.1 0.3 -0.3
v -0.1 0.6 -0.3
v -0.1 0.7 -0.3
v -0.1 0.8 -0.3
v -0.1 0.9 -0.3
v 0 0 -0.3
v 0 0.1 -0.3
v 0 0.2 -0.3
v 0 0.3 -0.3
v 0 0.6 -0.3
v 0 0.7 -0.3
v 0 0.8 -0.3
v 0 0.9 -0.3
v -0.1 0.1 -0.4
v -0.1 0.2 -0.4
v -0.1 0.7 -0.4
v -0.1 0.8 -0.4
v 0 0.1 -0.4
v 0 0.2 -0.4
v 0 0.7 -0.4
v 0 0.8 -0.4
v -0.1 0.2 -0.5
v -0.1 0.7 -0.5
v 0 0.2 -0.5
v 0 0.7 -0.5
v -0.1 0 0.2
v 0 0 0.2
v -0.1 0 -0.3
v 0 0 -0.3
v -0.1 0.1 0.3
v 0 0.1 0.3
v -0.1 0.1 0.2
v 0 0.1 0.2
v -0.1 0.1 -0.3
v 0 0.1 -0.3
v -0.1 0.1 -0.4
v 0 0.1 -0.4
v -0.1 0.2 0.4
v 0 0.2 0.4
v -0.1 0.2 0.3
v 0 0.2 0.3
v -0.1 0.2 0.2
v 0 0.2 0.2
v -0.1 0.2 0.1
v 0 0.2 0.1
v -0.1 0.2 -0.2
v 0 0.2 -0.2
v -0.1 0.2 -0.3
v 0 0.2 -0.3
v -0.1 0.2 -0.4
v 0 0.2 -0.4
v -0.1 0.2 -0.5
v 0 0.2 -0.5
v -0.1 0.3 0.1
v 0 0.3 0.1
v -0.1 0.3 0
v 0 0.3 0
v -0.1 0.3 -0.1
v 0 0.3 -0.1
v -0.1 0.3 -0.2
v 0 0.3 -0.2
v -0.1 0.4 0.3
v 0 0.4 0.3
v -0.1 0.4 0.1
v 0 0.4 0.1
v -0.1 0.4 -0.2
v 0 0.4 -0.2
v -0.1 0.4 -0.4
v 0 0.4 -0.4
v -0.1 0.5 0
v 0 0.5 0
v -0.1 0.5 -0.1
v 0 0.5 -0.1
v -0.1 0.6 0.2
v 0 0.6 0.2
v -0.1 0.6 0.1
v 0 0.6 0.1
v -0.1 0.6 -0.2
v 0 0.6 -0.2
v -0.1 0.6 -0.3
v 0 0.6 -0.3
v -0.1 0.7 0.3
v 0 0.7 0.3
v -0.1 0.7 0.2
v 0 0.7 0.2
v -0.1 0.7 -0.3
v 0 0.7 -0.3
v -0.1 0.7 -0.4
v 0 0.7 -0.4
v -0.1 0.8 0.2
v 0 0.8 0.2
v -0.1 0.8 0
v 0 0.8 0
v -0.1 0.8 -0.1
v 0 0.8 -0.1
v -0.1 0.8 -0.3
v 0 0.8 -0.3
v -0.1 0.1 0.2
v 0 0.1 0.2
v -0.1 0.1 0
v 0 0.1 0
v -0.1 0.1 -0.1
v 0 0.1 -0.1
v -0.1 0.1 -0.3
v 0 0.1 -0.3
v -0.1 0.2 0.3
v 0 0.2 0.3
v -0.1 0.2 0.2
v 0 0.2 0.2
v -0.1 0.2 -0.3
v 0 0.2 -0.3
v -0.1 0.2 -0.4
v 0 0.2 -0.4
v -0.1 0.3 0.2
v 0 0.3 0.2
v -0.1 0.3 0.1
v 0 0.3 0.1
v -0.1 0.3 -0.2
v 0 0.3 -0.2
v -0.1 0.3 -0.3
v 0 0.3 -0.3
v -0.1 0.4 0
v 0 0.4 0
v -0.1 0.4 -0.1
v 0 0.4 -0.1
v -0.1 0.5 0.3
v 0 0.5 0.3
v -0.1 0.5 0.1
v 0 0.5 0.1
v -0.1 0.5 -0.2
v 0 0.5 -0.2
v -0.1 0.5 -0.4
v 0 0.5 -0.4
v -0.1 0.6 0.1
v 0 0.6 0.1
v -0.1 0.6 0
v 0 0.6 0
v -0.1 0.6 -0.1
v 0 0.6 -0.1
v -0.1 0.6 -0.2
v 0 0.6 -0.2
v -0.1 0.7 0.4
v 0 0.7 0.4
v -0.1 0.7 0.3
v 0 0.7 0.3
v -0.1 0.7 0.2
v 0 0.7 0.2
v -0.1 0.7 0.1
v 0 0.7 0.1
v -0.1 0.7 -0.2
v 0 0.7 -0.2
v -0.1 0.7 -0.3
v 0 0.7 -0.3
v -0.1 0.7 -0.4
v 0 0.7 -0.4
v -0.1 0.7 -0.5
v 0 0.7 -0.5
v -0.1 0.8 0.3
v 0 0.8 0.3
v -0.1 0.8 0.2
v 0 0.8 0.2
v -0.1 0.8 -0.3
v 0 0.8 -0.3
v -0.1 0.8 -0.4
v 0 0.8 -0.4
v -0.1 0.9 0.2
v 0 0.9 0.2
v -0.1 0.9 -0.3
v 0 0.9 -0.3

# faces
f 4/3/1 2/3/1 1/3/1
f 5/3/1 2/3/1 4/3/1
f 6/3/1 2/3/1 5/3/1
f 7/3/1 2/3/1 6/3/1
f 10/3/1 4/3/1 3/3/1
f 11/3/1 4/3/1 10/3/1
f 14/3/1 8/3/1 7/3/1
f 15/3/1 8/3/1 14/3/1
f 17/1/1 12/1/1 11/1/1
f 18/1/1 12/1/1 17/1/1
f 19/2/1 6/2/1 5/2/1
f 20/2/1 6/2/1 19/2/1
f 21/1/1 14/1/1 13/1/1
f 22/1/1 14/1/1 21/1/1
f 23/3/1 10/3/1 9/3/1
f 24/1/1 19/1/1 18/1/1
f 25/2/1 20/2/1 19/2/1
f 25/1/1 19/1/1 24/1/1
f 26/1/1 21/1/1 20/1/1
f 26/2/1 20/2/1 25/2/1
f 27/1/1 21/1/1 26/1/1
f 28/3/1 16/3/1 15/3/1
f 29/2/1 25/2/1 24/2/1
f 29/2/1 24/2/1 23/2/1
f 29/3/1 23/3/1 9/3/1
f 30/2/1 25/2/1 29/2/1
f 31/2/1 25/2/1 30/2/1
f 32/2/1 27/2/1 26/2/1
f 32/2/1 28/2/1 27/2/1
f 33/2/1 28/2/1 32/2/1
f 34/3/1 16/3/1 28/3/1
f 34/2/1 28/2/1 33/2/1
f 36/1/1 31/1/1 30/1/1
f 37/2/1 32/2/1 31/2/1
f 37/1/1 31/1/1 36/1/1
f 38/1/1 33/1/1 32/1/1
f 38/2/1 32/2/1 37/2/1
f 39/1/1 33/1/1 38/1/1
f 41/3/1 29/3/1 9/3/1
f 42/3/1 29/3/1 41/3/1
f 43/1/1 36/1/1 35/1/1
f 44/1/1 36/1/1 43/1/1
f 45/1/1 40/1/1 39/1/1
f 46/1/1 40/1/1 45/1/1
f 47/3/1 16/3/1 34/3/1
f 48/3/1 16/3/1 47/3/1
f 49/3/1 43/3/1 42/3/1
f 50/3/1 43/3/1 49/3/1
f 51/2/1 38/2/1 37/2/1
f 52/2/1 38/2/1 51/2/1
f 53/3/1 47/3/1 46/3/1
f 54/3/1 47/3/1 53/3/1
f 55/3/1 52/3/1 51/3/1
f 55/3/1 53/3/1 52/3/1
f 55/3/1 51/3/1 50/3/1
f 56/3/1 53/3/1 55/3/1
f 57/3/2 58/3/2 60/3/2
f 60/3/2 58/3/2 61/3/2
f 61/3/2 58/3/2 62/3/2
f 62/3/2 58/3/2 63/3/2
f 59/3/2 60/3/2 66/3/2
f 66/3/2 60/3/2 67/3/2
f 63/3/2 64/3/2 70/3/2
f 70/3/2 64/3/2 71/3/2
f 67/1/2 68/1/2 73/1/2
f 73/1/2 68/1/2 74/1/2
f 61/2/2 62/2/2 75/2/2
f 75/2/2 62/2/2 76/2/2
f 69/1/2 70/1/2 77/1/2
f 77/1/2 70/1/2 78/1/2
f 65/3/2 66/3/2 79/3/2
f 74/1/2 75/1/2 80/1/2
f 75/2/2 76/2/2 81/2/2
f 80/1/2 75/1/2 81/1/2
f 76/1/2 77/1/2 82/1/2
f 81/2/2 76/2/2 82/2/2
f 82/1/2 77/1/2 83/1/2
f 71/3/2 72/3/2 84/3/2
f 80/2/2 81/2/2 85/2/2
f 79/2/2 80/2/2 85/2/2
f 65/3/2 79/3/2 85/3/2
f 85/2/2 81/2/2 86/2/2
f 86/2/2 81/2/2 87/2/2
f 82/2/2 83/2/2 88/2/2
f 83/2/2 84/2/2 88/2/2
f 88/2/2 84/2/2 89/2/2
f 84/3/2 72/3/2 90/3/2
f 89/2/2 84/2/2 90/2/2
f 86/1/2 87/1/2 92/1/2
f 87/2/2 88/2/2 93/2/2
f 92/1/2 87/1/2 93/1/2
f 88/1/2 89/1/2 94/1/2
f 93/2/2 88/2/2 94/2/2
f 94/1/2 89/1/2 95/1/2
f 65/3/2 85/3/2 97/3/2
f 97/3/2 85/3/2 98/3/2
f 91/1/2 92/1/2 99/1/2
f 99/1/2 92/1/2 100/1/2
f 95/1/2 96/1/2 101/1/2
f 101/1/2 96/1/2 102/1/2
f 90/3/2 72/3/2 103/3/2
f 103/3/2 72/3/2 104/3/2
f 98/3/2 99/3/2 105/3/2
f 105/3/2 99/3/2 106/3/2
f 93/2/2 94/2/2 107/2/2
f 107/2/2 94/2/2 108/2/2
f 102/3/2 103/3/2 109/3/2
f 109/3/2 103/3/2 110/3/2
f 107/3/2 108/3/2 111/3/2
f 108/3/2 109/3/2 111/3/2
f 106/3/2 107/3/2 111/3/2
f 111/3/2 109/3/2 112/3/2
f 115/3/3 114/3/3 113/3/3
f 116/3/3 114/3/3 115/3/3
f 121/3/3 118/3/3 117/3/3
f 122/3/3 118/3/3 121/3/3
f 123/3/3 120/3/3 119/3/3
f 124/3/3 120/3/3 123/3/3
f 133/3/3 126/3/3 125/3/3
f 134/3/3 126/3/3 133/3/3
f 135/1/3 128/1/3 127/1/3
f 136/1/3 128/1/3 135/1/3
f 137/1/3 130/1/3 129/1/3
f 138/1/3 130/1/3 137/1/3
f 139/3/3 132/3/3 131/3/3
f 140/3/3 132/3/3 139/3/3
f 145/1/3 142/1/3 141/1/3
f 146/1/3 142/1/3 145/1/3
f 147/1/3 144/1/3 143/1/3
f 148/1/3 144/1/3 147/1/3
f 153/2/3 150/2/3 149/2/3
f 154/2/3 150/2/3 153/2/3
f 155/2/3 152/2/3 151/2/3
f 156/2/3 152/2/3 155/2/3
f 159/2/3 158/2/3 157/2/3
f 160/2/3 158/2/3 159/2/3
f 165/1/3 162/1/3 161/1/3
f 166/1/3 162/1/3 165/1/3
f 167/1/3 164/1/3 163/1/3
f 168/1/3 164/1/3 167/1/3
f 173/3/3 170/3/3 169/3/3
f 174/3/3 170/3/3 173/3/3
f 175/3/3 172/3/3 171/3/3
f 176/3/3 172/3/3 175/3/3
f 181/3/3 178/3/3 177/3/3
f 182/3/3 178/3/3 181/3/3
f 183/3/3 180/3/3 179/3/3
f 184/3/3 180/3/3 183/3/3
f 185/3/4 186/3/4 189/3/4
f 189/3/4 186/3/4 190/3/4
f 187/3/4 188/3/4 191/3/4
f 191/3/4 188/3/4 192/3/4
f 193/3/4 194/3/4 197/3/4
f 197/3/4 194/3/4 198/3/4
f 195/3/4 196/3/4 199/3/4
f 199/3/4 196/3/4 200/3/4
f 201/1/4 202/1/4 205/1/4
f 205/1/4 202/1/4 206/1/4
f 203/1/4 204/1/4 207/1/4
f 207/1/4 204/1/4 208/1/4
f 209/2/4 210/2/4 211/2/4
f 211/2/4 210/2/4 212/2/4
f 213/2/4 214/2/4 217/2/4
f 217/2/4 214/2/4 218/2/4
f 215/2/4 216/2/4 219/2/4
f 219/2/4 216/2/4 220/2/4
f 221/1/4 222/1/4 225/1/4
f 225/1/4 222/1/4 226/1/4
f 223/1/4 224/1/4 227/1/4
f 227/1/4 224/1/4 228/1/4
f 229/3/4 230/3/4 237/3/4
f 237/3/4 230/3/4 238/3/4
f 231/1/4 232/1/4 239/1/4
f 239/1/4 232/1/4 240/1/4
f 233/1/4 234/1/4 241/1/4
f 241/1/4 234/1/4 242/1/4
f 235/3/4 236/3/4 243/3/4
f 243/3/4 236/3/4 244/3/4
f 245/3/4 246/3/4 249/3/4
f 249/3/4 246/3/4 250/3/4
f 247/3/4 248/3/4 251/3/4
f 251/3/4 248/3/4 252/3/4
f 253/3/4 254/3/4 255/3/4
f 255/3/4 254/3/4 256/3/4
f 259/3/5 258/3/5 257/3/5
f 260/3/5 258/3/5 259/3/5
f 263/3/5 262/3/5 261/3/5
f 264/3/5 262/3/5 263/3/5
f 267/3/5 266/3/5 265/3/5
f 268/3/5 266/3/5 267/3/5
f 271/3/5 270/3/5 269/3/5
f 272/3/5 270/3/5 271/3/5
f 275/1/5 274/1/5 273/1/5
f 276/1/5 274/1/5 275/1/5
f 279/1/5 278/1/5 277/1/5
f 280/1/5 278/1/5 279/1/5
f 283/3/5 282/3/5 281/3/5
f 284/3/5 282/3/5 283/3/5
f 287/1/5 286/1/5 285/1/5
f 288/1/5 286/1/5 287/1/5
f 291/1/5 290/1/5 289/1/5
f 292/1/5 290/1/5 291/1/5
f 295/2/5 294/2/5 293/2/5
f 296/2/5 294/2/5 295/2/5
f 299/2/5 298/2/5 297/2/5
f 300/2/5 298/2/5 299/2/5
f 303/2/5 302/2/5 301/2/5
f 304/2/5 302/2/5 303/2/5
f 307/1/5 306/1/5 305/1/5
f 308/1/5 306/1/5 307/1/5
f 311/1/5 310/1/5 309/1/5
f 312/1/5 310/1/5 311/1/5
f 315/3/5 314/3/5 313/3/5
f 316/3/5 314/3/5 315/3/5
f 319/3/5 318/3/5 317/3/5
f 320/3/5 318/3/5 319/3/5
f 323/3/5 322/3/5 321/3/5
f 324/3/5 322/3/5 323/3/5
f 327/3/5 326/3/5 325/3/5
f 328/3/5 326/3/5 327/3/5
f 329/3/6 330/3/6 331/3/6
f 331/3/6 330/3/6 332/3/6
f 333/3/6 334/3/6 335/3/6
f 335/3/6 334/3/6 336/3/6
f 337/3/6 338/3/6 339/3/6
f 339/3/6 338/3/6 340/3/6
f 341/3/6 342/3/6 343/3/6
f 343/3/6 342/3/6 344/3/6
f 345/1/6 346/1/6 347/1/6
f 347/1/6 346/1/6 348/1/6
f 349/1/6 350/1/6 351/1/6
f 351/1/6 350/1/6 352/1/6
f 353/2/6 354/2/6 355/2/6
f 355/2/6 354/2/6 356/2/6
f 357/2/6 358/2/6 359/2/6
f 359/2/6 358/2/6 360/2/6
f 361/2/6 362/2/6 363/2/6
f 363/2/6 362/2/6 364/2/6
f 365/1/6 366/1/6 367/1/6
f 367/1/6 366/1/6 368/1/6
f 369/1/6 370/1/6 371/1/6
f 371/1/6 370/1/6 372/1/6
f 373/3/6 374/3/6 375/3/6
f 375/3/6 374/3/6 376/3/6
f 377/1/6 378/1/6 379/1/6
f 379/1/6 378/1/6 380/1/6
f 381/1/6 382/1/6 383/1/6
f 383/1/6 382/1/6 384/1/6
f 385/3/6 386/3/6 387/3/6
f 387/3/6 386/3/6 388/3/6
f 389/3/6 390/3/6 391/3/6
f 391/3/6 390/3/6 392/3/6
f 393/3/6 394/3/6 395/3/6
f 395/3/6 394/3/6 396/3/6
f 397/3/6 398/3/6 399/3/6
f 399/3/6 398/3/6 400/3/6
