# MagicaVoxel @ Ephtracy

# group
o 

# material
mtllib Rusted Sword.mtl
usemtl palette

# normals
vn -1 0 0
vn 1 0 0
vn 0 0 1
vn 0 0 -1
vn 0 -1 0
vn 0 1 0

# texcoords
vt 0.0253906 0.5
vt 0.0292969 0.5
vt 0.232422 0.5
vt 0.537109 0.5
vt 0.974609 0.5
vt 0.978516 0.5

# verts
v -0.2 0.2 0.1
v -0.2 0.2 0
v -0.2 0.3 0.1
v -0.2 0.3 0
v -0.2 0.7 0.3
v -0.2 0.7 -0.2
v -0.2 0.8 0.3
v -0.2 0.8 -0.2
v -0.1 0.1 0.1
v -0.1 0.1 0
v -0.1 0.2 0.2
v -0.1 0.2 0.1
v -0.1 0.2 0
v -0.1 0.2 -0.1
v -0.1 0.3 0.2
v -0.1 0.3 0.1
v -0.1 0.3 0
v -0.1 0.3 -0.1
v -0.1 0.7 0.4
v -0.1 0.7 0.3
v -0.1 0.7 0.1
v -0.1 0.7 0
v -0.1 0.7 -0.2
v -0.1 0.7 -0.3
v -0.1 0.8 0.4
v -0.1 0.8 0.3
v -0.1 0.8 0.2
v -0.1 0.8 0.1
v -0.1 0.8 0
v -0.1 0.8 -0.1
v -0.1 0.8 -0.2
v -0.1 0.8 -0.3
v -0.1 1 0.2
v -0.1 1 0.1
v -0.1 1 0
v -0.1 1 -0.1
v -0.1 1.1 0.2
v -0.1 1.1 0.1
v -0.1 1.2 0.1
v -0.1 1.2 0
v -0.1 1.3 0.1
v -0.1 1.3 0
v -0.1 1.4 0
v -0.1 1.4 -0.1
v -0.1 1.5 0.1
v -0.1 1.5 0
v -0.1 1.5 -0.1
v -0.1 1.6 0.2
v -0.1 1.6 0.1
v -0.1 1.7 0
v -0.1 1.7 -0.1
v -0.1 1.8 0.1
v -0.1 1.8 0
v -0.1 1.8 -0.1
v -0.1 1.9 0.2
v -0.1 1.9 0.1
v -0.1 1.9 0
v -0.1 1.9 -0.1
v -0.1 2 0.1
v -0.1 2 0
v -0.1 2.1 0.2
v -0.1 2.1 0.1
v -0.1 2.1 0
v -0.1 2.2 0.2
v -0.1 2.2 0.1
v -0.1 2.2 0
v -0.1 2.2 -0.1
v -0.1 2.3 0.1
v -0.1 2.3 0
v -0.1 2.4 0.1
v -0.1 2.4 0
v 0 0.1 0.1
v 0 0.1 0
v 0 0.2 0.2
v 0 0.2 0.1
v 0 0.2 0
v 0 0.2 -0.1
v 0 0.3 0.2
v 0 0.3 0.1
v 0 0.3 0
v 0 0.3 -0.1
v 0 0.7 0.4
v 0 0.7 0.3
v 0 0.7 0.1
v 0 0.7 0
v 0 0.7 -0.2
v 0 0.7 -0.3
v 0 0.8 0.4
v 0 0.8 0.3
v 0 0.8 0.2
v 0 0.8 0.1
v 0 0.8 0
v 0 0.8 -0.1
v 0 0.8 -0.2
v 0 0.8 -0.3
v 0 1 0.2
v 0 1 0.1
v 0 1 0
v 0 1 -0.1
v 0 1.1 0.2
v 0 1.1 0.1
v 0 1.2 0.1
v 0 1.2 0
v 0 1.3 0.1
v 0 1.3 0
v 0 1.4 0
v 0 1.4 -0.1
v 0 1.5 0.1
v 0 1.5 0
v 0 1.5 -0.1
v 0 1.6 0.2
v 0 1.6 0.1
v 0 1.7 0
v 0 1.7 -0.1
v 0 1.8 0.1
v 0 1.8 0
v 0 1.8 -0.1
v 0 1.9 0.2
v 0 1.9 0.1
v 0 1.9 0
v 0 1.9 -0.1
v 0 2 0.1
v 0 2 0
v 0 2.1 0.2
v 0 2.1 0.1
v 0 2.1 0
v 0 2.2 0.2
v 0 2.2 0.1
v 0 2.2 0
v 0 2.2 -0.1
v 0 2.3 0.1
v 0 2.3 0
v 0 2.4 0.1
v 0 2.4 0
v 0.1 0.2 0.1
v 0.1 0.2 0
v 0.1 0.3 0.1
v 0.1 0.3 0
v 0.1 0.7 0.3
v 0.1 0.7 -0.2
v 0.1 0.8 0.3
v 0.1 0.8 -0.2
v -0.1 0.7 0.4
v -0.1 0.8 0.4
v 0 0.7 0.4
v 0 0.8 0.4
v -0.2 0.7 0.3
v -0.2 0.8 0.3
v -0.1 0.7 0.3
v -0.1 0.8 0.3
v 0 0.7 0.3
v 0 0.8 0.3
v 0.1 0.7 0.3
v 0.1 0.8 0.3
v -0.1 0.2 0.2
v -0.1 0.3 0.2
v -0.1 0.8 0.2
v -0.1 1 0.2
v -0.1 1.1 0.2
v -0.1 1.6 0.2
v -0.1 1.9 0.2
v -0.1 2.1 0.2
v -0.1 2.2 0.2
v 0 0.2 0.2
v 0 0.3 0.2
v 0 0.8 0.2
v 0 1 0.2
v 0 1.1 0.2
v 0 1.6 0.2
v 0 1.9 0.2
v 0 2.1 0.2
v 0 2.2 0.2
v -0.2 0.2 0.1
v -0.2 0.3 0.1
v -0.1 0.1 0.1
v -0.1 0.2 0.1
v -0.1 0.3 0.1
v -0.1 0.7 0.1
v -0.1 2.2 0.1
v -0.1 2.3 0.1
v -0.1 2.4 0.1
v 0 0.1 0.1
v 0 0.2 0.1
v 0 0.3 0.1
v 0 0.7 0.1
v 0 2.2 0.1
v 0 2.3 0.1
v 0 2.4 0.1
v 0.1 0.2 0.1
v 0.1 0.3 0.1
v -0.2 0.2 0
v -0.2 0.3 0
v -0.1 0.1 0
v -0.1 0.2 0
v -0.1 0.3 0
v -0.1 0.7 0
v -0.1 2.2 0
v -0.1 2.3 0
v -0.1 2.4 0
v 0 0.1 0
v 0 0.2 0
v 0 0.3 0
v 0 0.7 0
v 0 2.2 0
v 0 2.3 0
v 0 2.4 0
v 0.1 0.2 0
v 0.1 0.3 0
v -0.1 0.2 -0.1
v -0.1 0.3 -0.1
v -0.1 0.8 -0.1
v -0.1 1 -0.1
v -0.1 1.4 -0.1
v -0.1 1.5 -0.1
v -0.1 1.7 -0.1
v -0.1 1.8 -0.1
v -0.1 1.9 -0.1
v -0.1 2.2 -0.1
v 0 0.2 -0.1
v 0 0.3 -0.1
v 0 0.8 -0.1
v 0 1 -0.1
v 0 1.4 -0.1
v 0 1.5 -0.1
v 0 1.7 -0.1
v 0 1.8 -0.1
v 0 1.9 -0.1
v 0 2.2 -0.1
v -0.2 0.7 -0.2
v -0.2 0.8 -0.2
v -0.1 0.7 -0.2
v -0.1 0.8 -0.2
v 0 0.7 -0.2
v 0 0.8 -0.2
v 0.1 0.7 -0.2
v 0.1 0.8 -0.2
v -0.1 0.7 -0.3
v -0.1 0.8 -0.3
v 0 0.7 -0.3
v 0 0.8 -0.3
v -0.1 0.1 0.1
v 0 0.1 0.1
v -0.1 0.1 0
v 0 0.1 0
v -0.1 0.2 0.2
v 0 0.2 0.2
v -0.2 0.2 0.1
v -0.1 0.2 0.1
v 0 0.2 0.1
v 0.1 0.2 0.1
v -0.2 0.2 0
v -0.1 0.2 0
v 0 0.2 0
v 0.1 0.2 0
v -0.1 0.2 -0.1
v 0 0.2 -0.1
v -0.1 0.7 0.4
v 0 0.7 0.4
v -0.2 0.7 0.3
v -0.1 0.7 0.3
v 0 0.7 0.3
v 0.1 0.7 0.3
v -0.1 0.7 0.1
v 0 0.7 0.1
v -0.1 0.7 0
v 0 0.7 0
v -0.2 0.7 -0.2
v -0.1 0.7 -0.2
v 0 0.7 -0.2
v 0.1 0.7 -0.2
v -0.1 0.7 -0.3
v 0 0.7 -0.3
v -0.1 0.3 0.2
v 0 0.3 0.2
v -0.2 0.3 0.1
v -0.1 0.3 0.1
v 0 0.3 0.1
v 0.1 0.3 0.1
v -0.2 0.3 0
v -0.1 0.3 0
v 0 0.3 0
v 0.1 0.3 0
v -0.1 0.3 -0.1
v 0 0.3 -0.1
v -0.1 0.8 0.4
v 0 0.8 0.4
v -0.2 0.8 0.3
v -0.1 0.8 0.3
v 0 0.8 0.3
v 0.1 0.8 0.3
v -0.1 0.8 0.2
v 0 0.8 0.2
v -0.1 0.8 0.1
v 0 0.8 0.1
v -0.1 0.8 0
v 0 0.8 0
v -0.1 0.8 -0.1
v 0 0.8 -0.1
v -0.2 0.8 -0.2
v -0.1 0.8 -0.2
v 0 0.8 -0.2
v 0.1 0.8 -0.2
v -0.1 0.8 -0.3
v 0 0.8 -0.3
v -0.1 2.2 0.2
v 0 2.2 0.2
v -0.1 2.2 0.1
v 0 2.2 0.1
v -0.1 2.2 0
v 0 2.2 0
v -0.1 2.2 -0.1
v 0 2.2 -0.1
v -0.1 2.4 0.1
v 0 2.4 0.1
v -0.1 2.4 0
v 0 2.4 0

# faces
f 3/3/1 2/3/1 1/3/1
f 4/3/1 2/3/1 3/3/1
f 7/3/1 6/3/1 5/3/1
f 8/3/1 6/3/1 7/3/1
f 12/3/1 10/3/1 9/3/1
f 13/3/1 10/3/1 12/3/1
f 15/3/1 12/3/1 11/3/1
f 16/3/1 12/3/1 15/3/1
f 17/3/1 14/3/1 13/3/1
f 18/3/1 14/3/1 17/3/1
f 21/4/1 17/4/1 16/4/1
f 22/4/1 17/4/1 21/4/1
f 25/3/1 20/3/1 19/3/1
f 26/3/1 20/3/1 25/3/1
f 31/3/1 24/3/1 23/3/1
f 32/3/1 24/3/1 31/3/1
f 33/5/1 28/5/1 27/5/1
f 34/1/1 29/1/1 28/1/1
f 34/5/1 28/5/1 33/5/1
f 35/2/1 30/2/1 29/2/1
f 35/1/1 29/1/1 34/1/1
f 36/2/1 30/2/1 35/2/1
f 37/2/1 34/2/1 33/2/1
f 38/6/1 35/6/1 34/6/1
f 38/2/1 34/2/1 37/2/1
f 39/5/1 38/5/1 37/5/1
f 39/6/1 35/6/1 38/6/1
f 40/5/1 36/5/1 35/5/1
f 40/6/1 35/6/1 39/6/1
f 41/5/1 39/5/1 37/5/1
f 41/1/1 40/1/1 39/1/1
f 42/5/1 36/5/1 40/5/1
f 42/1/1 40/1/1 41/1/1
f 43/6/1 42/6/1 41/6/1
f 43/5/1 36/5/1 42/5/1
f 44/5/1 36/5/1 43/5/1
f 45/5/1 41/5/1 37/5/1
f 45/6/1 43/6/1 41/6/1
f 46/2/1 44/2/1 43/2/1
f 46/6/1 43/6/1 45/6/1
f 47/2/1 44/2/1 46/2/1
f 48/5/1 45/5/1 37/5/1
f 49/1/1 46/1/1 45/1/1
f 49/5/1 45/5/1 48/5/1
f 50/5/1 47/5/1 46/5/1
f 50/1/1 46/1/1 49/1/1
f 51/5/1 47/5/1 50/5/1
f 52/2/1 49/2/1 48/2/1
f 52/1/1 50/1/1 49/1/1
f 53/2/1 51/2/1 50/2/1
f 53/1/1 50/1/1 52/1/1
f 54/2/1 51/2/1 53/2/1
f 55/2/1 52/2/1 48/2/1
f 56/6/1 53/6/1 52/6/1
f 56/2/1 52/2/1 55/2/1
f 57/5/1 54/5/1 53/5/1
f 57/6/1 53/6/1 56/6/1
f 58/5/1 54/5/1 57/5/1
f 59/5/1 56/5/1 55/5/1
f 59/6/1 57/6/1 56/6/1
f 60/2/1 58/2/1 57/2/1
f 60/6/1 57/6/1 59/6/1
f 61/5/1 59/5/1 55/5/1
f 62/1/1 60/1/1 59/1/1
f 62/5/1 59/5/1 61/5/1
f 63/2/1 58/2/1 60/2/1
f 63/1/1 60/1/1 62/1/1
f 64/2/1 62/2/1 61/2/1
f 65/5/1 63/5/1 62/5/1
f 65/2/1 62/2/1 64/2/1
f 66/2/1 58/2/1 63/2/1
f 66/5/1 63/5/1 65/5/1
f 67/2/1 58/2/1 66/2/1
f 68/5/1 66/5/1 65/5/1
f 69/5/1 66/5/1 68/5/1
f 70/2/1 69/2/1 68/2/1
f 71/2/1 69/2/1 70/2/1
f 72/3/2 73/3/2 75/3/2
f 75/3/2 73/3/2 76/3/2
f 74/3/2 75/3/2 78/3/2
f 78/3/2 75/3/2 79/3/2
f 76/3/2 77/3/2 80/3/2
f 80/3/2 77/3/2 81/3/2
f 79/4/2 80/4/2 84/4/2
f 84/4/2 80/4/2 85/4/2
f 82/3/2 83/3/2 88/3/2
f 88/3/2 83/3/2 89/3/2
f 86/3/2 87/3/2 94/3/2
f 94/3/2 87/3/2 95/3/2
f 90/5/2 91/5/2 96/5/2
f 91/1/2 92/1/2 97/1/2
f 96/5/2 91/5/2 97/5/2
f 92/2/2 93/2/2 98/2/2
f 97/1/2 92/1/2 98/1/2
f 98/2/2 93/2/2 99/2/2
f 96/2/2 97/2/2 100/2/2
f 97/6/2 98/6/2 101/6/2
f 100/2/2 97/2/2 101/2/2
f 100/5/2 101/5/2 102/5/2
f 101/6/2 98/6/2 102/6/2
f 98/5/2 99/5/2 103/5/2
f 102/6/2 98/6/2 103/6/2
f 100/5/2 102/5/2 104/5/2
f 102/1/2 103/1/2 104/1/2
f 103/5/2 99/5/2 105/5/2
f 104/1/2 103/1/2 105/1/2
f 104/6/2 105/6/2 106/6/2
f 105/5/2 99/5/2 106/5/2
f 106/5/2 99/5/2 107/5/2
f 100/5/2 104/5/2 108/5/2
f 104/6/2 106/6/2 108/6/2
f 106/2/2 107/2/2 109/2/2
f 108/6/2 106/6/2 109/6/2
f 109/2/2 107/2/2 110/2/2
f 100/5/2 108/5/2 111/5/2
f 108/1/2 109/1/2 112/1/2
f 111/5/2 108/5/2 112/5/2
f 109/5/2 110/5/2 113/5/2
f 112/1/2 109/1/2 113/1/2
f 113/5/2 110/5/2 114/5/2
f 111/2/2 112/2/2 115/2/2
f 112/1/2 113/1/2 115/1/2
f 113/2/2 114/2/2 116/2/2
f 115/1/2 113/1/2 116/1/2
f 116/2/2 114/2/2 117/2/2
f 111/2/2 115/2/2 118/2/2
f 115/6/2 116/6/2 119/6/2
f 118/2/2 115/2/2 119/2/2
f 116/5/2 117/5/2 120/5/2
f 119/6/2 116/6/2 120/6/2
f 120/5/2 117/5/2 121/5/2
f 118/5/2 119/5/2 122/5/2
f 119/6/2 120/6/2 122/6/2
f 120/2/2 121/2/2 123/2/2
f 122/6/2 120/6/2 123/6/2
f 118/5/2 122/5/2 124/5/2
f 122/1/2 123/1/2 125/1/2
f 124/5/2 122/5/2 125/5/2
f 123/2/2 121/2/2 126/2/2
f 125/1/2 123/1/2 126/1/2
f 124/2/2 125/2/2 127/2/2
f 125/5/2 126/5/2 128/5/2
f 127/2/2 125/2/2 128/2/2
f 126/2/2 121/2/2 129/2/2
f 128/5/2 126/5/2 129/5/2
f 129/2/2 121/2/2 130/2/2
f 128/5/2 129/5/2 131/5/2
f 131/5/2 129/5/2 132/5/2
f 131/2/2 132/2/2 133/2/2
f 133/2/2 132/2/2 134/2/2
f 135/3/2 136/3/2 137/3/2
f 137/3/2 136/3/2 138/3/2
f 139/3/2 140/3/2 141/3/2
f 141/3/2 140/3/2 142/3/2
f 145/3/3 144/3/3 143/3/3
f 146/3/3 144/3/3 145/3/3
f 149/3/3 148/3/3 147/3/3
f 150/3/3 148/3/3 149/3/3
f 153/3/3 152/3/3 151/3/3
f 154/3/3 152/3/3 153/3/3
f 164/3/3 156/3/3 155/3/3
f 165/3/3 156/3/3 164/3/3
f 166/5/3 158/5/3 157/5/3
f 167/2/3 159/2/3 158/2/3
f 167/5/3 158/5/3 166/5/3
f 168/5/3 160/5/3 159/5/3
f 168/2/3 159/2/3 167/2/3
f 169/2/3 161/2/3 160/2/3
f 169/5/3 160/5/3 168/5/3
f 170/5/3 162/5/3 161/5/3
f 170/2/3 161/2/3 169/2/3
f 171/2/3 163/2/3 162/2/3
f 171/5/3 162/5/3 170/5/3
f 172/2/3 163/2/3 171/2/3
f 176/3/3 174/3/3 173/3/3
f 177/3/3 174/3/3 176/3/3
f 182/3/3 176/3/3 175/3/3
f 183/3/3 176/3/3 182/3/3
f 184/4/3 178/4/3 177/4/3
f 185/4/3 178/4/3 184/4/3
f 186/5/3 180/5/3 179/5/3
f 187/2/3 181/2/3 180/2/3
f 187/5/3 180/5/3 186/5/3
f 188/2/3 181/2/3 187/2/3
f 189/3/3 184/3/3 183/3/3
f 190/3/3 184/3/3 189/3/3
f 191/3/4 192/3/4 194/3/4
f 194/3/4 192/3/4 195/3/4
f 193/3/4 194/3/4 200/3/4
f 200/3/4 194/3/4 201/3/4
f 195/4/4 196/4/4 202/4/4
f 202/4/4 196/4/4 203/4/4
f 197/5/4 198/5/4 204/5/4
f 198/2/4 199/2/4 205/2/4
f 204/5/4 198/5/4 205/5/4
f 205/2/4 199/2/4 206/2/4
f 201/3/4 202/3/4 207/3/4
f 207/3/4 202/3/4 208/3/4
f 209/3/4 210/3/4 219/3/4
f 219/3/4 210/3/4 220/3/4
f 211/2/4 212/2/4 221/2/4
f 212/5/4 213/5/4 222/5/4
f 221/2/4 212/2/4 222/2/4
f 213/2/4 214/2/4 223/2/4
f 222/5/4 213/5/4 223/5/4
f 214/5/4 215/5/4 224/5/4
f 223/2/4 214/2/4 224/2/4
f 215/2/4 216/2/4 225/2/4
f 224/5/4 215/5/4 225/5/4
f 216/5/4 217/5/4 226/5/4
f 225/2/4 216/2/4 226/2/4
f 217/2/4 218/2/4 227/2/4
f 226/5/4 217/5/4 227/5/4
f 227/2/4 218/2/4 228/2/4
f 229/3/4 230/3/4 231/3/4
f 231/3/4 230/3/4 232/3/4
f 233/3/4 234/3/4 235/3/4
f 235/3/4 234/3/4 236/3/4
f 237/3/4 238/3/4 239/3/4
f 239/3/4 238/3/4 240/3/4
f 243/3/5 242/3/5 241/3/5
f 244/3/5 242/3/5 243/3/5
f 248/3/5 246/3/5 245/3/5
f 249/3/5 246/3/5 248/3/5
f 251/3/5 248/3/5 247/3/5
f 252/3/5 248/3/5 251/3/5
f 253/3/5 250/3/5 249/3/5
f 254/3/5 250/3/5 253/3/5
f 255/3/5 253/3/5 252/3/5
f 256/3/5 253/3/5 255/3/5
f 260/3/5 258/3/5 257/3/5
f 261/3/5 258/3/5 260/3/5
f 263/3/5 260/3/5 259/3/5
f 263/3/5 262/3/5 261/3/5
f 263/3/5 261/3/5 260/3/5
f 264/3/5 262/3/5 263/3/5
f 265/3/5 263/3/5 259/3/5
f 266/3/5 262/3/5 264/3/5
f 267/3/5 265/3/5 259/3/5
f 267/3/5 266/3/5 265/3/5
f 268/3/5 266/3/5 267/3/5
f 269/3/5 262/3/5 266/3/5
f 269/3/5 266/3/5 268/3/5
f 270/3/5 262/3/5 269/3/5
f 271/3/5 269/3/5 268/3/5
f 272/3/5 269/3/5 271/3/5
f 273/3/6 274/3/6 276/3/6
f 276/3/6 274/3/6 277/3/6
f 275/3/6 276/3/6 279/3/6
f 279/3/6 276/3/6 280/3/6
f 277/3/6 278/3/6 281/3/6
f 281/3/6 278/3/6 282/3/6
f 280/3/6 281/3/6 283/3/6
f 283/3/6 281/3/6 284/3/6
f 285/3/6 286/3/6 288/3/6
f 288/3/6 286/3/6 289/3/6
f 287/3/6 288/3/6 291/3/6
f 289/3/6 290/3/6 291/3/6
f 288/3/6 289/3/6 291/3/6
f 291/3/6 290/3/6 292/3/6
f 287/3/6 291/3/6 293/3/6
f 292/3/6 290/3/6 294/3/6
f 287/3/6 293/3/6 295/3/6
f 294/3/6 290/3/6 296/3/6
f 287/3/6 295/3/6 297/3/6
f 296/3/6 290/3/6 298/3/6
f 287/3/6 297/3/6 299/3/6
f 297/3/6 298/3/6 299/3/6
f 299/3/6 298/3/6 300/3/6
f 298/3/6 290/3/6 301/3/6
f 300/3/6 298/3/6 301/3/6
f 301/3/6 290/3/6 302/3/6
f 300/3/6 301/3/6 303/3/6
f 303/3/6 301/3/6 304/3/6
f 305/2/6 306/2/6 307/2/6
f 307/2/6 306/2/6 308/2/6
f 309/2/6 310/2/6 311/2/6
f 311/2/6 310/2/6 312/2/6
f 313/2/6 314/2/6 315/2/6
f 315/2/6 314/2/6 316/2/6
