# MagicaVoxel @ Ephtracy

# group
o 

# material
mtllib Simple Shield.mtl
usemtl palette

# normals
vn -1 0 0
vn 1 0 0
vn 0 0 1
vn 0 0 -1
vn 0 -1 0
vn 0 1 0

# texcoords
vt 0.373047 0.5
vt 0.533203 0.5
vt 0.537109 0.5
vt 0.982422 0.5

# verts
v -0.5 0.5 0.3
v -0.5 0.5 0.2
v -0.5 1.1 0.3
v -0.5 1.1 0.2
v -0.4 0.4 0.3
v -0.4 0.4 0.2
v -0.4 0.5 0.3
v -0.4 0.5 0.2
v -0.4 1.1 0.3
v -0.4 1.1 0.2
v -0.4 1.2 0.3
v -0.4 1.2 0.2
v -0.3 0.3 0.3
v -0.3 0.3 0.2
v -0.3 0.4 0.3
v -0.3 0.4 0.2
v -0.3 1.2 0.3
v -0.3 1.2 0.2
v -0.3 1.3 0.3
v -0.3 1.3 0.2
v -0.2 0.6 0.2
v -0.2 0.6 0
v -0.2 0.7 0.2
v -0.2 0.7 0
v -0.2 0.7 -0.1
v -0.2 0.9 0.2
v -0.2 0.9 0
v -0.2 0.9 -0.1
v -0.2 1 0.2
v -0.2 1 0
v -0.1 0.7 0.4
v -0.1 0.7 0.3
v -0.1 0.9 0.4
v -0.1 0.9 0.3
v 0.1 0.6 0.2
v 0.1 0.6 0
v 0.1 0.7 0.2
v 0.1 0.7 0
v 0.1 0.7 -0.1
v 0.1 0.9 0.2
v 0.1 0.9 0
v 0.1 0.9 -0.1
v 0.1 1 0.2
v 0.1 1 0
v -0.1 0.6 0.2
v -0.1 0.6 0
v -0.1 0.7 0.2
v -0.1 0.7 0
v -0.1 0.7 -0.1
v -0.1 0.9 0.2
v -0.1 0.9 0
v -0.1 0.9 -0.1
v -0.1 1 0.2
v -0.1 1 0
v 0.1 0.7 0.4
v 0.1 0.7 0.3
v 0.1 0.9 0.4
v 0.1 0.9 0.3
v 0.2 0.6 0.2
v 0.2 0.6 0
v 0.2 0.7 0.2
v 0.2 0.7 0
v 0.2 0.7 -0.1
v 0.2 0.9 0.2
v 0.2 0.9 0
v 0.2 0.9 -0.1
v 0.2 1 0.2
v 0.2 1 0
v 0.3 0.3 0.3
v 0.3 0.3 0.2
v 0.3 0.4 0.3
v 0.3 0.4 0.2
v 0.3 1.2 0.3
v 0.3 1.2 0.2
v 0.3 1.3 0.3
v 0.3 1.3 0.2
v 0.4 0.4 0.3
v 0.4 0.4 0.2
v 0.4 0.5 0.3
v 0.4 0.5 0.2
v 0.4 1.1 0.3
v 0.4 1.1 0.2
v 0.4 1.2 0.3
v 0.4 1.2 0.2
v 0.5 0.5 0.3
v 0.5 0.5 0.2
v 0.5 1.1 0.3
v 0.5 1.1 0.2
v -0.1 0.7 0.4
v -0.1 0.9 0.4
v 0.1 0.7 0.4
v 0.1 0.9 0.4
v -0.5 0.5 0.3
v -0.5 1.1 0.3
v -0.4 0.4 0.3
v -0.4 0.5 0.3
v -0.4 0.9 0.3
v -0.4 1.1 0.3
v -0.4 1.2 0.3
v -0.3 0.3 0.3
v -0.3 0.4 0.3
v -0.3 0.5 0.3
v -0.3 0.9 0.3
v -0.3 1.1 0.3
v -0.3 1.2 0.3
v -0.3 1.3 0.3
v -0.2 0.4 0.3
v -0.2 0.9 0.3
v -0.2 1.2 0.3
v -0.1 0.4 0.3
v -0.1 0.7 0.3
v -0.1 0.9 0.3
v -0.1 1.2 0.3
v 0 0.4 0.3
v 0 0.7 0.3
v 0 0.9 0.3
v 0 1.2 0.3
v 0.1 0.4 0.3
v 0.1 0.7 0.3
v 0.1 0.9 0.3
v 0.1 1.2 0.3
v 0.2 0.4 0.3
v 0.2 0.7 0.3
v 0.2 1.2 0.3
v 0.3 0.3 0.3
v 0.3 0.4 0.3
v 0.3 0.5 0.3
v 0.3 0.7 0.3
v 0.3 1.1 0.3
v 0.3 1.2 0.3
v 0.3 1.3 0.3
v 0.4 0.4 0.3
v 0.4 0.5 0.3
v 0.4 0.7 0.3
v 0.4 1.1 0.3
v 0.4 1.2 0.3
v 0.5 0.5 0.3
v 0.5 1.1 0.3
v -0.2 0.7 0
v -0.2 0.9 0
v -0.1 0.7 0
v -0.1 0.9 0
v 0.1 0.7 0
v 0.1 0.9 0
v 0.2 0.7 0
v 0.2 0.9 0
v -0.5 0.5 0.2
v -0.5 1.1 0.2
v -0.4 0.4 0.2
v -0.4 0.5 0.2
v -0.4 0.9 0.2
v -0.4 1.1 0.2
v -0.4 1.2 0.2
v -0.3 0.3 0.2
v -0.3 0.4 0.2
v -0.3 0.5 0.2
v -0.3 0.9 0.2
v -0.3 1.1 0.2
v -0.3 1.2 0.2
v -0.3 1.3 0.2
v -0.2 0.4 0.2
v -0.2 0.6 0.2
v -0.2 0.7 0.2
v -0.2 0.9 0.2
v -0.2 1 0.2
v -0.2 1.2 0.2
v -0.1 0.4 0.2
v -0.1 0.6 0.2
v -0.1 0.7 0.2
v -0.1 0.9 0.2
v -0.1 1 0.2
v -0.1 1.2 0.2
v 0 0.4 0.2
v 0 0.7 0.2
v 0 1.2 0.2
v 0.1 0.4 0.2
v 0.1 0.6 0.2
v 0.1 0.7 0.2
v 0.1 0.9 0.2
v 0.1 1 0.2
v 0.1 1.2 0.2
v 0.2 0.4 0.2
v 0.2 0.6 0.2
v 0.2 0.7 0.2
v 0.2 0.9 0.2
v 0.2 1 0.2
v 0.2 1.2 0.2
v 0.3 0.3 0.2
v 0.3 0.4 0.2
v 0.3 0.5 0.2
v 0.3 0.7 0.2
v 0.3 1.1 0.2
v 0.3 1.2 0.2
v 0.3 1.3 0.2
v 0.4 0.4 0.2
v 0.4 0.5 0.2
v 0.4 0.7 0.2
v 0.4 1.1 0.2
v 0.4 1.2 0.2
v 0.5 0.5 0.2
v 0.5 1.1 0.2
v -0.2 0.6 0
v -0.2 0.7 0
v -0.2 0.9 0
v -0.2 1 0
v -0.1 0.6 0
v -0.1 0.7 0
v -0.1 0.9 0
v -0.1 1 0
v 0.1 0.6 0
v 0.1 0.7 0
v 0.1 0.9 0
v 0.1 1 0
v 0.2 0.6 0
v 0.2 0.7 0
v 0.2 0.9 0
v 0.2 1 0
v -0.2 0.7 -0.1
v -0.2 0.9 -0.1
v -0.1 0.7 -0.1
v -0.1 0.9 -0.1
v 0.1 0.7 -0.1
v 0.1 0.9 -0.1
v 0.2 0.7 -0.1
v 0.2 0.9 -0.1
v -0.3 0.3 0.3
v 0.3 0.3 0.3
v -0.3 0.3 0.2
v 0.3 0.3 0.2
v -0.4 0.4 0.3
v -0.3 0.4 0.3
v 0.3 0.4 0.3
v 0.4 0.4 0.3
v -0.4 0.4 0.2
v -0.3 0.4 0.2
v 0.3 0.4 0.2
v 0.4 0.4 0.2
v -0.5 0.5 0.3
v -0.4 0.5 0.3
v 0.4 0.5 0.3
v 0.5 0.5 0.3
v -0.5 0.5 0.2
v -0.4 0.5 0.2
v 0.4 0.5 0.2
v 0.5 0.5 0.2
v -0.2 0.6 0.2
v -0.1 0.6 0.2
v 0.1 0.6 0.2
v 0.2 0.6 0.2
v -0.2 0.6 0
v -0.1 0.6 0
v 0.1 0.6 0
v 0.2 0.6 0
v -0.1 0.7 0.4
v 0.1 0.7 0.4
v -0.1 0.7 0.3
v 0 0.7 0.3
v 0.1 0.7 0.3
v -0.2 0.7 0
v -0.1 0.7 0
v 0.1 0.7 0
v 0.2 0.7 0
v -0.2 0.7 -0.1
v -0.1 0.7 -0.1
v 0.1 0.7 -0.1
v 0.2 0.7 -0.1
v -0.2 0.9 0.2
v -0.1 0.9 0.2
v 0.1 0.9 0.2
v 0.2 0.9 0.2
v -0.2 0.9 0
v -0.1 0.9 0
v 0.1 0.9 0
v 0.2 0.9 0
v -0.2 0.7 0.2
v -0.1 0.7 0.2
v 0.1 0.7 0.2
v 0.2 0.7 0.2
v -0.2 0.7 0
v -0.1 0.7 0
v 0.1 0.7 0
v 0.2 0.7 0
v -0.1 0.9 0.4
v 0.1 0.9 0.4
v -0.1 0.9 0.3
v 0 0.9 0.3
v 0.1 0.9 0.3
v -0.2 0.9 0
v -0.1 0.9 0
v 0.1 0.9 0
v 0.2 0.9 0
v -0.2 0.9 -0.1
v -0.1 0.9 -0.1
v 0.1 0.9 -0.1
v 0.2 0.9 -0.1
v -0.2 1 0.2
v -0.1 1 0.2
v 0.1 1 0.2
v 0.2 1 0.2
v -0.2 1 0
v -0.1 1 0
v 0.1 1 0
v 0.2 1 0
v -0.5 1.1 0.3
v -0.4 1.1 0.3
v 0.4 1.1 0.3
v 0.5 1.1 0.3
v -0.5 1.1 0.2
v -0.4 1.1 0.2
v 0.4 1.1 0.2
v 0.5 1.1 0.2
v -0.4 1.2 0.3
v -0.3 1.2 0.3
v 0.3 1.2 0.3
v 0.4 1.2 0.3
v -0.4 1.2 0.2
v -0.3 1.2 0.2
v 0.3 1.2 0.2
v 0.4 1.2 0.2
v -0.3 1.3 0.3
v 0.3 1.3 0.3
v -0.3 1.3 0.2
v 0.3 1.3 0.2

# faces
f 3/1/1 2/1/1 1/1/1
f 4/1/1 2/1/1 3/1/1
f 7/1/1 6/1/1 5/1/1
f 8/1/1 6/1/1 7/1/1
f 11/1/1 10/1/1 9/1/1
f 12/1/1 10/1/1 11/1/1
f 15/1/1 14/1/1 13/1/1
f 16/1/1 14/1/1 15/1/1
f 19/1/1 18/1/1 17/1/1
f 20/1/1 18/1/1 19/1/1
f 23/3/1 22/3/1 21/3/1
f 24/3/1 22/3/1 23/3/1
f 27/3/1 25/3/1 24/3/1
f 28/3/1 25/3/1 27/3/1
f 29/3/1 27/3/1 26/3/1
f 30/3/1 27/3/1 29/3/1
f 33/4/1 32/4/1 31/4/1
f 34/4/1 32/4/1 33/4/1
f 37/3/1 36/3/1 35/3/1
f 38/3/1 36/3/1 37/3/1
f 41/3/1 39/3/1 38/3/1
f 42/3/1 39/3/1 41/3/1
f 43/3/1 41/3/1 40/3/1
f 44/3/1 41/3/1 43/3/1
f 45/3/2 46/3/2 47/3/2
f 47/3/2 46/3/2 48/3/2
f 48/3/2 49/3/2 51/3/2
f 51/3/2 49/3/2 52/3/2
f 50/3/2 51/3/2 53/3/2
f 53/3/2 51/3/2 54/3/2
f 55/4/2 56/4/2 57/4/2
f 57/4/2 56/4/2 58/4/2
f 59/3/2 60/3/2 61/3/2
f 61/3/2 60/3/2 62/3/2
f 62/3/2 63/3/2 65/3/2
f 65/3/2 63/3/2 66/3/2
f 64/3/2 65/3/2 67/3/2
f 67/3/2 65/3/2 68/3/2
f 69/1/2 70/1/2 71/1/2
f 71/1/2 70/1/2 72/1/2
f 73/1/2 74/1/2 75/1/2
f 75/1/2 74/1/2 76/1/2
f 77/1/2 78/1/2 79/1/2
f 79/1/2 78/1/2 80/1/2
f 81/1/2 82/1/2 83/1/2
f 83/1/2 82/1/2 84/1/2
f 85/1/2 86/1/2 87/1/2
f 87/1/2 86/1/2 88/1/2
f 91/4/3 90/4/3 89/4/3
f 92/4/3 90/4/3 91/4/3
f 96/1/3 94/1/3 93/1/3
f 97/1/3 94/1/3 96/1/3
f 98/1/3 94/1/3 97/1/3
f 101/1/3 96/1/3 95/1/3
f 102/2/3 97/2/3 96/2/3
f 102/1/3 96/1/3 101/1/3
f 103/3/3 98/3/3 97/3/3
f 103/2/3 97/2/3 102/2/3
f 104/1/3 99/1/3 98/1/3
f 104/3/3 98/3/3 103/3/3
f 105/1/3 99/1/3 104/1/3
f 107/3/3 103/3/3 102/3/3
f 107/1/3 101/1/3 100/1/3
f 107/3/3 102/3/3 101/3/3
f 108/2/3 105/2/3 104/2/3
f 108/3/3 103/3/3 107/3/3
f 108/2/3 104/2/3 103/2/3
f 109/1/3 106/1/3 105/1/3
f 109/2/3 105/2/3 108/2/3
f 110/2/3 108/2/3 107/2/3
f 110/1/3 107/1/3 100/1/3
f 111/2/3 108/2/3 110/2/3
f 112/3/3 109/3/3 108/3/3
f 112/2/3 108/2/3 111/2/3
f 113/1/3 106/1/3 109/1/3
f 113/3/3 109/3/3 112/3/3
f 114/3/3 111/3/3 110/3/3
f 114/1/3 110/1/3 100/1/3
f 115/3/3 111/3/3 114/3/3
f 116/2/3 113/2/3 112/2/3
f 117/1/3 106/1/3 113/1/3
f 117/2/3 113/2/3 116/2/3
f 118/2/3 115/2/3 114/2/3
f 118/1/3 114/1/3 100/1/3
f 119/2/3 115/2/3 118/2/3
f 120/3/3 117/3/3 116/3/3
f 121/1/3 106/1/3 117/1/3
f 121/3/3 117/3/3 120/3/3
f 122/3/3 119/3/3 118/3/3
f 122/1/3 118/1/3 100/1/3
f 123/2/3 120/2/3 119/2/3
f 123/3/3 119/3/3 122/3/3
f 123/2/3 121/2/3 120/2/3
f 124/1/3 106/1/3 121/1/3
f 124/2/3 121/2/3 123/2/3
f 125/1/3 122/1/3 100/1/3
f 126/2/3 123/2/3 122/2/3
f 126/1/3 122/1/3 125/1/3
f 127/2/3 123/2/3 126/2/3
f 128/3/3 124/3/3 123/3/3
f 128/2/3 123/2/3 127/2/3
f 129/3/3 124/3/3 128/3/3
f 130/1/3 106/1/3 124/1/3
f 130/3/3 124/3/3 129/3/3
f 131/1/3 106/1/3 130/1/3
f 132/1/3 127/1/3 126/1/3
f 133/3/3 128/3/3 127/3/3
f 133/1/3 127/1/3 132/1/3
f 134/2/3 129/2/3 128/2/3
f 134/3/3 128/3/3 133/3/3
f 135/1/3 130/1/3 129/1/3
f 135/2/3 129/2/3 134/2/3
f 136/1/3 130/1/3 135/1/3
f 137/1/3 134/1/3 133/1/3
f 137/1/3 135/1/3 134/1/3
f 138/1/3 135/1/3 137/1/3
f 141/3/3 140/3/3 139/3/3
f 142/3/3 140/3/3 141/3/3
f 145/3/3 144/3/3 143/3/3
f 146/3/3 144/3/3 145/3/3
f 147/1/4 148/1/4 150/1/4
f 150/1/4 148/1/4 151/1/4
f 151/1/4 148/1/4 152/1/4
f 149/1/4 150/1/4 155/1/4
f 150/2/4 151/2/4 156/2/4
f 155/1/4 150/1/4 156/1/4
f 151/3/4 152/3/4 157/3/4
f 156/2/4 151/2/4 157/2/4
f 152/1/4 153/1/4 158/1/4
f 157/3/4 152/3/4 158/3/4
f 158/1/4 153/1/4 159/1/4
f 156/3/4 157/3/4 161/3/4
f 154/1/4 155/1/4 161/1/4
f 155/3/4 156/3/4 161/3/4
f 161/3/4 157/3/4 162/3/4
f 162/3/4 157/3/4 163/3/4
f 158/2/4 159/2/4 164/2/4
f 163/3/4 157/3/4 164/3/4
f 157/2/4 158/2/4 164/2/4
f 164/2/4 159/2/4 165/2/4
f 159/1/4 160/1/4 166/1/4
f 165/2/4 159/2/4 166/2/4
f 161/2/4 162/2/4 167/2/4
f 154/1/4 161/1/4 167/1/4
f 167/2/4 162/2/4 168/2/4
f 163/2/4 164/2/4 169/2/4
f 169/2/4 164/2/4 170/2/4
f 165/3/4 166/3/4 171/3/4
f 166/1/4 160/1/4 172/1/4
f 171/3/4 166/3/4 172/3/4
f 167/3/4 168/3/4 173/3/4
f 154/1/4 167/1/4 173/1/4
f 168/3/4 169/3/4 173/3/4
f 170/2/4 171/2/4 174/2/4
f 173/3/4 169/3/4 174/3/4
f 169/2/4 170/2/4 174/2/4
f 171/2/4 172/2/4 174/2/4
f 172/1/4 160/1/4 175/1/4
f 174/2/4 172/2/4 175/2/4
f 154/1/4 173/1/4 176/1/4
f 173/2/4 174/2/4 176/2/4
f 176/2/4 174/2/4 177/2/4
f 174/3/4 175/3/4 178/3/4
f 177/2/4 174/2/4 178/2/4
f 178/3/4 175/3/4 179/3/4
f 179/3/4 175/3/4 180/3/4
f 175/1/4 160/1/4 181/1/4
f 180/3/4 175/3/4 181/3/4
f 176/3/4 177/3/4 182/3/4
f 154/1/4 176/1/4 182/1/4
f 182/3/4 177/3/4 183/3/4
f 178/2/4 179/2/4 184/2/4
f 184/2/4 179/2/4 185/2/4
f 180/2/4 181/2/4 186/2/4
f 181/1/4 160/1/4 187/1/4
f 186/2/4 181/2/4 187/2/4
f 154/1/4 182/1/4 188/1/4
f 182/2/4 183/2/4 189/2/4
f 188/1/4 182/1/4 189/1/4
f 183/2/4 184/2/4 189/2/4
f 189/2/4 184/2/4 190/2/4
f 185/3/4 186/3/4 191/3/4
f 190/2/4 184/2/4 191/2/4
f 184/3/4 185/3/4 191/3/4
f 186/3/4 187/3/4 191/3/4
f 191/3/4 187/3/4 192/3/4
f 187/1/4 160/1/4 193/1/4
f 192/3/4 187/3/4 193/3/4
f 193/1/4 160/1/4 194/1/4
f 189/1/4 190/1/4 195/1/4
f 190/3/4 191/3/4 196/3/4
f 195/1/4 190/1/4 196/1/4
f 191/2/4 192/2/4 197/2/4
f 196/3/4 191/3/4 197/3/4
f 192/1/4 193/1/4 198/1/4
f 197/2/4 192/2/4 198/2/4
f 198/1/4 193/1/4 199/1/4
f 196/1/4 197/1/4 200/1/4
f 197/1/4 198/1/4 200/1/4
f 200/1/4 198/1/4 201/1/4
f 202/3/4 203/3/4 206/3/4
f 206/3/4 203/3/4 207/3/4
f 204/3/4 205/3/4 208/3/4
f 208/3/4 205/3/4 209/3/4
f 210/3/4 211/3/4 214/3/4
f 214/3/4 211/3/4 215/3/4
f 212/3/4 213/3/4 216/3/4
f 216/3/4 213/3/4 217/3/4
f 218/3/4 219/3/4 220/3/4
f 220/3/4 219/3/4 221/3/4
f 222/3/4 223/3/4 224/3/4
f 224/3/4 223/3/4 225/3/4
f 228/1/5 227/1/5 226/1/5
f 229/1/5 227/1/5 228/1/5
f 234/1/5 231/1/5 230/1/5
f 235/1/5 231/1/5 234/1/5
f 236/1/5 233/1/5 232/1/5
f 237/1/5 233/1/5 236/1/5
f 242/1/5 239/1/5 238/1/5
f 243/1/5 239/1/5 242/1/5
f 244/1/5 241/1/5 240/1/5
f 245/1/5 241/1/5 244/1/5
f 250/3/5 247/3/5 246/3/5
f 251/3/5 247/3/5 250/3/5
f 252/3/5 249/3/5 248/3/5
f 253/3/5 249/3/5 252/3/5
f 256/4/5 255/4/5 254/4/5
f 257/4/5 255/4/5 256/4/5
f 258/4/5 255/4/5 257/4/5
f 263/3/5 260/3/5 259/3/5
f 264/3/5 260/3/5 263/3/5
f 265/3/5 262/3/5 261/3/5
f 266/3/5 262/3/5 265/3/5
f 271/3/5 268/3/5 267/3/5
f 272/3/5 268/3/5 271/3/5
f 273/3/5 270/3/5 269/3/5
f 274/3/5 270/3/5 273/3/5
f 275/3/6 276/3/6 279/3/6
f 279/3/6 276/3/6 280/3/6
f 277/3/6 278/3/6 281/3/6
f 281/3/6 278/3/6 282/3/6
f 283/4/6 284/4/6 285/4/6
f 285/4/6 284/4/6 286/4/6
f 286/4/6 284/4/6 287/4/6
f 288/3/6 289/3/6 292/3/6
f 292/3/6 289/3/6 293/3/6
f 290/3/6 291/3/6 294/3/6
f 294/3/6 291/3/6 295/3/6
f 296/3/6 297/3/6 300/3/6
f 300/3/6 297/3/6 301/3/6
f 298/3/6 299/3/6 302/3/6
f 302/3/6 299/3/6 303/3/6
f 304/1/6 305/1/6 308/1/6
f 308/1/6 305/1/6 309/1/6
f 306/1/6 307/1/6 310/1/6
f 310/1/6 307/1/6 311/1/6
f 312/1/6 313/1/6 316/1/6
f 316/1/6 313/1/6 317/1/6
f 314/1/6 315/1/6 318/1/6
f 318/1/6 315/1/6 319/1/6
f 320/1/6 321/1/6 322/1/6
f 322/1/6 321/1/6 323/1/6
