# MagicaVoxel @ Ephtracy

# group
o 

# material
mtllib Sword.mtl
usemtl palette

# normals
vn -1 0 0
vn 1 0 0
vn 0 0 1
vn 0 0 -1
vn 0 -1 0
vn 0 1 0

# texcoords
vt 0.232422 0.5
vt 0.537109 0.5
vt 0.974609 0.5
vt 0.978516 0.5

# verts
v -0.2 0.2 0.1
v -0.2 0.2 0
v -0.2 0.3 0.1
v -0.2 0.3 0
v -0.2 0.7 0.3
v -0.2 0.7 -0.2
v -0.2 0.8 0.3
v -0.2 0.8 -0.2
v -0.1 0.1 0.1
v -0.1 0.1 0
v -0.1 0.2 0.2
v -0.1 0.2 0.1
v -0.1 0.2 0
v -0.1 0.2 -0.1
v -0.1 0.3 0.2
v -0.1 0.3 0.1
v -0.1 0.3 0
v -0.1 0.3 -0.1
v -0.1 0.7 0.4
v -0.1 0.7 0.3
v -0.1 0.7 0.1
v -0.1 0.7 0
v -0.1 0.7 -0.2
v -0.1 0.7 -0.3
v -0.1 0.8 0.4
v -0.1 0.8 0.3
v -0.1 0.8 0.2
v -0.1 0.8 0.1
v -0.1 0.8 0
v -0.1 0.8 -0.1
v -0.1 0.8 -0.2
v -0.1 0.8 -0.3
v -0.1 2.1 0.1
v -0.1 2.1 0
v -0.1 2.2 0.2
v -0.1 2.2 0.1
v -0.1 2.2 0
v -0.1 2.2 -0.1
v -0.1 2.4 0.1
v -0.1 2.4 0
v 0 0.1 0.1
v 0 0.1 0
v 0 0.2 0.2
v 0 0.2 0.1
v 0 0.2 0
v 0 0.2 -0.1
v 0 0.3 0.2
v 0 0.3 0.1
v 0 0.3 0
v 0 0.3 -0.1
v 0 0.7 0.4
v 0 0.7 0.3
v 0 0.7 0.1
v 0 0.7 0
v 0 0.7 -0.2
v 0 0.7 -0.3
v 0 0.8 0.4
v 0 0.8 0.3
v 0 0.8 0.2
v 0 0.8 0.1
v 0 0.8 0
v 0 0.8 -0.1
v 0 0.8 -0.2
v 0 0.8 -0.3
v 0 2.1 0.1
v 0 2.1 0
v 0 2.2 0.2
v 0 2.2 0.1
v 0 2.2 0
v 0 2.2 -0.1
v 0 2.4 0.1
v 0 2.4 0
v 0.1 0.2 0.1
v 0.1 0.2 0
v 0.1 0.3 0.1
v 0.1 0.3 0
v 0.1 0.7 0.3
v 0.1 0.7 -0.2
v 0.1 0.8 0.3
v 0.1 0.8 -0.2
v -0.1 0.7 0.4
v -0.1 0.8 0.4
v 0 0.7 0.4
v 0 0.8 0.4
v -0.2 0.7 0.3
v -0.2 0.8 0.3
v -0.1 0.7 0.3
v -0.1 0.8 0.3
v 0 0.7 0.3
v 0 0.8 0.3
v 0.1 0.7 0.3
v 0.1 0.8 0.3
v -0.1 0.2 0.2
v -0.1 0.3 0.2
v -0.1 0.8 0.2
v -0.1 2.2 0.2
v 0 0.2 0.2
v 0 0.3 0.2
v 0 0.8 0.2
v 0 2.2 0.2
v -0.2 0.2 0.1
v -0.2 0.3 0.1
v -0.1 0.1 0.1
v -0.1 0.2 0.1
v -0.1 0.3 0.1
v -0.1 0.7 0.1
v -0.1 2.2 0.1
v -0.1 2.4 0.1
v 0 0.1 0.1
v 0 0.2 0.1
v 0 0.3 0.1
v 0 0.7 0.1
v 0 2.2 0.1
v 0 2.4 0.1
v 0.1 0.2 0.1
v 0.1 0.3 0.1
v -0.2 0.2 0
v -0.2 0.3 0
v -0.1 0.1 0
v -0.1 0.2 0
v -0.1 0.3 0
v -0.1 0.7 0
v -0.1 2.2 0
v -0.1 2.4 0
v 0 0.1 0
v 0 0.2 0
v 0 0.3 0
v 0 0.7 0
v 0 2.2 0
v 0 2.4 0
v 0.1 0.2 0
v 0.1 0.3 0
v -0.1 0.2 -0.1
v -0.1 0.3 -0.1
v -0.1 0.8 -0.1
v -0.1 2.2 -0.1
v 0 0.2 -0.1
v 0 0.3 -0.1
v 0 0.8 -0.1
v 0 2.2 -0.1
v -0.2 0.7 -0.2
v -0.2 0.8 -0.2
v -0.1 0.7 -0.2
v -0.1 0.8 -0.2
v 0 0.7 -0.2
v 0 0.8 -0.2
v 0.1 0.7 -0.2
v 0.1 0.8 -0.2
v -0.1 0.7 -0.3
v -0.1 0.8 -0.3
v 0 0.7 -0.3
v 0 0.8 -0.3
v -0.1 0.1 0.1
v 0 0.1 0.1
v -0.1 0.1 0
v 0 0.1 0
v -0.1 0.2 0.2
v 0 0.2 0.2
v -0.2 0.2 0.1
v -0.1 0.2 0.1
v 0 0.2 0.1
v 0.1 0.2 0.1
v -0.2 0.2 0
v -0.1 0.2 0
v 0 0.2 0
v 0.1 0.2 0
v -0.1 0.2 -0.1
v 0 0.2 -0.1
v -0.1 0.7 0.4
v 0 0.7 0.4
v -0.2 0.7 0.3
v -0.1 0.7 0.3
v 0 0.7 0.3
v 0.1 0.7 0.3
v -0.1 0.7 0.1
v 0 0.7 0.1
v -0.1 0.7 0
v 0 0.7 0
v -0.2 0.7 -0.2
v -0.1 0.7 -0.2
v 0 0.7 -0.2
v 0.1 0.7 -0.2
v -0.1 0.7 -0.3
v 0 0.7 -0.3
v -0.1 0.3 0.2
v 0 0.3 0.2
v -0.2 0.3 0.1
v -0.1 0.3 0.1
v 0 0.3 0.1
v 0.1 0.3 0.1
v -0.2 0.3 0
v -0.1 0.3 0
v 0 0.3 0
v 0.1 0.3 0
v -0.1 0.3 -0.1
v 0 0.3 -0.1
v -0.1 0.8 0.4
v 0 0.8 0.4
v -0.2 0.8 0.3
v -0.1 0.8 0.3
v 0 0.8 0.3
v 0.1 0.8 0.3
v -0.1 0.8 0.2
v 0 0.8 0.2
v -0.1 0.8 0.1
v 0 0.8 0.1
v -0.1 0.8 0
v 0 0.8 0
v -0.1 0.8 -0.1
v 0 0.8 -0.1
v -0.2 0.8 -0.2
v -0.1 0.8 -0.2
v 0 0.8 -0.2
v 0.1 0.8 -0.2
v -0.1 0.8 -0.3
v 0 0.8 -0.3
v -0.1 2.2 0.2
v 0 2.2 0.2
v -0.1 2.2 0.1
v 0 2.2 0.1
v -0.1 2.2 0
v 0 2.2 0
v -0.1 2.2 -0.1
v 0 2.2 -0.1
v -0.1 2.4 0.1
v 0 2.4 0.1
v -0.1 2.4 0
v 0 2.4 0

# faces
f 3/1/1 2/1/1 1/1/1
f 4/1/1 2/1/1 3/1/1
f 7/1/1 6/1/1 5/1/1
f 8/1/1 6/1/1 7/1/1
f 12/1/1 10/1/1 9/1/1
f 13/1/1 10/1/1 12/1/1
f 15/1/1 12/1/1 11/1/1
f 16/1/1 12/1/1 15/1/1
f 17/1/1 14/1/1 13/1/1
f 18/1/1 14/1/1 17/1/1
f 21/2/1 17/2/1 16/2/1
f 22/2/1 17/2/1 21/2/1
f 25/1/1 20/1/1 19/1/1
f 26/1/1 20/1/1 25/1/1
f 31/1/1 24/1/1 23/1/1
f 32/1/1 24/1/1 31/1/1
f 33/3/1 28/3/1 27/3/1
f 33/4/1 29/4/1 28/4/1
f 34/3/1 30/3/1 29/3/1
f 34/4/1 29/4/1 33/4/1
f 35/3/1 33/3/1 27/3/1
f 35/3/1 34/3/1 33/3/1
f 36/3/1 34/3/1 35/3/1
f 37/3/1 30/3/1 34/3/1
f 37/3/1 34/3/1 36/3/1
f 38/3/1 30/3/1 37/3/1
f 39/3/1 37/3/1 36/3/1
f 40/3/1 37/3/1 39/3/1
f 41/1/2 42/1/2 44/1/2
f 44/1/2 42/1/2 45/1/2
f 43/1/2 44/1/2 47/1/2
f 47/1/2 44/1/2 48/1/2
f 45/1/2 46/1/2 49/1/2
f 49/1/2 46/1/2 50/1/2
f 48/2/2 49/2/2 53/2/2
f 53/2/2 49/2/2 54/2/2
f 51/1/2 52/1/2 57/1/2
f 57/1/2 52/1/2 58/1/2
f 55/1/2 56/1/2 63/1/2
f 63/1/2 56/1/2 64/1/2
f 59/3/2 60/3/2 65/3/2
f 60/4/2 61/4/2 65/4/2
f 61/3/2 62/3/2 66/3/2
f 65/4/2 61/4/2 66/4/2
f 59/3/2 65/3/2 67/3/2
f 65/3/2 66/3/2 67/3/2
f 67/3/2 66/3/2 68/3/2
f 66/3/2 62/3/2 69/3/2
f 68/3/2 66/3/2 69/3/2
f 69/3/2 62/3/2 70/3/2
f 68/3/2 69/3/2 71/3/2
f 71/3/2 69/3/2 72/3/2
f 73/1/2 74/1/2 75/1/2
f 75/1/2 74/1/2 76/1/2
f 77/1/2 78/1/2 79/1/2
f 79/1/2 78/1/2 80/1/2
f 83/1/3 82/1/3 81/1/3
f 84/1/3 82/1/3 83/1/3
f 87/1/3 86/1/3 85/1/3
f 88/1/3 86/1/3 87/1/3
f 91/1/3 90/1/3 89/1/3
f 92/1/3 90/1/3 91/1/3
f 97/1/3 94/1/3 93/1/3
f 98/1/3 94/1/3 97/1/3
f 99/3/3 96/3/3 95/3/3
f 100/3/3 96/3/3 99/3/3
f 104/1/3 102/1/3 101/1/3
f 105/1/3 102/1/3 104/1/3
f 109/1/3 104/1/3 103/1/3
f 110/1/3 104/1/3 109/1/3
f 111/2/3 106/2/3 105/2/3
f 112/2/3 106/2/3 111/2/3
f 113/3/3 108/3/3 107/3/3
f 114/3/3 108/3/3 113/3/3
f 115/1/3 111/1/3 110/1/3
f 116/1/3 111/1/3 115/1/3
f 117/1/4 118/1/4 120/1/4
f 120/1/4 118/1/4 121/1/4
f 119/1/4 120/1/4 125/1/4
f 125/1/4 120/1/4 126/1/4
f 121/2/4 122/2/4 127/2/4
f 127/2/4 122/2/4 128/2/4
f 123/3/4 124/3/4 129/3/4
f 129/3/4 124/3/4 130/3/4
f 126/1/4 127/1/4 131/1/4
f 131/1/4 127/1/4 132/1/4
f 133/1/4 134/1/4 137/1/4
f 137/1/4 134/1/4 138/1/4
f 135/3/4 136/3/4 139/3/4
f 139/3/4 136/3/4 140/3/4
f 141/1/4 142/1/4 143/1/4
f 143/1/4 142/1/4 144/1/4
f 145/1/4 146/1/4 147/1/4
f 147/1/4 146/1/4 148/1/4
f 149/1/4 150/1/4 151/1/4
f 151/1/4 150/1/4 152/1/4
f 155/1/5 154/1/5 153/1/5
f 156/1/5 154/1/5 155/1/5
f 160/1/5 158/1/5 157/1/5
f 161/1/5 158/1/5 160/1/5
f 163/1/5 160/1/5 159/1/5
f 164/1/5 160/1/5 163/1/5
f 165/1/5 162/1/5 161/1/5
f 166/1/5 162/1/5 165/1/5
f 167/1/5 165/1/5 164/1/5
f 168/1/5 165/1/5 167/1/5
f 172/1/5 170/1/5 169/1/5
f 173/1/5 170/1/5 172/1/5
f 175/1/5 172/1/5 171/1/5
f 175/1/5 174/1/5 173/1/5
f 175/1/5 173/1/5 172/1/5
f 176/1/5 174/1/5 175/1/5
f 177/1/5 175/1/5 171/1/5
f 178/1/5 174/1/5 176/1/5
f 179/1/5 177/1/5 171/1/5
f 179/1/5 178/1/5 177/1/5
f 180/1/5 178/1/5 179/1/5
f 181/1/5 174/1/5 178/1/5
f 181/1/5 178/1/5 180/1/5
f 182/1/5 174/1/5 181/1/5
f 183/1/5 181/1/5 180/1/5
f 184/1/5 181/1/5 183/1/5
f 185/1/6 186/1/6 188/1/6
f 188/1/6 186/1/6 189/1/6
f 187/1/6 188/1/6 191/1/6
f 191/1/6 188/1/6 192/1/6
f 189/1/6 190/1/6 193/1/6
f 193/1/6 190/1/6 194/1/6
f 192/1/6 193/1/6 195/1/6
f 195/1/6 193/1/6 196/1/6
f 197/1/6 198/1/6 200/1/6
f 200/1/6 198/1/6 201/1/6
f 199/1/6 200/1/6 203/1/6
f 201/1/6 202/1/6 203/1/6
f 200/1/6 201/1/6 203/1/6
f 203/1/6 202/1/6 204/1/6
f 199/1/6 203/1/6 205/1/6
f 204/1/6 202/1/6 206/1/6
f 199/1/6 205/1/6 207/1/6
f 206/1/6 202/1/6 208/1/6
f 199/1/6 207/1/6 209/1/6
f 208/1/6 202/1/6 210/1/6
f 199/1/6 209/1/6 211/1/6
f 209/1/6 210/1/6 211/1/6
f 211/1/6 210/1/6 212/1/6
f 210/1/6 202/1/6 213/1/6
f 212/1/6 210/1/6 213/1/6
f 213/1/6 202/1/6 214/1/6
f 212/1/6 213/1/6 215/1/6
f 215/1/6 213/1/6 216/1/6
f 217/3/6 218/3/6 219/3/6
f 219/3/6 218/3/6 220/3/6
f 221/3/6 222/3/6 223/3/6
f 223/3/6 222/3/6 224/3/6
f 225/3/6 226/3/6 227/3/6
f 227/3/6 226/3/6 228/3/6
