# MagicaVoxel @ Ephtracy

# group
o 

# material
mtllib Bottle.mtl
usemtl palette

# normals
vn -1 0 0
vn 1 0 0
vn 0 0 1
vn 0 0 -1
vn 0 -1 0
vn 0 1 0

# texcoords
vt 0.232422 0.5
vt 0.775391 0.5
vt 0.849609 0.5
vt 0.970703 0.5
vt 0.974609 0.5
vt 0.978516 0.5

# verts
v -0.3 0 0.4
v -0.3 0 0.3
v -0.3 0.1 0.5
v -0.3 0.1 0.4
v -0.3 0.1 0.3
v -0.3 0.1 0.2
v -0.3 0.2 0.5
v -0.3 0.2 0.4
v -0.3 0.2 0.3
v -0.3 0.2 0.2
v -0.3 0.3 0.5
v -0.3 0.3 0.4
v -0.3 0.3 0.3
v -0.3 0.3 0.2
v -0.3 0.4 0.4
v -0.3 0.4 0.3
v -0.2 0 0.5
v -0.2 0 0.4
v -0.2 0 0.3
v -0.2 0 0.2
v -0.2 0.1 0.5
v -0.2 0.1 0.4
v -0.2 0.1 0.3
v -0.2 0.1 0.2
v -0.2 0.3 0.5
v -0.2 0.3 0.4
v -0.2 0.3 0.3
v -0.2 0.3 0.2
v -0.2 0.4 0.5
v -0.2 0.4 0.4
v -0.2 0.4 0.3
v -0.2 0.4 0.2
v -0.2 0.5 0.4
v -0.2 0.5 0.3
v -0.2 0.6 0.4
v -0.2 0.6 0.3
v -0.1 0 0.5
v -0.1 0 0.4
v -0.1 0 0.3
v -0.1 0 0.2
v -0.1 0.1 0.5
v -0.1 0.1 0.4
v -0.1 0.1 0.3
v -0.1 0.1 0.2
v -0.1 0.3 0.5
v -0.1 0.3 0.4
v -0.1 0.3 0.3
v -0.1 0.3 0.2
v -0.1 0.4 0.5
v -0.1 0.4 0.4
v -0.1 0.4 0.3
v -0.1 0.4 0.2
v -0.1 0.5 0.4
v -0.1 0.5 0.3
v -0.1 0.6 0.4
v -0.1 0.6 0.3
v 0 0 0.4
v 0 0 0.3
v 0 0.1 0.5
v 0 0.1 0.4
v 0 0.1 0.3
v 0 0.1 0.2
v 0 0.2 0.5
v 0 0.2 0.4
v 0 0.2 0.2
v 0 0.3 0.5
v 0 0.3 0.4
v 0 0.3 0.3
v 0 0.3 0.2
v 0 0.4 0.4
v 0 0.4 0.3
v -0.3 0.1 0.5
v -0.3 0.2 0.5
v -0.3 0.3 0.5
v -0.2 0 0.5
v -0.2 0.1 0.5
v -0.2 0.3 0.5
v -0.2 0.4 0.5
v -0.1 0 0.5
v -0.1 0.1 0.5
v -0.1 0.2 0.5
v -0.1 0.3 0.5
v -0.1 0.4 0.5
v 0 0.1 0.5
v 0 0.2 0.5
v 0 0.3 0.5
v -0.3 0 0.4
v -0.3 0.1 0.4
v -0.3 0.3 0.4
v -0.3 0.4 0.4
v -0.2 0 0.4
v -0.2 0.1 0.4
v -0.2 0.3 0.4
v -0.2 0.4 0.4
v -0.2 0.5 0.4
v -0.2 0.6 0.4
v -0.1 0 0.4
v -0.1 0.1 0.4
v -0.1 0.3 0.4
v -0.1 0.4 0.4
v -0.1 0.5 0.4
v -0.1 0.6 0.4
v 0 0 0.4
v 0 0.1 0.4
v 0 0.3 0.4
v 0 0.4 0.4
v -0.3 0 0.3
v -0.3 0.1 0.3
v -0.3 0.3 0.3
v -0.3 0.4 0.3
v -0.2 0 0.3
v -0.2 0.1 0.3
v -0.2 0.3 0.3
v -0.2 0.4 0.3
v -0.2 0.5 0.3
v -0.2 0.6 0.3
v -0.1 0 0.3
v -0.1 0.1 0.3
v -0.1 0.3 0.3
v -0.1 0.4 0.3
v -0.1 0.5 0.3
v -0.1 0.6 0.3
v 0 0 0.3
v 0 0.1 0.3
v 0 0.3 0.3
v 0 0.4 0.3
v -0.3 0.1 0.2
v -0.3 0.2 0.2
v -0.3 0.3 0.2
v -0.2 0 0.2
v -0.2 0.1 0.2
v -0.2 0.2 0.2
v -0.2 0.3 0.2
v -0.2 0.4 0.2
v -0.1 0 0.2
v -0.1 0.1 0.2
v -0.1 0.2 0.2
v -0.1 0.3 0.2
v -0.1 0.4 0.2
v 0 0.1 0.2
v 0 0.2 0.2
v 0 0.3 0.2
v -0.2 0 0.5
v -0.1 0 0.5
v -0.3 0 0.4
v -0.2 0 0.4
v -0.1 0 0.4
v 0 0 0.4
v -0.3 0 0.3
v -0.2 0 0.3
v -0.1 0 0.3
v 0 0 0.3
v -0.2 0 0.2
v -0.1 0 0.2
v -0.3 0.1 0.5
v -0.2 0.1 0.5
v -0.1 0.1 0.5
v 0 0.1 0.5
v -0.3 0.1 0.4
v -0.2 0.1 0.4
v -0.1 0.1 0.4
v 0 0.1 0.4
v -0.3 0.1 0.3
v -0.2 0.1 0.3
v -0.1 0.1 0.3
v 0 0.1 0.3
v -0.3 0.1 0.2
v -0.2 0.1 0.2
v -0.1 0.1 0.2
v 0 0.1 0.2
v -0.3 0.3 0.5
v -0.2 0.3 0.5
v -0.1 0.3 0.5
v 0 0.3 0.5
v -0.3 0.3 0.4
v -0.2 0.3 0.4
v -0.1 0.3 0.4
v 0 0.3 0.4
v -0.3 0.3 0.3
v -0.2 0.3 0.3
v -0.1 0.3 0.3
v 0 0.3 0.3
v -0.3 0.3 0.2
v -0.2 0.3 0.2
v -0.1 0.3 0.2
v 0 0.3 0.2
v -0.2 0.4 0.5
v -0.1 0.4 0.5
v -0.3 0.4 0.4
v -0.2 0.4 0.4
v -0.1 0.4 0.4
v 0 0.4 0.4
v -0.3 0.4 0.3
v -0.2 0.4 0.3
v -0.1 0.4 0.3
v 0 0.4 0.3
v -0.2 0.4 0.2
v -0.1 0.4 0.2
v -0.2 0.6 0.4
v -0.1 0.6 0.4
v -0.2 0.6 0.3
v -0.1 0.6 0.3

# faces
f 4/6/1 2/6/1 1/6/1
f 5/6/1 2/6/1 4/6/1
f 7/6/1 4/6/1 3/6/1
f 8/5/1 6/5/1 5/5/1
f 8/6/1 4/6/1 7/6/1
f 8/5/1 5/5/1 4/5/1
f 9/5/1 6/5/1 8/5/1
f 10/5/1 6/5/1 9/5/1
f 11/5/1 8/5/1 7/5/1
f 11/5/1 9/5/1 8/5/1
f 12/5/1 9/5/1 11/5/1
f 13/4/1 10/4/1 9/4/1
f 13/5/1 9/5/1 12/5/1
f 14/4/1 10/4/1 13/4/1
f 15/4/1 13/4/1 12/4/1
f 16/4/1 13/4/1 15/4/1
f 21/6/1 18/6/1 17/6/1
f 22/6/1 18/6/1 21/6/1
f 23/5/1 20/5/1 19/5/1
f 24/5/1 20/5/1 23/5/1
f 29/4/1 26/4/1 25/4/1
f 30/4/1 26/4/1 29/4/1
f 31/4/1 28/4/1 27/4/1
f 32/4/1 28/4/1 31/4/1
f 33/4/1 31/4/1 30/4/1
f 34/4/1 31/4/1 33/4/1
f 35/1/1 34/1/1 33/1/1
f 36/1/1 34/1/1 35/1/1
f 37/6/2 38/6/2 41/6/2
f 41/6/2 38/6/2 42/6/2
f 39/5/2 40/5/2 43/5/2
f 43/5/2 40/5/2 44/5/2
f 45/4/2 46/4/2 49/4/2
f 49/4/2 46/4/2 50/4/2
f 47/4/2 48/4/2 51/4/2
f 51/4/2 48/4/2 52/4/2
f 50/4/2 51/4/2 53/4/2
f 53/4/2 51/4/2 54/4/2
f 53/1/2 54/1/2 55/1/2
f 55/1/2 54/1/2 56/1/2
f 57/6/2 58/6/2 60/6/2
f 60/6/2 58/6/2 61/6/2
f 59/5/2 60/5/2 63/5/2
f 61/6/2 62/6/2 64/6/2
f 63/5/2 60/5/2 64/5/2
f 60/6/2 61/6/2 64/6/2
f 64/6/2 62/6/2 65/6/2
f 63/4/2 64/4/2 66/4/2
f 64/5/2 65/5/2 67/5/2
f 66/4/2 64/4/2 67/4/2
f 67/5/2 65/5/2 68/5/2
f 68/5/2 65/5/2 69/5/2
f 67/4/2 68/4/2 70/4/2
f 70/4/2 68/4/2 71/4/2
f 76/6/3 73/6/3 72/6/3
f 77/5/3 74/5/3 73/5/3
f 79/6/3 76/6/3 75/6/3
f 80/6/3 73/6/3 76/6/3
f 80/6/3 76/6/3 79/6/3
f 81/5/3 77/5/3 73/5/3
f 81/6/3 73/6/3 80/6/3
f 82/4/3 78/4/3 77/4/3
f 82/5/3 77/5/3 81/5/3
f 83/4/3 78/4/3 82/4/3
f 84/5/3 81/5/3 80/5/3
f 85/4/3 82/4/3 81/4/3
f 85/5/3 81/5/3 84/5/3
f 86/4/3 82/4/3 85/4/3
f 91/6/3 88/6/3 87/6/3
f 92/6/3 88/6/3 91/6/3
f 93/4/3 90/4/3 89/4/3
f 94/4/3 90/4/3 93/4/3
f 100/4/3 95/4/3 94/4/3
f 101/1/3 96/1/3 95/1/3
f 101/4/3 95/4/3 100/4/3
f 102/1/3 96/1/3 101/1/3
f 103/6/3 98/6/3 97/6/3
f 104/6/3 98/6/3 103/6/3
f 105/4/3 100/4/3 99/4/3
f 106/4/3 100/4/3 105/4/3
f 107/6/4 108/6/4 111/6/4
f 111/6/4 108/6/4 112/6/4
f 109/4/4 110/4/4 113/4/4
f 113/4/4 110/4/4 114/4/4
f 114/4/4 115/4/4 120/4/4
f 115/1/4 116/1/4 121/1/4
f 120/4/4 115/4/4 121/4/4
f 121/1/4 116/1/4 122/1/4
f 117/6/4 118/6/4 123/6/4
f 123/6/4 118/6/4 124/6/4
f 119/4/4 120/4/4 125/4/4
f 125/4/4 120/4/4 126/4/4
f 127/5/4 128/5/4 131/5/4
f 128/4/4 129/4/4 132/4/4
f 131/5/4 128/5/4 132/5/4
f 132/4/4 129/4/4 133/4/4
f 130/5/4 131/5/4 135/5/4
f 131/5/4 132/5/4 135/5/4
f 132/5/4 133/5/4 135/5/4
f 135/5/4 133/5/4 136/5/4
f 136/5/4 133/5/4 137/5/4
f 133/4/4 134/4/4 138/4/4
f 137/5/4 133/5/4 138/5/4
f 138/4/4 134/4/4 139/4/4
f 136/6/4 137/6/4 140/6/4
f 137/5/4 138/5/4 141/5/4
f 140/6/4 137/6/4 141/6/4
f 141/5/4 138/5/4 142/5/4
f 146/6/5 144/6/5 143/6/5
f 147/6/5 144/6/5 146/6/5
f 149/6/5 146/6/5 145/6/5
f 149/6/5 148/6/5 147/6/5
f 149/6/5 147/6/5 146/6/5
f 150/6/5 148/6/5 149/6/5
f 151/6/5 148/6/5 150/6/5
f 152/6/5 148/6/5 151/6/5
f 153/5/5 151/5/5 150/5/5
f 154/5/5 151/5/5 153/5/5
f 159/6/5 156/6/5 155/6/5
f 160/6/5 156/6/5 159/6/5
f 161/5/5 158/5/5 157/5/5
f 162/5/5 158/5/5 161/5/5
f 167/5/5 164/5/5 163/5/5
f 168/5/5 164/5/5 167/5/5
f 169/6/5 166/6/5 165/6/5
f 170/6/5 166/6/5 169/6/5
f 171/5/6 172/5/6 175/5/6
f 175/5/6 172/5/6 176/5/6
f 173/4/6 174/4/6 177/4/6
f 177/4/6 174/4/6 178/4/6
f 179/4/6 180/4/6 183/4/6
f 183/4/6 180/4/6 184/4/6
f 181/5/6 182/5/6 185/5/6
f 185/5/6 182/5/6 186/5/6
f 187/4/6 188/4/6 190/4/6
f 190/4/6 188/4/6 191/4/6
f 189/4/6 190/4/6 193/4/6
f 193/4/6 190/4/6 194/4/6
f 191/4/6 192/4/6 195/4/6
f 195/4/6 192/4/6 196/4/6
f 194/4/6 195/4/6 197/4/6
f 197/4/6 195/4/6 198/4/6
f 199/1/6 200/1/6 201/1/6
f 201/1/6 200/1/6 202/1/6
