# MagicaVoxel @ Ephtracy

# group
o 

# material
mtllib Log.mtl
usemtl palette

# normals
vn -1 0 0
vn 1 0 0
vn 0 0 1
vn 0 0 -1
vn 0 -1 0
vn 0 1 0

# texcoords
vt 0.369141 0.5
vt 0.537109 0.5
vt 0.654297 0.5

# verts
v -0.7 0 0.5
v -0.7 0 0.3
v -0.7 0.1 0.4
v -0.7 0.1 0.3
v -0.7 0.1 0.2
v -0.7 0.2 0.5
v -0.7 0.2 0.4
v -0.7 0.2 0.3
v -0.7 0.3 0.4
v -0.7 0.3 0.2
v -0.6 0 0.3
v -0.6 0 0.2
v -0.6 0.1 0.3
v -0.6 0.1 0.2
v -0.6 0.2 0.5
v -0.6 0.2 0.4
v -0.6 0.3 0.5
v -0.6 0.3 0.4
v -0.5 0.1 1.2
v -0.5 0.1 0.5
v -0.5 0.1 0.2
v -0.5 0.1 0.1
v -0.5 0.3 0.5
v -0.5 0.3 0.2
v -0.5 0.4 1.2
v -0.5 0.4 0.7
v -0.5 0.4 0.6
v -0.5 0.4 0.1
v -0.5 0.5 0.7
v -0.5 0.5 0.6
v -0.4 0 1.2
v -0.4 0 0.5
v -0.4 0 0.2
v -0.4 0 0.1
v -0.4 0.1 1.2
v -0.4 0.1 0.5
v -0.4 0.1 0.2
v -0.4 0.1 0.1
v -0.4 0.4 1.2
v -0.4 0.4 0.7
v -0.4 0.4 0.6
v -0.4 0.4 0.1
v -0.4 0.5 1.2
v -0.4 0.5 0.7
v -0.4 0.5 0.6
v -0.4 0.5 0.1
v 0.1 0.4 0.9
v 0.1 0.4 0.8
v 0.1 0.5 0.9
v 0.1 0.5 0.8
v -0.1 0 1.2
v -0.1 0 1
v -0.1 0 0.9
v -0.1 0 0.1
v -0.1 0.1 1.2
v -0.1 0.1 1
v -0.1 0.1 0.9
v -0.1 0.1 0.1
v -0.1 0.4 1.2
v -0.1 0.4 0.1
v -0.1 0.5 1.2
v -0.1 0.5 0.1
v 0 0 1
v 0 0 0.9
v 0 0.1 1.2
v 0 0.1 1
v 0 0.1 0.9
v 0 0.1 0.1
v 0 0.2 0.4
v 0 0.2 0.3
v 0 0.3 0.9
v 0 0.3 0.8
v 0 0.3 0.4
v 0 0.3 0.3
v 0 0.4 1.2
v 0 0.4 0.9
v 0 0.4 0.8
v 0 0.4 0.1
v 0.1 0.2 0.4
v 0.1 0.2 0.3
v 0.1 0.3 0.9
v 0.1 0.3 0.8
v 0.1 0.3 0.4
v 0.1 0.3 0.3
v 0.1 0.4 0.9
v 0.1 0.4 0.8
v 0.2 0.4 0.9
v 0.2 0.4 0.8
v 0.2 0.5 0.9
v 0.2 0.5 0.8
v -0.5 0.1 1.2
v -0.5 0.4 1.2
v -0.4 0 1.2
v -0.4 0.1 1.2
v -0.4 0.4 1.2
v -0.4 0.5 1.2
v -0.1 0 1.2
v -0.1 0.1 1.2
v -0.1 0.4 1.2
v -0.1 0.5 1.2
v 0 0.1 1.2
v 0 0.4 1.2
v -0.1 0 1
v -0.1 0.1 1
v 0 0 1
v 0 0.1 1
v 0 0.3 0.9
v 0 0.4 0.9
v 0.1 0.3 0.9
v 0.1 0.4 0.9
v 0.1 0.5 0.9
v 0.2 0.4 0.9
v 0.2 0.5 0.9
v -0.5 0.4 0.7
v -0.5 0.5 0.7
v -0.4 0.4 0.7
v -0.4 0.5 0.7
v -0.7 0 0.5
v -0.7 0.2 0.5
v -0.6 0.2 0.5
v -0.6 0.3 0.5
v -0.5 0.1 0.5
v -0.5 0.3 0.5
v -0.4 0 0.5
v -0.4 0.1 0.5
v -0.7 0.2 0.4
v -0.7 0.3 0.4
v -0.6 0.2 0.4
v -0.6 0.3 0.4
v 0 0.2 0.4
v 0 0.3 0.4
v 0.1 0.2 0.4
v 0.1 0.3 0.4
v -0.1 0 0.9
v -0.1 0.1 0.9
v 0 0 0.9
v 0 0.1 0.9
v 0 0.3 0.8
v 0 0.4 0.8
v 0.1 0.3 0.8
v 0.1 0.4 0.8
v 0.1 0.5 0.8
v 0.2 0.4 0.8
v 0.2 0.5 0.8
v -0.5 0.4 0.6
v -0.5 0.5 0.6
v -0.4 0.4 0.6
v -0.4 0.5 0.6
v -0.7 0 0.3
v -0.7 0.1 0.3
v -0.6 0 0.3
v -0.6 0.1 0.3
v 0 0.2 0.3
v 0 0.3 0.3
v 0.1 0.2 0.3
v 0.1 0.3 0.3
v -0.7 0.1 0.2
v -0.7 0.3 0.2
v -0.6 0 0.2
v -0.6 0.1 0.2
v -0.5 0.1 0.2
v -0.5 0.3 0.2
v -0.4 0 0.2
v -0.4 0.1 0.2
v -0.5 0.1 0.1
v -0.5 0.4 0.1
v -0.4 0 0.1
v -0.4 0.1 0.1
v -0.4 0.4 0.1
v -0.4 0.5 0.1
v -0.1 0 0.1
v -0.1 0.1 0.1
v -0.1 0.4 0.1
v -0.1 0.5 0.1
v 0 0.1 0.1
v 0 0.4 0.1
v -0.4 0 1.2
v -0.1 0 1.2
v -0.1 0 1
v 0 0 1
v -0.1 0 0.9
v 0 0 0.9
v -0.7 0 0.5
v -0.4 0 0.5
v -0.7 0 0.3
v -0.6 0 0.3
v -0.6 0 0.2
v -0.4 0 0.2
v -0.4 0 0.1
v -0.1 0 0.1
v -0.5 0.1 1.2
v -0.4 0.1 1.2
v -0.1 0.1 1.2
v 0 0.1 1.2
v -0.1 0.1 1
v 0 0.1 1
v -0.1 0.1 0.9
v 0 0.1 0.9
v -0.5 0.1 0.5
v -0.4 0.1 0.5
v -0.7 0.1 0.3
v -0.6 0.1 0.3
v -0.7 0.1 0.2
v -0.6 0.1 0.2
v -0.5 0.1 0.2
v -0.4 0.1 0.2
v -0.5 0.1 0.1
v -0.4 0.1 0.1
v -0.1 0.1 0.1
v 0 0.1 0.1
v 0 0.2 0.4
v 0.1 0.2 0.4
v 0 0.2 0.3
v 0.1 0.2 0.3
v 0 0.3 0.9
v 0.1 0.3 0.9
v 0 0.3 0.8
v 0.1 0.3 0.8
v 0.1 0.4 0.9
v 0.2 0.4 0.9
v 0.1 0.4 0.8
v 0.2 0.4 0.8
v -0.7 0.2 0.5
v -0.6 0.2 0.5
v -0.7 0.2 0.4
v -0.6 0.2 0.4
v -0.6 0.3 0.5
v -0.5 0.3 0.5
v -0.7 0.3 0.4
v -0.6 0.3 0.4
v 0 0.3 0.4
v 0.1 0.3 0.4
v 0 0.3 0.3
v 0.1 0.3 0.3
v -0.7 0.3 0.2
v -0.5 0.3 0.2
v -0.5 0.4 1.2
v -0.4 0.4 1.2
v -0.1 0.4 1.2
v 0 0.4 1.2
v 0 0.4 0.9
v 0.1 0.4 0.9
v 0 0.4 0.8
v 0.1 0.4 0.8
v -0.5 0.4 0.7
v -0.4 0.4 0.7
v -0.5 0.4 0.6
v -0.4 0.4 0.6
v -0.5 0.4 0.1
v -0.4 0.4 0.1
v -0.1 0.4 0.1
v 0 0.4 0.1
v -0.4 0.5 1.2
v -0.1 0.5 1.2
v 0.1 0.5 0.9
v 0.2 0.5 0.9
v 0.1 0.5 0.8
v 0.2 0.5 0.8
v -0.5 0.5 0.7
v -0.4 0.5 0.7
v -0.5 0.5 0.6
v -0.4 0.5 0.6
v -0.4 0.5 0.1
v -0.1 0.5 0.1

# faces
f 3/2/1 2/2/1 1/2/1
f 4/2/1 2/2/1 3/2/1
f 6/2/1 3/2/1 1/2/1
f 7/1/1 4/1/1 3/1/1
f 7/2/1 3/2/1 6/2/1
f 8/2/1 5/2/1 4/2/1
f 8/1/1 4/1/1 7/1/1
f 9/2/1 8/2/1 7/2/1
f 10/2/1 5/2/1 8/2/1
f 10/2/1 8/2/1 9/2/1
f 13/2/1 12/2/1 11/2/1
f 14/2/1 12/2/1 13/2/1
f 17/2/1 16/2/1 15/2/1
f 18/2/1 16/2/1 17/2/1
f 23/2/1 20/2/1 19/2/1
f 24/2/1 22/2/1 21/2/1
f 25/2/1 23/2/1 19/2/1
f 25/2/1 24/2/1 23/2/1
f 26/2/1 24/2/1 25/2/1
f 27/2/1 24/2/1 26/2/1
f 28/2/1 22/2/1 24/2/1
f 28/2/1 24/2/1 27/2/1
f 29/3/1 27/3/1 26/3/1
f 30/3/1 27/3/1 29/3/1
f 35/2/1 32/2/1 31/2/1
f 36/2/1 32/2/1 35/2/1
f 37/2/1 34/2/1 33/2/1
f 38/2/1 34/2/1 37/2/1
f 43/2/1 40/2/1 39/2/1
f 44/2/1 40/2/1 43/2/1
f 45/2/1 42/2/1 41/2/1
f 46/2/1 42/2/1 45/2/1
f 49/3/1 48/3/1 47/3/1
f 50/3/1 48/3/1 49/3/1
f 51/2/2 52/2/2 55/2/2
f 55/2/2 52/2/2 56/2/2
f 53/2/2 54/2/2 57/2/2
f 57/2/2 54/2/2 58/2/2
f 59/2/2 60/2/2 61/2/2
f 61/2/2 60/2/2 62/2/2
f 63/3/2 64/3/2 66/3/2
f 66/3/2 64/3/2 67/3/2
f 65/2/2 66/2/2 69/2/2
f 67/2/2 68/2/2 69/2/2
f 66/2/2 67/2/2 69/2/2
f 69/2/2 68/2/2 70/2/2
f 65/2/2 69/2/2 71/2/2
f 71/2/2 69/2/2 72/2/2
f 72/2/2 69/2/2 73/2/2
f 70/2/2 68/2/2 74/2/2
f 65/2/2 71/2/2 75/2/2
f 75/2/2 71/2/2 76/2/2
f 72/2/2 73/2/2 77/2/2
f 73/2/2 74/2/2 77/2/2
f 74/2/2 68/2/2 78/2/2
f 77/2/2 74/2/2 78/2/2
f 79/3/2 80/3/2 83/3/2
f 83/3/2 80/3/2 84/3/2
f 81/2/2 82/2/2 85/2/2
f 85/2/2 82/2/2 86/2/2
f 87/3/2 88/3/2 89/3/2
f 89/3/2 88/3/2 90/3/2
f 94/2/3 92/2/3 91/2/3
f 95/2/3 92/2/3 94/2/3
f 97/2/3 94/2/3 93/2/3
f 98/1/3 95/1/3 94/1/3
f 98/2/3 94/2/3 97/2/3
f 99/2/3 96/2/3 95/2/3
f 99/1/3 95/1/3 98/1/3
f 100/2/3 96/2/3 99/2/3
f 101/2/3 99/2/3 98/2/3
f 102/2/3 99/2/3 101/2/3
f 105/3/3 104/3/3 103/3/3
f 106/3/3 104/3/3 105/3/3
f 109/2/3 108/2/3 107/2/3
f 110/2/3 108/2/3 109/2/3
f 112/3/3 111/3/3 110/3/3
f 113/3/3 111/3/3 112/3/3
f 116/3/3 115/3/3 114/3/3
f 117/3/3 115/3/3 116/3/3
f 120/2/3 119/2/3 118/2/3
f 122/2/3 120/2/3 118/2/3
f 122/2/3 121/2/3 120/2/3
f 123/2/3 121/2/3 122/2/3
f 124/2/3 122/2/3 118/2/3
f 125/2/3 122/2/3 124/2/3
f 128/2/3 127/2/3 126/2/3
f 129/2/3 127/2/3 128/2/3
f 132/3/3 131/3/3 130/3/3
f 133/3/3 131/3/3 132/3/3
f 134/3/4 135/3/4 136/3/4
f 136/3/4 135/3/4 137/3/4
f 138/2/4 139/2/4 140/2/4
f 140/2/4 139/2/4 141/2/4
f 141/3/4 142/3/4 143/3/4
f 143/3/4 142/3/4 144/3/4
f 145/3/4 146/3/4 147/3/4
f 147/3/4 146/3/4 148/3/4
f 149/2/4 150/2/4 151/2/4
f 151/2/4 150/2/4 152/2/4
f 153/3/4 154/3/4 155/3/4
f 155/3/4 154/3/4 156/3/4
f 157/2/4 158/2/4 160/2/4
f 160/2/4 158/2/4 161/2/4
f 159/2/4 160/2/4 161/2/4
f 161/2/4 158/2/4 162/2/4
f 159/2/4 161/2/4 163/2/4
f 163/2/4 161/2/4 164/2/4
f 165/2/4 166/2/4 168/2/4
f 168/2/4 166/2/4 169/2/4
f 167/2/4 168/2/4 171/2/4
f 168/1/4 169/1/4 172/1/4
f 171/2/4 168/2/4 172/2/4
f 169/2/4 170/2/4 173/2/4
f 172/1/4 169/1/4 173/1/4
f 173/2/4 170/2/4 174/2/4
f 172/2/4 173/2/4 175/2/4
f 175/2/4 173/2/4 176/2/4
f 179/2/5 178/2/5 177/2/5
f 181/2/5 179/2/5 177/2/5
f 181/3/5 180/3/5 179/3/5
f 182/3/5 180/3/5 181/3/5
f 184/2/5 181/2/5 177/2/5
f 185/2/5 184/2/5 183/2/5
f 186/2/5 184/2/5 185/2/5
f 187/2/5 184/2/5 186/2/5
f 188/2/5 181/2/5 184/2/5
f 188/2/5 184/2/5 187/2/5
f 189/2/5 181/2/5 188/2/5
f 190/2/5 181/2/5 189/2/5
f 195/2/5 194/2/5 193/2/5
f 196/2/5 194/2/5 195/2/5
f 199/2/5 192/2/5 191/2/5
f 200/2/5 192/2/5 199/2/5
f 203/2/5 202/2/5 201/2/5
f 204/2/5 202/2/5 203/2/5
f 207/2/5 206/2/5 205/2/5
f 208/2/5 206/2/5 207/2/5
f 209/2/5 198/2/5 197/2/5
f 210/2/5 198/2/5 209/2/5
f 213/3/5 212/3/5 211/3/5
f 214/3/5 212/3/5 213/3/5
f 217/2/5 216/2/5 215/2/5
f 218/2/5 216/2/5 217/2/5
f 221/3/5 220/3/5 219/3/5
f 222/3/5 220/3/5 221/3/5
f 223/2/6 224/2/6 225/2/6
f 225/2/6 224/2/6 226/2/6
f 227/2/6 228/2/6 230/2/6
f 231/3/6 232/3/6 233/3/6
f 233/3/6 232/3/6 234/3/6
f 229/2/6 230/2/6 235/2/6
f 230/2/6 228/2/6 236/2/6
f 235/2/6 230/2/6 236/2/6
f 239/2/6 240/2/6 241/2/6
f 239/2/6 241/2/6 243/2/6
f 241/2/6 242/2/6 243/2/6
f 243/2/6 242/2/6 244/2/6
f 237/2/6 238/2/6 245/2/6
f 245/2/6 238/2/6 246/2/6
f 247/2/6 248/2/6 249/2/6
f 249/2/6 248/2/6 250/2/6
f 239/2/6 243/2/6 251/2/6
f 251/2/6 243/2/6 252/2/6
f 255/3/6 256/3/6 257/3/6
f 257/3/6 256/3/6 258/3/6
f 253/2/6 254/2/6 260/2/6
f 259/3/6 260/3/6 261/3/6
f 260/2/6 254/2/6 262/2/6
f 261/3/6 260/3/6 262/3/6
f 262/2/6 254/2/6 263/2/6
f 263/2/6 254/2/6 264/2/6
