# MagicaVoxel @ Ephtracy

# group
o 

# material
mtllib ManaPotion.mtl
usemtl palette

# normals
vn -1 0 0
vn 1 0 0
vn 0 0 1
vn 0 0 -1
vn 0 -1 0
vn 0 1 0

# texcoords
vt 0.232422 0.5
vt 0.775391 0.5
vt 0.779297 0.5
vt 0.798828 0.5
vt 0.849609 0.5

# verts
v -0.3 0 0.4
v -0.3 0 0.3
v -0.3 0.1 0.5
v -0.3 0.1 0.4
v -0.3 0.1 0.3
v -0.3 0.1 0.2
v -0.3 0.2 0.5
v -0.3 0.2 0.4
v -0.3 0.2 0.3
v -0.3 0.2 0.2
v -0.3 0.3 0.5
v -0.3 0.3 0.4
v -0.3 0.3 0.3
v -0.3 0.3 0.2
v -0.3 0.4 0.4
v -0.3 0.4 0.3
v -0.2 0 0.5
v -0.2 0 0.4
v -0.2 0 0.3
v -0.2 0 0.2
v -0.2 0.1 0.5
v -0.2 0.1 0.4
v -0.2 0.1 0.3
v -0.2 0.1 0.2
v -0.2 0.3 0.5
v -0.2 0.3 0.4
v -0.2 0.3 0.3
v -0.2 0.3 0.2
v -0.2 0.4 0.5
v -0.2 0.4 0.4
v -0.2 0.4 0.3
v -0.2 0.4 0.2
v -0.2 0.5 0.4
v -0.2 0.5 0.3
v -0.2 0.6 0.4
v -0.2 0.6 0.3
v -0.1 0 0.5
v -0.1 0 0.4
v -0.1 0 0.3
v -0.1 0 0.2
v -0.1 0.1 0.5
v -0.1 0.1 0.4
v -0.1 0.1 0.3
v -0.1 0.1 0.2
v -0.1 0.3 0.5
v -0.1 0.3 0.4
v -0.1 0.3 0.3
v -0.1 0.3 0.2
v -0.1 0.4 0.5
v -0.1 0.4 0.4
v -0.1 0.4 0.3
v -0.1 0.4 0.2
v -0.1 0.5 0.4
v -0.1 0.5 0.3
v -0.1 0.6 0.4
v -0.1 0.6 0.3
v 0 0 0.4
v 0 0 0.3
v 0 0.1 0.5
v 0 0.1 0.4
v 0 0.1 0.3
v 0 0.1 0.2
v 0 0.2 0.5
v 0 0.2 0.4
v 0 0.2 0.2
v 0 0.3 0.5
v 0 0.3 0.4
v 0 0.3 0.3
v 0 0.3 0.2
v 0 0.4 0.4
v 0 0.4 0.3
v -0.3 0.1 0.5
v -0.3 0.2 0.5
v -0.3 0.3 0.5
v -0.2 0 0.5
v -0.2 0.1 0.5
v -0.2 0.3 0.5
v -0.2 0.4 0.5
v -0.1 0 0.5
v -0.1 0.1 0.5
v -0.1 0.2 0.5
v -0.1 0.3 0.5
v -0.1 0.4 0.5
v 0 0.1 0.5
v 0 0.2 0.5
v 0 0.3 0.5
v -0.3 0 0.4
v -0.3 0.1 0.4
v -0.3 0.3 0.4
v -0.3 0.4 0.4
v -0.2 0 0.4
v -0.2 0.1 0.4
v -0.2 0.3 0.4
v -0.2 0.4 0.4
v -0.2 0.5 0.4
v -0.2 0.6 0.4
v -0.1 0 0.4
v -0.1 0.1 0.4
v -0.1 0.3 0.4
v -0.1 0.4 0.4
v -0.1 0.5 0.4
v -0.1 0.6 0.4
v 0 0 0.4
v 0 0.1 0.4
v 0 0.3 0.4
v 0 0.4 0.4
v -0.3 0 0.3
v -0.3 0.1 0.3
v -0.3 0.3 0.3
v -0.3 0.4 0.3
v -0.2 0 0.3
v -0.2 0.1 0.3
v -0.2 0.3 0.3
v -0.2 0.4 0.3
v -0.2 0.5 0.3
v -0.2 0.6 0.3
v -0.1 0 0.3
v -0.1 0.1 0.3
v -0.1 0.3 0.3
v -0.1 0.4 0.3
v -0.1 0.5 0.3
v -0.1 0.6 0.3
v 0 0 0.3
v 0 0.1 0.3
v 0 0.3 0.3
v 0 0.4 0.3
v -0.3 0.1 0.2
v -0.3 0.2 0.2
v -0.3 0.3 0.2
v -0.2 0 0.2
v -0.2 0.1 0.2
v -0.2 0.2 0.2
v -0.2 0.3 0.2
v -0.2 0.4 0.2
v -0.1 0 0.2
v -0.1 0.1 0.2
v -0.1 0.2 0.2
v -0.1 0.3 0.2
v -0.1 0.4 0.2
v 0 0.1 0.2
v 0 0.2 0.2
v 0 0.3 0.2
v -0.2 0 0.5
v -0.1 0 0.5
v -0.3 0 0.4
v -0.2 0 0.4
v -0.1 0 0.4
v 0 0 0.4
v -0.3 0 0.3
v -0.2 0 0.3
v -0.1 0 0.3
v 0 0 0.3
v -0.2 0 0.2
v -0.1 0 0.2
v -0.3 0.1 0.5
v -0.2 0.1 0.5
v -0.1 0.1 0.5
v 0 0.1 0.5
v -0.3 0.1 0.4
v -0.2 0.1 0.4
v -0.1 0.1 0.4
v 0 0.1 0.4
v -0.3 0.1 0.3
v -0.2 0.1 0.3
v -0.1 0.1 0.3
v 0 0.1 0.3
v -0.3 0.1 0.2
v -0.2 0.1 0.2
v -0.1 0.1 0.2
v 0 0.1 0.2
v -0.3 0.3 0.5
v -0.2 0.3 0.5
v -0.1 0.3 0.5
v 0 0.3 0.5
v -0.3 0.3 0.4
v -0.2 0.3 0.4
v -0.1 0.3 0.4
v 0 0.3 0.4
v -0.3 0.3 0.3
v -0.2 0.3 0.3
v -0.1 0.3 0.3
v 0 0.3 0.3
v -0.3 0.3 0.2
v -0.2 0.3 0.2
v -0.1 0.3 0.2
v 0 0.3 0.2
v -0.2 0.4 0.5
v -0.1 0.4 0.5
v -0.3 0.4 0.4
v -0.2 0.4 0.4
v -0.1 0.4 0.4
v 0 0.4 0.4
v -0.3 0.4 0.3
v -0.2 0.4 0.3
v -0.1 0.4 0.3
v 0 0.4 0.3
v -0.2 0.4 0.2
v -0.1 0.4 0.2
v -0.2 0.6 0.4
v -0.1 0.6 0.4
v -0.2 0.6 0.3
v -0.1 0.6 0.3

# faces
f 4/4/1 2/4/1 1/4/1
f 5/4/1 2/4/1 4/4/1
f 7/4/1 4/4/1 3/4/1
f 8/3/1 6/3/1 5/3/1
f 8/4/1 4/4/1 7/4/1
f 8/3/1 5/3/1 4/3/1
f 9/3/1 6/3/1 8/3/1
f 10/3/1 6/3/1 9/3/1
f 11/3/1 8/3/1 7/3/1
f 11/3/1 9/3/1 8/3/1
f 12/3/1 9/3/1 11/3/1
f 13/2/1 10/2/1 9/2/1
f 13/3/1 9/3/1 12/3/1
f 14/2/1 10/2/1 13/2/1
f 15/2/1 13/2/1 12/2/1
f 16/2/1 13/2/1 15/2/1
f 21/4/1 18/4/1 17/4/1
f 22/4/1 18/4/1 21/4/1
f 23/3/1 20/3/1 19/3/1
f 24/3/1 20/3/1 23/3/1
f 29/2/1 26/2/1 25/2/1
f 30/2/1 26/2/1 29/2/1
f 31/2/1 28/2/1 27/2/1
f 32/2/1 28/2/1 31/2/1
f 33/2/1 31/2/1 30/2/1
f 34/2/1 31/2/1 33/2/1
f 35/1/1 34/1/1 33/1/1
f 36/1/1 34/1/1 35/1/1
f 37/4/2 38/4/2 41/4/2
f 41/4/2 38/4/2 42/4/2
f 39/3/2 40/3/2 43/3/2
f 43/3/2 40/3/2 44/3/2
f 45/2/2 46/2/2 49/2/2
f 49/2/2 46/2/2 50/2/2
f 47/2/2 48/2/2 51/2/2
f 51/2/2 48/2/2 52/2/2
f 50/2/2 51/2/2 53/2/2
f 53/2/2 51/2/2 54/2/2
f 53/1/2 54/1/2 55/1/2
f 55/1/2 54/1/2 56/1/2
f 57/4/2 58/4/2 60/4/2
f 60/4/2 58/4/2 61/4/2
f 59/3/2 60/3/2 63/3/2
f 61/4/2 62/4/2 64/4/2
f 63/3/2 60/3/2 64/3/2
f 60/4/2 61/4/2 64/4/2
f 64/4/2 62/4/2 65/4/2
f 63/2/2 64/2/2 66/2/2
f 64/3/2 65/3/2 67/3/2
f 66/2/2 64/2/2 67/2/2
f 67/3/2 65/3/2 68/3/2
f 68/3/2 65/3/2 69/3/2
f 67/2/2 68/2/2 70/2/2
f 70/2/2 68/2/2 71/2/2
f 76/4/3 73/4/3 72/4/3
f 77/3/3 74/3/3 73/3/3
f 79/4/3 76/4/3 75/4/3
f 80/4/3 73/4/3 76/4/3
f 80/4/3 76/4/3 79/4/3
f 81/3/3 77/3/3 73/3/3
f 81/4/3 73/4/3 80/4/3
f 82/2/3 78/2/3 77/2/3
f 82/3/3 77/3/3 81/3/3
f 83/2/3 78/2/3 82/2/3
f 84/3/3 81/3/3 80/3/3
f 85/2/3 82/2/3 81/2/3
f 85/3/3 81/3/3 84/3/3
f 86/2/3 82/2/3 85/2/3
f 91/4/3 88/4/3 87/4/3
f 92/4/3 88/4/3 91/4/3
f 93/2/3 90/2/3 89/2/3
f 94/2/3 90/2/3 93/2/3
f 100/2/3 95/2/3 94/2/3
f 101/1/3 96/1/3 95/1/3
f 101/2/3 95/2/3 100/2/3
f 102/1/3 96/1/3 101/1/3
f 103/4/3 98/4/3 97/4/3
f 104/4/3 98/4/3 103/4/3
f 105/2/3 100/2/3 99/2/3
f 106/2/3 100/2/3 105/2/3
f 107/4/4 108/4/4 111/4/4
f 111/4/4 108/4/4 112/4/4
f 109/2/4 110/2/4 113/2/4
f 113/2/4 110/2/4 114/2/4
f 114/2/4 115/2/4 120/2/4
f 115/1/4 116/1/4 121/1/4
f 120/2/4 115/2/4 121/2/4
f 121/1/4 116/1/4 122/1/4
f 117/4/4 118/4/4 123/4/4
f 123/4/4 118/4/4 124/4/4
f 119/2/4 120/2/4 125/2/4
f 125/2/4 120/2/4 126/2/4
f 127/3/4 128/3/4 131/3/4
f 128/2/4 129/2/4 132/2/4
f 131/3/4 128/3/4 132/3/4
f 132/2/4 129/2/4 133/2/4
f 130/3/4 131/3/4 135/3/4
f 131/3/4 132/3/4 135/3/4
f 132/3/4 133/3/4 135/3/4
f 135/3/4 133/3/4 136/3/4
f 136/3/4 133/3/4 137/3/4
f 133/2/4 134/2/4 138/2/4
f 137/3/4 133/3/4 138/3/4
f 138/2/4 134/2/4 139/2/4
f 136/4/4 137/4/4 140/4/4
f 137/3/4 138/3/4 141/3/4
f 140/4/4 137/4/4 141/4/4
f 141/3/4 138/3/4 142/3/4
f 146/4/5 144/4/5 143/4/5
f 147/4/5 144/4/5 146/4/5
f 149/4/5 146/4/5 145/4/5
f 149/4/5 148/4/5 147/4/5
f 149/4/5 147/4/5 146/4/5
f 150/4/5 148/4/5 149/4/5
f 151/4/5 148/4/5 150/4/5
f 152/4/5 148/4/5 151/4/5
f 153/3/5 151/3/5 150/3/5
f 154/3/5 151/3/5 153/3/5
f 159/4/5 156/4/5 155/4/5
f 160/4/5 156/4/5 159/4/5
f 161/3/5 158/3/5 157/3/5
f 162/3/5 158/3/5 161/3/5
f 167/3/5 164/3/5 163/3/5
f 168/3/5 164/3/5 167/3/5
f 169/4/5 166/4/5 165/4/5
f 170/4/5 166/4/5 169/4/5
f 171/3/6 172/3/6 175/3/6
f 175/3/6 172/3/6 176/3/6
f 173/2/6 174/2/6 177/2/6
f 177/2/6 174/2/6 178/2/6
f 179/2/6 180/2/6 183/2/6
f 183/2/6 180/2/6 184/2/6
f 181/3/6 182/3/6 185/3/6
f 185/3/6 182/3/6 186/3/6
f 187/2/6 188/2/6 190/2/6
f 190/2/6 188/2/6 191/2/6
f 189/2/6 190/2/6 193/2/6
f 193/2/6 190/2/6 194/2/6
f 191/2/6 192/2/6 195/2/6
f 195/2/6 192/2/6 196/2/6
f 194/2/6 195/2/6 197/2/6
f 197/2/6 195/2/6 198/2/6
f 199/1/6 200/1/6 201/1/6
f 201/1/6 200/1/6 202/1/6
