# MagicaVoxel @ Ephtracy

# group
o 

# material
mtllib ArmourGoblin Torso.mtl
usemtl palette

# normals
vn -1 0 0
vn 1 0 0
vn 0 0 1
vn 0 0 -1
vn 0 -1 0
vn 0 1 0

# texcoords
vt 0.560547 0.5
vt 0.794922 0.5
vt 0.873047 0.5
vt 0.904297 0.5
vt 0.974609 0.5
vt 0.982422 0.5
vt 0.986328 0.5
vt 0.990234 0.5

# verts
v -0.5 0.4 0.2
v -0.5 0.4 0.1
v -0.5 0.4 -0.1
v -0.5 0.4 -0.2
v -0.5 0.5 0.2
v -0.5 0.5 0.1
v -0.5 0.5 -0.1
v -0.5 0.5 -0.2
v -0.5 0.6 0.1
v -0.5 0.6 -0.1
v -0.4 0.4 0.1
v -0.4 0.4 0
v -0.4 0.4 -0.1
v -0.4 0.5 0.2
v -0.4 0.5 0.1
v -0.4 0.5 0
v -0.4 0.5 -0.1
v -0.4 0.5 -0.2
v -0.4 0.6 0.2
v -0.4 0.6 0.1
v -0.4 0.6 -0.1
v -0.4 0.6 -0.2
v -0.4 0.7 0.1
v -0.4 0.7 -0.1
v -0.3 0 0.2
v -0.3 0 0
v -0.3 0 -0.1
v -0.3 0 -0.2
v -0.3 0.1 0.2
v -0.3 0.1 0
v -0.3 0.1 -0.1
v -0.3 0.1 -0.2
v -0.3 0.2 0.2
v -0.3 0.2 0.1
v -0.3 0.2 0
v -0.3 0.2 -0.2
v -0.3 0.3 0.2
v -0.3 0.3 0.1
v -0.3 0.3 0
v -0.3 0.4 0.2
v -0.3 0.4 0.1
v -0.3 0.4 0
v -0.3 0.4 -0.1
v -0.3 0.4 -0.2
v -0.3 0.6 0.2
v -0.3 0.6 0.1
v -0.3 0.6 -0.1
v -0.3 0.6 -0.2
v -0.3 0.7 0.2
v -0.3 0.7 0.1
v -0.3 0.7 -0.1
v -0.3 0.7 -0.2
v -0.3 0.8 0.1
v -0.3 0.8 -0.1
v 0.1 0.7 0.1
v 0.1 0.7 0
v 0.1 0.7 -0.1
v 0.1 0.8 0.1
v 0.1 0.8 -0.1
v 0.3 0 0.2
v 0.3 0 0.1
v 0.3 0 -0.1
v 0.3 0 -0.2
v 0.3 0.1 0.2
v 0.3 0.1 0.1
v 0.3 0.1 -0.1
v 0.3 0.1 -0.2
v 0.3 0.2 0.2
v 0.3 0.2 0.1
v 0.3 0.2 0
v 0.3 0.2 -0.2
v 0.3 0.3 0.1
v 0.3 0.3 0
v 0.3 0.4 0.2
v 0.3 0.4 0.1
v 0.3 0.4 0
v 0.3 0.4 -0.1
v 0.3 0.4 -0.2
v 0.3 0.6 0.2
v 0.3 0.6 0.1
v 0.3 0.6 -0.1
v 0.3 0.6 -0.2
v 0.3 0.7 0.2
v 0.3 0.7 0.1
v 0.3 0.7 -0.1
v 0.3 0.7 -0.2
v 0.4 0.4 0.2
v 0.4 0.4 0.1
v 0.4 0.4 0
v 0.4 0.4 -0.1
v 0.4 0.4 -0.2
v 0.4 0.5 0.2
v 0.4 0.5 0.1
v 0.4 0.5 0
v 0.4 0.5 -0.1
v 0.4 0.6 0.2
v 0.4 0.6 0.1
v 0.4 0.6 0
v 0.4 0.6 -0.1
v 0.4 0.6 -0.2
v 0.4 0.7 0.1
v 0.4 0.7 -0.1
v -0.5 0.4 0.2
v -0.5 0.5 0.2
v -0.4 0.4 0.2
v -0.4 0.5 0.2
v -0.4 0.6 0.2
v -0.3 0 0.2
v -0.3 0.1 0.2
v -0.3 0.2 0.2
v -0.3 0.3 0.2
v -0.3 0.4 0.2
v -0.3 0.6 0.2
v -0.3 0.7 0.2
v -0.2 0.3 0.2
v -0.2 0.4 0.2
v -0.2 0.5 0.2
v -0.2 0.6 0.2
v -0.1 0.1 0.2
v -0.1 0.2 0.2
v -0.1 0.3 0.2
v -0.1 0.4 0.2
v -0.1 0.5 0.2
v -0.1 0.6 0.2
v -0.1 0.7 0.2
v 0 0.2 0.2
v 0 0.3 0.2
v 0 0.4 0.2
v 0 0.5 0.2
v 0 0.6 0.2
v 0 0.7 0.2
v 0.1 0.1 0.2
v 0.1 0.2 0.2
v 0.1 0.3 0.2
v 0.1 0.4 0.2
v 0.1 0.5 0.2
v 0.1 0.6 0.2
v 0.1 0.7 0.2
v 0.2 0 0.2
v 0.2 0.1 0.2
v 0.2 0.3 0.2
v 0.2 0.4 0.2
v 0.2 0.6 0.2
v 0.2 0.7 0.2
v 0.3 0 0.2
v 0.3 0.1 0.2
v 0.3 0.2 0.2
v 0.3 0.4 0.2
v 0.3 0.5 0.2
v 0.3 0.6 0.2
v 0.3 0.7 0.2
v 0.4 0.4 0.2
v 0.4 0.5 0.2
v 0.4 0.6 0.2
v -0.5 0.5 0.1
v -0.5 0.6 0.1
v -0.4 0.5 0.1
v -0.4 0.6 0.1
v -0.4 0.7 0.1
v -0.3 0.6 0.1
v -0.3 0.7 0.1
v -0.3 0.8 0.1
v -0.1 0.7 0.1
v -0.1 0.8 0.1
v 0 0.7 0.1
v 0.1 0.7 0.1
v 0.1 0.8 0.1
v 0.3 0.6 0.1
v 0.3 0.7 0.1
v 0.4 0.6 0.1
v 0.4 0.7 0.1
v -0.5 0.4 -0.1
v -0.5 0.5 -0.1
v -0.4 0.4 -0.1
v -0.4 0.5 -0.1
v -0.5 0.4 0.1
v -0.5 0.5 0.1
v -0.4 0.4 0.1
v -0.4 0.5 0.1
v -0.5 0.5 -0.1
v -0.5 0.6 -0.1
v -0.4 0.5 -0.1
v -0.4 0.6 -0.1
v -0.4 0.7 -0.1
v -0.3 0.6 -0.1
v -0.3 0.7 -0.1
v -0.3 0.8 -0.1
v -0.1 0.7 -0.1
v -0.1 0.8 -0.1
v 0 0.7 -0.1
v 0.1 0.7 -0.1
v 0.1 0.8 -0.1
v 0.3 0.6 -0.1
v 0.3 0.7 -0.1
v 0.4 0.6 -0.1
v 0.4 0.7 -0.1
v -0.5 0.4 -0.2
v -0.5 0.5 -0.2
v -0.4 0.4 -0.2
v -0.4 0.5 -0.2
v -0.4 0.6 -0.2
v -0.3 0 -0.2
v -0.3 0.1 -0.2
v -0.3 0.2 -0.2
v -0.3 0.4 -0.2
v -0.3 0.6 -0.2
v -0.3 0.7 -0.2
v -0.2 0.4 -0.2
v -0.2 0.5 -0.2
v -0.2 0.6 -0.2
v -0.1 0.3 -0.2
v -0.1 0.4 -0.2
v -0.1 0.5 -0.2
v -0.1 0.6 -0.2
v -0.1 0.7 -0.2
v 0 0 -0.2
v 0 0.1 -0.2
v 0 0.2 -0.2
v 0 0.3 -0.2
v 0 0.4 -0.2
v 0 0.5 -0.2
v 0 0.6 -0.2
v 0 0.7 -0.2
v 0.1 0 -0.2
v 0.1 0.1 -0.2
v 0.1 0.2 -0.2
v 0.1 0.3 -0.2
v 0.1 0.4 -0.2
v 0.2 0 -0.2
v 0.2 0.1 -0.2
v 0.2 0.4 -0.2
v 0.2 0.5 -0.2
v 0.2 0.6 -0.2
v 0.3 0 -0.2
v 0.3 0.1 -0.2
v 0.3 0.2 -0.2
v 0.3 0.4 -0.2
v 0.3 0.5 -0.2
v 0.3 0.6 -0.2
v 0.3 0.7 -0.2
v 0.4 0.4 -0.2
v 0.4 0.6 -0.2
v -0.3 0 0.2
v 0.2 0 0.2
v 0.3 0 0.2
v -0.2 0 0.1
v -0.1 0 0.1
v 0 0 0.1
v 0.1 0 0.1
v 0.2 0 0.1
v 0.3 0 0.1
v -0.3 0 0
v -0.2 0 0
v -0.1 0 0
v 0 0 0
v 0.1 0 0
v 0.2 0 0
v -0.3 0 -0.1
v -0.2 0 -0.1
v -0.1 0 -0.1
v 0 0 -0.1
v 0.1 0 -0.1
v 0.2 0 -0.1
v 0.3 0 -0.1
v -0.3 0 -0.2
v 0 0 -0.2
v 0.1 0 -0.2
v 0.2 0 -0.2
v 0.3 0 -0.2
v -0.5 0.4 0.2
v -0.4 0.4 0.2
v -0.3 0.4 0.2
v 0.3 0.4 0.2
v 0.4 0.4 0.2
v -0.5 0.4 0.1
v -0.4 0.4 0.1
v -0.3 0.4 0.1
v 0.3 0.4 0.1
v 0.4 0.4 0.1
v -0.4 0.4 0
v -0.3 0.4 0
v 0.3 0.4 0
v 0.4 0.4 0
v -0.5 0.4 -0.1
v -0.4 0.4 -0.1
v -0.3 0.4 -0.1
v 0.3 0.4 -0.1
v 0.4 0.4 -0.1
v -0.5 0.4 -0.2
v -0.4 0.4 -0.2
v -0.3 0.4 -0.2
v 0.3 0.4 -0.2
v 0.4 0.4 -0.2
v -0.5 0.5 0.1
v -0.4 0.5 0.1
v -0.4 0.5 0
v -0.5 0.5 -0.1
v -0.4 0.5 -0.1
v -0.5 0.5 0.2
v -0.4 0.5 0.2
v -0.5 0.5 0.1
v -0.4 0.5 0.1
v -0.5 0.5 -0.1
v -0.4 0.5 -0.1
v -0.5 0.5 -0.2
v -0.4 0.5 -0.2
v -0.4 0.6 0.2
v -0.3 0.6 0.2
v 0.3 0.6 0.2
v 0.4 0.6 0.2
v -0.5 0.6 0.1
v -0.4 0.6 0.1
v -0.3 0.6 0.1
v 0.3 0.6 0.1
v 0.4 0.6 0.1
v -0.5 0.6 -0.1
v -0.4 0.6 -0.1
v -0.3 0.6 -0.1
v 0.3 0.6 -0.1
v 0.4 0.6 -0.1
v -0.4 0.6 -0.2
v -0.3 0.6 -0.2
v 0.3 0.6 -0.2
v 0.4 0.6 -0.2
v -0.3 0.7 0.2
v -0.1 0.7 0.2
v 0 0.7 0.2
v 0.1 0.7 0.2
v 0.2 0.7 0.2
v 0.3 0.7 0.2
v -0.4 0.7 0.1
v -0.3 0.7 0.1
v -0.1 0.7 0.1
v 0 0.7 0.1
v 0.1 0.7 0.1
v 0.2 0.7 0.1
v 0.3 0.7 0.1
v 0.4 0.7 0.1
v 0.1 0.7 0
v 0.2 0.7 0
v -0.4 0.7 -0.1
v -0.3 0.7 -0.1
v -0.1 0.7 -0.1
v 0 0.7 -0.1
v 0.1 0.7 -0.1
v 0.2 0.7 -0.1
v 0.3 0.7 -0.1
v 0.4 0.7 -0.1
v -0.3 0.7 -0.2
v -0.1 0.7 -0.2
v 0 0.7 -0.2
v 0.3 0.7 -0.2
v -0.3 0.8 0.1
v -0.1 0.8 0.1
v 0.1 0.8 0.1
v -0.3 0.8 -0.1
v -0.1 0.8 -0.1
v 0.1 0.8 -0.1

# faces
f 5/6/1 2/6/1 1/6/1
f 6/6/1 2/6/1 5/6/1
f 7/6/1 4/6/1 3/6/1
f 8/6/1 4/6/1 7/6/1
f 9/6/1 7/6/1 6/6/1
f 10/6/1 7/6/1 9/6/1
f 15/8/1 12/8/1 11/8/1
f 16/7/1 13/7/1 12/7/1
f 16/8/1 12/8/1 15/8/1
f 17/7/1 13/7/1 16/7/1
f 19/6/1 15/6/1 14/6/1
f 20/6/1 15/6/1 19/6/1
f 21/6/1 18/6/1 17/6/1
f 22/6/1 18/6/1 21/6/1
f 23/6/1 21/6/1 20/6/1
f 24/6/1 21/6/1 23/6/1
f 29/1/1 26/1/1 25/1/1
f 30/8/1 27/8/1 26/8/1
f 30/1/1 26/1/1 29/1/1
f 31/1/1 28/1/1 27/1/1
f 31/8/1 27/8/1 30/8/1
f 32/1/1 28/1/1 31/1/1
f 33/3/1 30/3/1 29/3/1
f 33/3/1 31/3/1 30/3/1
f 33/3/1 32/3/1 31/3/1
f 34/3/1 32/3/1 33/3/1
f 35/3/1 32/3/1 34/3/1
f 36/3/1 32/3/1 35/3/1
f 37/1/1 34/1/1 33/1/1
f 38/7/1 35/7/1 34/7/1
f 38/1/1 34/1/1 37/1/1
f 39/1/1 36/1/1 35/1/1
f 39/7/1 35/7/1 38/7/1
f 40/7/1 38/7/1 37/7/1
f 41/8/1 39/8/1 38/8/1
f 41/7/1 38/7/1 40/7/1
f 42/1/1 36/1/1 39/1/1
f 42/8/1 39/8/1 41/8/1
f 43/1/1 36/1/1 42/1/1
f 44/1/1 36/1/1 43/1/1
f 49/6/1 46/6/1 45/6/1
f 50/6/1 46/6/1 49/6/1
f 51/6/1 48/6/1 47/6/1
f 52/6/1 48/6/1 51/6/1
f 53/6/1 51/6/1 50/6/1
f 54/6/1 51/6/1 53/6/1
f 55/4/2 56/4/2 58/4/2
f 56/4/2 57/4/2 58/4/2
f 58/4/2 57/4/2 59/4/2
f 60/8/2 61/8/2 64/8/2
f 61/1/2 62/1/2 65/1/2
f 64/8/2 61/8/2 65/8/2
f 62/8/2 63/8/2 66/8/2
f 65/1/2 62/1/2 66/1/2
f 66/8/2 63/8/2 67/8/2
f 64/3/2 65/3/2 68/3/2
f 65/3/2 66/3/2 68/3/2
f 66/3/2 67/3/2 68/3/2
f 68/3/2 67/3/2 69/3/2
f 69/3/2 67/3/2 70/3/2
f 70/3/2 67/3/2 71/3/2
f 68/1/2 69/1/2 72/1/2
f 69/7/2 70/7/2 72/7/2
f 70/1/2 71/1/2 73/1/2
f 72/7/2 70/7/2 73/7/2
f 68/1/2 72/1/2 74/1/2
f 72/1/2 73/1/2 74/1/2
f 74/1/2 73/1/2 75/1/2
f 73/1/2 71/1/2 76/1/2
f 75/1/2 73/1/2 76/1/2
f 76/1/2 71/1/2 77/1/2
f 77/1/2 71/1/2 78/1/2
f 79/1/2 80/1/2 83/1/2
f 83/1/2 80/1/2 84/1/2
f 81/1/2 82/1/2 85/1/2
f 85/1/2 82/1/2 86/1/2
f 87/1/2 88/1/2 92/1/2
f 88/8/2 89/8/2 93/8/2
f 92/1/2 88/1/2 93/1/2
f 89/7/2 90/7/2 94/7/2
f 93/8/2 89/8/2 94/8/2
f 90/1/2 91/1/2 95/1/2
f 94/7/2 90/7/2 95/7/2
f 92/8/2 93/8/2 96/8/2
f 93/7/2 94/7/2 97/7/2
f 96/8/2 93/8/2 97/8/2
f 94/8/2 95/8/2 98/8/2
f 97/7/2 94/7/2 98/7/2
f 95/1/2 91/1/2 99/1/2
f 98/8/2 95/8/2 99/8/2
f 99/1/2 91/1/2 100/1/2
f 97/1/2 98/1/2 101/1/2
f 98/1/2 99/1/2 101/1/2
f 101/1/2 99/1/2 102/1/2
f 105/6/3 104/6/3 103/6/3
f 106/6/3 104/6/3 105/6/3
f 112/1/3 106/1/3 105/1/3
f 113/6/3 107/6/3 106/6/3
f 115/1/3 111/1/3 110/1/3
f 115/7/3 112/7/3 111/7/3
f 116/1/3 106/1/3 112/1/3
f 116/7/3 112/7/3 115/7/3
f 117/6/3 114/6/3 113/6/3
f 117/1/3 106/1/3 116/1/3
f 117/6/3 113/6/3 106/6/3
f 118/6/3 114/6/3 117/6/3
f 119/1/3 109/1/3 108/1/3
f 119/3/3 110/3/3 109/3/3
f 120/1/3 116/1/3 115/1/3
f 120/3/3 110/3/3 119/3/3
f 120/1/3 115/1/3 110/1/3
f 121/1/3 116/1/3 120/1/3
f 122/3/3 117/3/3 116/3/3
f 122/1/3 116/1/3 121/1/3
f 122/3/3 118/3/3 117/3/3
f 123/3/3 118/3/3 122/3/3
f 124/6/3 114/6/3 118/6/3
f 124/3/3 118/3/3 123/3/3
f 125/6/3 114/6/3 124/6/3
f 126/7/3 121/7/3 120/7/3
f 126/5/3 120/5/3 119/5/3
f 127/3/3 122/3/3 121/3/3
f 127/7/3 121/7/3 126/7/3
f 128/1/3 123/1/3 122/1/3
f 128/3/3 122/3/3 127/3/3
f 129/8/3 124/8/3 123/8/3
f 129/1/3 123/1/3 128/1/3
f 130/7/3 125/7/3 124/7/3
f 130/8/3 124/8/3 129/8/3
f 131/7/3 125/7/3 130/7/3
f 132/1/3 119/1/3 108/1/3
f 132/5/3 126/5/3 119/5/3
f 133/3/3 127/3/3 126/3/3
f 133/5/3 126/5/3 132/5/3
f 134/1/3 129/1/3 128/1/3
f 134/3/3 127/3/3 133/3/3
f 134/1/3 128/1/3 127/1/3
f 135/1/3 129/1/3 134/1/3
f 136/7/3 130/7/3 129/7/3
f 136/1/3 129/1/3 135/1/3
f 137/8/3 131/8/3 130/8/3
f 137/7/3 130/7/3 136/7/3
f 138/8/3 131/8/3 137/8/3
f 139/1/3 132/1/3 108/1/3
f 140/3/3 133/3/3 132/3/3
f 140/1/3 132/1/3 139/1/3
f 141/8/3 135/8/3 134/8/3
f 141/1/3 134/1/3 133/1/3
f 142/1/3 136/1/3 135/1/3
f 142/8/3 135/8/3 141/8/3
f 142/1/3 137/1/3 136/1/3
f 143/7/3 138/7/3 137/7/3
f 143/1/3 137/1/3 142/1/3
f 144/7/3 138/7/3 143/7/3
f 145/8/3 140/8/3 139/8/3
f 146/3/3 133/3/3 140/3/3
f 146/8/3 140/8/3 145/8/3
f 147/1/3 141/1/3 133/1/3
f 147/3/3 133/3/3 146/3/3
f 147/1/3 142/1/3 141/1/3
f 147/1/3 144/1/3 143/1/3
f 147/1/3 143/1/3 142/1/3
f 148/1/3 144/1/3 147/1/3
f 149/1/3 144/1/3 148/1/3
f 150/1/3 144/1/3 149/1/3
f 151/1/3 144/1/3 150/1/3
f 152/1/3 149/1/3 148/1/3
f 153/8/3 150/8/3 149/8/3
f 153/1/3 149/1/3 152/1/3
f 154/8/3 150/8/3 153/8/3
f 157/6/3 156/6/3 155/6/3
f 158/6/3 156/6/3 157/6/3
f 160/6/3 159/6/3 158/6/3
f 161/6/3 159/6/3 160/6/3
f 163/6/3 162/6/3 161/6/3
f 164/6/3 162/6/3 163/6/3
f 165/4/3 164/4/3 163/4/3
f 166/4/3 164/4/3 165/4/3
f 167/4/3 164/4/3 166/4/3
f 170/1/3 169/1/3 168/1/3
f 171/1/3 169/1/3 170/1/3
f 174/6/3 173/6/3 172/6/3
f 175/6/3 173/6/3 174/6/3
f 176/6/4 177/6/4 178/6/4
f 178/6/4 177/6/4 179/6/4
f 180/6/4 181/6/4 182/6/4
f 182/6/4 181/6/4 183/6/4
f 183/6/4 184/6/4 185/6/4
f 185/6/4 184/6/4 186/6/4
f 186/6/4 187/6/4 188/6/4
f 188/6/4 187/6/4 189/6/4
f 188/4/4 189/4/4 190/4/4
f 190/4/4 189/4/4 191/4/4
f 191/4/4 189/4/4 192/4/4
f 193/1/4 194/1/4 195/1/4
f 195/1/4 194/1/4 196/1/4
f 197/6/4 198/6/4 199/6/4
f 199/6/4 198/6/4 200/6/4
f 199/1/4 200/1/4 205/1/4
f 200/6/4 201/6/4 206/6/4
f 204/1/4 205/1/4 208/1/4
f 205/1/4 200/1/4 208/1/4
f 206/6/4 207/6/4 209/6/4
f 208/1/4 200/1/4 209/1/4
f 200/6/4 206/6/4 209/6/4
f 209/6/4 207/6/4 210/6/4
f 204/1/4 208/1/4 211/1/4
f 208/3/4 209/3/4 212/3/4
f 211/1/4 208/1/4 212/1/4
f 209/3/4 210/3/4 212/3/4
f 212/3/4 210/3/4 213/3/4
f 210/6/4 207/6/4 214/6/4
f 213/3/4 210/3/4 214/3/4
f 214/6/4 207/6/4 215/6/4
f 202/1/4 203/1/4 216/1/4
f 203/3/4 204/3/4 217/3/4
f 216/1/4 203/1/4 217/1/4
f 204/1/4 211/1/4 218/1/4
f 217/3/4 204/3/4 218/3/4
f 211/3/4 212/3/4 219/3/4
f 218/1/4 211/1/4 219/1/4
f 212/1/4 213/1/4 220/1/4
f 219/3/4 212/3/4 220/3/4
f 213/8/4 214/8/4 221/8/4
f 220/1/4 213/1/4 221/1/4
f 214/7/4 215/7/4 222/7/4
f 221/8/4 214/8/4 222/8/4
f 222/7/4 215/7/4 223/7/4
f 216/8/4 217/8/4 224/8/4
f 218/3/4 219/3/4 225/3/4
f 224/8/4 217/8/4 225/8/4
f 217/3/4 218/3/4 225/3/4
f 225/3/4 219/3/4 226/3/4
f 219/8/4 220/8/4 227/8/4
f 226/3/4 219/3/4 227/3/4
f 222/1/4 223/1/4 228/1/4
f 227/8/4 220/8/4 228/8/4
f 220/1/4 221/1/4 228/1/4
f 221/1/4 222/1/4 228/1/4
f 224/1/4 225/1/4 229/1/4
f 225/3/4 226/3/4 230/3/4
f 229/1/4 225/1/4 230/1/4
f 226/1/4 227/1/4 231/1/4
f 228/1/4 223/1/4 231/1/4
f 227/1/4 228/1/4 231/1/4
f 231/1/4 223/1/4 232/1/4
f 232/1/4 223/1/4 233/1/4
f 229/8/4 230/8/4 234/8/4
f 230/3/4 226/3/4 235/3/4
f 234/8/4 230/8/4 235/8/4
f 226/1/4 231/1/4 236/1/4
f 235/3/4 226/3/4 236/3/4
f 231/7/4 232/7/4 237/7/4
f 236/1/4 231/1/4 237/1/4
f 232/8/4 233/8/4 238/8/4
f 237/7/4 232/7/4 238/7/4
f 233/1/4 223/1/4 239/1/4
f 238/8/4 233/8/4 239/8/4
f 239/1/4 223/1/4 240/1/4
f 237/1/4 238/1/4 241/1/4
f 238/1/4 239/1/4 241/1/4
f 241/1/4 239/1/4 242/1/4
f 246/1/5 244/1/5 243/1/5
f 247/1/5 244/1/5 246/1/5
f 248/1/5 244/1/5 247/1/5
f 249/1/5 244/1/5 248/1/5
f 250/8/5 245/8/5 244/8/5
f 250/1/5 244/1/5 249/1/5
f 251/8/5 245/8/5 250/8/5
f 252/1/5 246/1/5 243/1/5
f 253/8/5 247/8/5 246/8/5
f 253/1/5 246/1/5 252/1/5
f 254/7/5 248/7/5 247/7/5
f 254/8/5 247/8/5 253/8/5
f 255/8/5 249/8/5 248/8/5
f 255/7/5 248/7/5 254/7/5
f 256/7/5 250/7/5 249/7/5
f 256/8/5 249/8/5 255/8/5
f 257/1/5 251/1/5 250/1/5
f 257/7/5 250/7/5 256/7/5
f 258/8/5 253/8/5 252/8/5
f 259/7/5 254/7/5 253/7/5
f 259/8/5 253/8/5 258/8/5
f 260/8/5 255/8/5 254/8/5
f 260/7/5 254/7/5 259/7/5
f 261/7/5 256/7/5 255/7/5
f 261/8/5 255/8/5 260/8/5
f 262/8/5 257/8/5 256/8/5
f 262/7/5 256/7/5 261/7/5
f 263/1/5 251/1/5 257/1/5
f 263/8/5 257/8/5 262/8/5
f 264/1/5 251/1/5 263/1/5
f 265/1/5 259/1/5 258/1/5
f 265/1/5 260/1/5 259/1/5
f 265/1/5 261/1/5 260/1/5
f 266/8/5 262/8/5 261/8/5
f 266/1/5 261/1/5 265/1/5
f 267/1/5 263/1/5 262/1/5
f 267/8/5 262/8/5 266/8/5
f 268/8/5 264/8/5 263/8/5
f 268/1/5 263/1/5 267/1/5
f 269/8/5 264/8/5 268/8/5
f 275/6/5 271/6/5 270/6/5
f 276/1/5 272/1/5 271/1/5
f 276/6/5 271/6/5 275/6/5
f 277/1/5 272/1/5 276/1/5
f 278/1/5 274/1/5 273/1/5
f 279/1/5 274/1/5 278/1/5
f 280/8/5 277/8/5 276/8/5
f 281/8/5 277/8/5 280/8/5
f 282/8/5 279/8/5 278/8/5
f 283/8/5 279/8/5 282/8/5
f 285/7/5 281/7/5 280/7/5
f 286/7/5 281/7/5 285/7/5
f 287/7/5 283/7/5 282/7/5
f 288/7/5 283/7/5 287/7/5
f 289/6/5 285/6/5 284/6/5
f 290/1/5 286/1/5 285/1/5
f 290/6/5 285/6/5 289/6/5
f 291/1/5 286/1/5 290/1/5
f 292/1/5 288/1/5 287/1/5
f 293/1/5 288/1/5 292/1/5
f 296/6/5 295/6/5 294/6/5
f 297/6/5 296/6/5 294/6/5
f 298/6/5 296/6/5 297/6/5
f 299/6/6 300/6/6 301/6/6
f 301/6/6 300/6/6 302/6/6
f 303/6/6 304/6/6 305/6/6
f 305/6/6 304/6/6 306/6/6
f 307/6/6 308/6/6 312/6/6
f 312/6/6 308/6/6 313/6/6
f 309/8/6 310/8/6 314/8/6
f 314/8/6 310/8/6 315/8/6
f 311/6/6 312/6/6 316/6/6
f 316/6/6 312/6/6 317/6/6
f 317/6/6 318/6/6 321/6/6
f 321/6/6 318/6/6 322/6/6
f 319/1/6 320/1/6 323/1/6
f 323/1/6 320/1/6 324/1/6
f 325/6/6 326/6/6 332/6/6
f 326/7/6 327/7/6 333/7/6
f 332/6/6 326/6/6 333/6/6
f 327/8/6 328/8/6 334/8/6
f 333/7/6 327/7/6 334/7/6
f 328/7/6 329/7/6 335/7/6
f 334/8/6 328/8/6 335/8/6
f 329/1/6 330/1/6 336/1/6
f 335/7/6 329/7/6 336/7/6
f 336/1/6 330/1/6 337/1/6
f 335/8/6 336/8/6 339/8/6
f 337/1/6 338/1/6 340/1/6
f 339/8/6 336/8/6 340/8/6
f 336/1/6 337/1/6 340/1/6
f 331/6/6 332/6/6 341/6/6
f 341/6/6 332/6/6 342/6/6
f 339/7/6 340/7/6 345/7/6
f 340/1/6 338/1/6 346/1/6
f 345/7/6 340/7/6 346/7/6
f 346/1/6 338/1/6 347/1/6
f 347/1/6 338/1/6 348/1/6
f 342/6/6 343/6/6 349/6/6
f 343/7/6 344/7/6 350/7/6
f 349/6/6 343/6/6 350/6/6
f 344/1/6 345/1/6 351/1/6
f 350/7/6 344/7/6 351/7/6
f 346/1/6 347/1/6 351/1/6
f 345/1/6 346/1/6 351/1/6
f 351/1/6 347/1/6 352/1/6
f 353/6/6 354/6/6 356/6/6
f 354/4/6 355/4/6 357/4/6
f 356/6/6 354/6/6 357/6/6
f 357/4/6 355/4/6 358/4/6
