# MagicaVoxel @ Ephtracy

# group
o 

# material
mtllib HeavyArmor RHand.mtl
usemtl palette

# normals
vn -1 0 0
vn 1 0 0
vn 0 0 1
vn 0 0 -1
vn 0 -1 0
vn 0 1 0

# texcoords
vt 0.974609 0.5
vt 0.978516 0.5
vt 0.982422 0.5

# verts
v -0.3 0 0.2
v -0.3 0 0.1
v -0.3 0 0
v -0.3 0 -0.1
v -0.3 0.1 0.2
v -0.3 0.1 0.1
v -0.3 0.1 0
v -0.3 0.1 -0.1
v -0.2 -0.1 0.1
v -0.2 -0.1 0
v -0.2 0 0.1
v -0.2 0 0
v -0.2 0.1 0.2
v -0.2 0.1 0.1
v -0.2 0.1 0
v -0.2 0.1 -0.1
v -0.2 0.3 0.2
v -0.2 0.3 -0.1
v -0.1 -0.1 0.1
v -0.1 -0.1 0
v -0.1 0 0.1
v -0.1 0 0
v 0 0 0.2
v 0 0 0.1
v 0 0.1 0.2
v 0 0.1 0.1
v 0.1 0 0.1
v 0.1 0 -0.1
v 0.1 0.1 0.2
v 0.1 0.1 0.1
v 0.1 0.1 -0.1
v 0.1 0.3 0.2
v 0.1 0.3 -0.1
v -0.3 0 0.2
v -0.3 0.1 0.2
v -0.2 0 0.2
v -0.2 0.1 0.2
v -0.2 0.3 0.2
v -0.1 0.1 0.2
v -0.1 0.2 0.2
v 0 0 0.2
v 0 0.1 0.2
v 0 0.2 0.2
v 0 0.3 0.2
v 0.1 0.1 0.2
v 0.1 0.3 0.2
v -0.2 -0.1 0.1
v -0.2 0 0.1
v -0.1 -0.1 0.1
v -0.1 0 0.1
v 0 0 0.1
v 0 0.1 0.1
v 0.1 0 0.1
v 0.1 0.1 0.1
v -0.3 0 0
v -0.3 0.1 0
v -0.2 0 0
v -0.2 0.1 0
v -0.3 0 0.1
v -0.3 0.1 0.1
v -0.2 0 0.1
v -0.2 0.1 0.1
v -0.2 -0.1 0
v -0.2 0 0
v -0.1 -0.1 0
v -0.1 0 0
v -0.3 0 -0.1
v -0.3 0.1 -0.1
v -0.2 0 -0.1
v -0.2 0.1 -0.1
v -0.2 0.3 -0.1
v -0.1 0.1 -0.1
v -0.1 0.2 -0.1
v 0 0.2 -0.1
v 0 0.3 -0.1
v 0.1 0 -0.1
v 0.1 0.1 -0.1
v 0.1 0.3 -0.1
v -0.2 -0.1 0.1
v -0.1 -0.1 0.1
v -0.2 -0.1 0
v -0.1 -0.1 0
v -0.3 0 0.2
v -0.2 0 0.2
v 0 0 0.2
v -0.3 0 0.1
v -0.2 0 0.1
v -0.1 0 0.1
v 0 0 0.1
v 0.1 0 0.1
v -0.3 0 0
v -0.2 0 0
v -0.1 0 0
v -0.3 0 -0.1
v -0.2 0 -0.1
v 0.1 0 -0.1
v 0 0.1 0.2
v 0.1 0.1 0.2
v 0 0.1 0.1
v 0.1 0.1 0.1
v -0.3 0.1 0.2
v -0.2 0.1 0.2
v -0.3 0.1 0.1
v -0.2 0.1 0.1
v -0.3 0.1 0
v -0.2 0.1 0
v -0.3 0.1 -0.1
v -0.2 0.1 -0.1
v -0.2 0.3 0.2
v 0 0.3 0.2
v 0.1 0.3 0.2
v -0.2 0.3 -0.1
v 0 0.3 -0.1
v 0.1 0.3 -0.1

# faces
f 5/1/1 2/1/1 1/1/1
f 6/1/1 2/1/1 5/1/1
f 7/1/1 4/1/1 3/1/1
f 8/1/1 4/1/1 7/1/1
f 11/1/1 10/1/1 9/1/1
f 12/1/1 10/1/1 11/1/1
f 14/2/1 12/2/1 11/2/1
f 15/2/1 12/2/1 14/2/1
f 17/2/1 15/2/1 14/2/1
f 17/2/1 16/2/1 15/2/1
f 17/2/1 14/2/1 13/2/1
f 18/2/1 16/2/1 17/2/1
f 19/1/2 20/1/2 21/1/2
f 21/1/2 20/1/2 22/1/2
f 23/2/2 24/2/2 25/2/2
f 25/2/2 24/2/2 26/2/2
f 27/2/2 28/2/2 30/2/2
f 30/2/2 28/2/2 31/2/2
f 29/3/2 30/3/2 32/3/2
f 30/3/2 31/3/2 32/3/2
f 32/3/2 31/3/2 33/3/2
f 36/1/3 35/1/3 34/1/3
f 37/1/3 35/1/3 36/1/3
f 39/2/3 37/2/3 36/2/3
f 39/2/3 38/2/3 37/2/3
f 40/2/3 38/2/3 39/2/3
f 41/2/3 39/2/3 36/2/3
f 42/3/3 40/3/3 39/3/3
f 42/2/3 39/2/3 41/2/3
f 43/2/3 38/2/3 40/2/3
f 43/3/3 40/3/3 42/3/3
f 44/2/3 38/2/3 43/2/3
f 45/3/3 43/3/3 42/3/3
f 45/3/3 44/3/3 43/3/3
f 46/3/3 44/3/3 45/3/3
f 49/1/3 48/1/3 47/1/3
f 50/1/3 48/1/3 49/1/3
f 53/2/3 52/2/3 51/2/3
f 54/2/3 52/2/3 53/2/3
f 57/1/3 56/1/3 55/1/3
f 58/1/3 56/1/3 57/1/3
f 59/1/4 60/1/4 61/1/4
f 61/1/4 60/1/4 62/1/4
f 63/1/4 64/1/4 65/1/4
f 65/1/4 64/1/4 66/1/4
f 67/1/4 68/1/4 69/1/4
f 69/1/4 68/1/4 70/1/4
f 69/2/4 70/2/4 72/2/4
f 70/2/4 71/2/4 72/2/4
f 72/2/4 71/2/4 73/2/4
f 72/3/4 73/3/4 74/3/4
f 73/2/4 71/2/4 74/2/4
f 74/2/4 71/2/4 75/2/4
f 69/2/4 72/2/4 76/2/4
f 72/3/4 74/3/4 77/3/4
f 76/2/4 72/2/4 77/2/4
f 74/3/4 75/3/4 77/3/4
f 77/3/4 75/3/4 78/3/4
f 81/1/5 80/1/5 79/1/5
f 82/1/5 80/1/5 81/1/5
f 86/1/5 84/1/5 83/1/5
f 87/2/5 85/2/5 84/2/5
f 87/1/5 84/1/5 86/1/5
f 88/2/5 85/2/5 87/2/5
f 89/2/5 85/2/5 88/2/5
f 93/2/5 90/2/5 89/2/5
f 93/2/5 89/2/5 88/2/5
f 94/1/5 92/1/5 91/1/5
f 95/2/5 93/2/5 92/2/5
f 95/1/5 92/1/5 94/1/5
f 96/2/5 90/2/5 93/2/5
f 96/2/5 93/2/5 95/2/5
f 99/3/5 98/3/5 97/3/5
f 100/3/5 98/3/5 99/3/5
f 101/1/6 102/1/6 103/1/6
f 103/1/6 102/1/6 104/1/6
f 105/1/6 106/1/6 107/1/6
f 107/1/6 106/1/6 108/1/6
f 109/2/6 110/2/6 112/2/6
f 110/3/6 111/3/6 113/3/6
f 112/2/6 110/2/6 113/2/6
f 113/3/6 111/3/6 114/3/6
